<svg width="17" height="18" viewBox="0 0 17 18" fill="none" xmlns="http://www.w3.org/2000/svg">
<path d="M2.125 5.4585H4.25" stroke="#F9FAFB" stroke-width="1.0625" stroke-linecap="round" stroke-linejoin="round"/>
<path d="M2.125 12.5415H6.375" stroke="#F9FAFB" stroke-width="1.0625" stroke-linecap="round" stroke-linejoin="round"/>
<path d="M12.75 12.5415H14.875" stroke="#F9FAFB" stroke-width="1.0625" stroke-linecap="round" stroke-linejoin="round"/>
<path d="M10.625 5.4585H14.875" stroke="#F9FAFB" stroke-width="1.0625" stroke-linecap="round" stroke-linejoin="round"/>
<path d="M4.25 5.4585C4.25 4.79841 4.25 4.46837 4.35784 4.20803C4.50162 3.86091 4.77741 3.58512 5.12453 3.44133C5.38488 3.3335 5.71492 3.3335 6.375 3.3335C7.03508 3.3335 7.36511 3.3335 7.62549 3.44133C7.97257 3.58512 8.2484 3.86091 8.39219 4.20803C8.5 4.46837 8.5 4.79841 8.5 5.4585C8.5 6.11858 8.5 6.44862 8.39219 6.70897C8.2484 7.05609 7.97257 7.33187 7.62549 7.47566C7.36511 7.5835 7.03508 7.5835 6.375 7.5835C5.71492 7.5835 5.38488 7.5835 5.12453 7.47566C4.77741 7.33187 4.50162 7.05609 4.35784 6.70897C4.25 6.44862 4.25 6.11858 4.25 5.4585Z" stroke="#F9FAFB" stroke-width="1.0625"/>
<path d="M8.5 12.5415C8.5 11.8814 8.5 11.5514 8.60781 11.291C8.7516 10.9439 9.02743 10.6681 9.37451 10.5243C9.63489 10.4165 9.9649 10.4165 10.625 10.4165C11.2851 10.4165 11.6151 10.4165 11.8755 10.5243C12.2226 10.6681 12.4984 10.9439 12.6422 11.291C12.75 11.5514 12.75 11.8814 12.75 12.5415C12.75 13.2016 12.75 13.5316 12.6422 13.792C12.4984 14.1391 12.2226 14.4149 11.8755 14.5587C11.6151 14.6665 11.2851 14.6665 10.625 14.6665C9.9649 14.6665 9.63489 14.6665 9.37451 14.5587C9.02743 14.4149 8.7516 14.1391 8.60781 13.792C8.5 13.5316 8.5 13.2016 8.5 12.5415Z" stroke="#F9FAFB" stroke-width="1.0625"/>
</svg>
