<svg width="18" height="18" viewBox="0 0 18 18" fill="none" xmlns="http://www.w3.org/2000/svg">
<path d="M11.1248 12.0644L12.1229 13.1175C12.6541 13.678 12.9198 13.9582 13.2498 13.9582C13.5799 13.9582 13.8455 13.678 14.3768 13.1175L15.3748 12.0644M13.2498 13.8964V10.7974C13.2498 9.21531 13.2498 8.42432 12.9334 7.72682C12.6168 7.02928 12.0215 6.50839 10.8309 5.46661L10.4165 5.104" stroke="white" stroke-width="1.5" stroke-linecap="round" stroke-linejoin="round"/>
<path d="M2.625 5.10417C2.625 4.23638 2.625 3.80248 2.79388 3.47103C2.94244 3.17948 3.17948 2.94244 3.47103 2.79388C3.80248 2.625 4.23638 2.625 5.10417 2.625C5.97195 2.625 6.40585 2.625 6.7373 2.79388C7.02886 2.94244 7.26589 3.17948 7.41445 3.47103C7.58333 3.80248 7.58333 4.23638 7.58333 5.10417C7.58333 5.97195 7.58333 6.40585 7.41445 6.7373C7.26589 7.02886 7.02886 7.26589 6.7373 7.41445C6.40585 7.58333 5.97195 7.58333 5.10417 7.58333C4.23638 7.58333 3.80248 7.58333 3.47103 7.41445C3.17948 7.26589 2.94244 7.02886 2.79388 6.7373C2.625 6.40585 2.625 5.97195 2.625 5.10417Z" stroke="white" stroke-width="1.5"/>
<path d="M2.625 12.8957C2.625 12.0279 2.625 11.594 2.79388 11.2625C2.94244 10.971 3.17948 10.7339 3.47103 10.5854C3.80248 10.4165 4.23638 10.4165 5.10417 10.4165C5.97195 10.4165 6.40585 10.4165 6.7373 10.5854C7.02886 10.7339 7.26589 10.971 7.41445 11.2625C7.58333 11.594 7.58333 12.0279 7.58333 12.8957C7.58333 13.7634 7.58333 14.1974 7.41445 14.5288C7.26589 14.8204 7.02886 15.0574 6.7373 15.206C6.40585 15.3748 5.97195 15.3748 5.10417 15.3748C4.23638 15.3748 3.80248 15.3748 3.47103 15.206C3.17948 15.0574 2.94244 14.8204 2.79388 14.5288C2.625 14.1974 2.625 13.7634 2.625 12.8957Z" stroke="white" stroke-width="1.5"/>
</svg>
