<svg width="332" height="821" viewBox="0 0 332 821" fill="none" xmlns="http://www.w3.org/2000/svg">
<path d="M201.501 10.5C187.501 15.3 150.334 12.8333 133.501 11C125.501 69 167.001 128.5 167.001 129C171.001 128.2 185.334 87.6667 192.001 67.5C201.501 46 201.501 11 201.501 10.5Z" fill="#ECD0D9"/>
<path d="M9.1111 176.368C22.7778 157.702 43.1111 111.869 54.1111 81.8684C55.761 77.3686 58.1179 72.6138 60.7613 64.8682M9.1111 176.368C6.1111 181.035 0.111096 190.368 1.1111 189.868C9.1111 190.868 46.6111 222.505 50.1111 225.368C66.6111 238.869 77.7778 241.368 84.1111 239.868L91.4214 227.868M9.1111 176.368C27.818 193.535 70.4697 227.868 91.4214 227.868M62.1111 60.8684C61.7778 51.035 65.1111 30.9684 81.1111 29.3684C91.1111 28.3684 99.4494 23.6421 110.611 16.8694M62.1111 60.8684C61.7164 62.0525 61.2569 63.4161 60.7613 64.8682M62.1111 60.8684C69.2934 69.2322 82.6416 87.838 88.6098 105.868M223.611 196.368C222.778 201.702 222.211 213.368 226.611 217.368M223.611 196.368C232.111 192.869 234.111 179.868 234.111 172.868M223.611 196.368C229.333 205.005 238.508 219.193 243.611 228.009M223.611 196.368C218.411 196.177 211.444 201.622 208.611 204.368M226.611 217.368C226.611 217.868 260.111 295.868 259.111 328.868C258.778 441.368 258.311 666.368 259.111 666.368C259.836 666.368 257.329 744.712 255.613 794.868M226.611 217.368L215.625 215.868M169.611 364.868L177.611 452.868C179.457 554.09 182.947 741.532 184.188 794.868M169.611 364.868L163.111 369.868M169.611 364.868L173.111 249.368M169.611 364.868L184.611 351.368M163.111 369.868L152.111 561.368L150.243 794.868M163.111 369.868L142.111 387.368M86.6111 275.368C81.6111 291.368 72.1111 430.035 73.1111 497.868C75.2136 585.191 79.0135 745.951 79.9308 794.868M86.6111 275.368C88.6111 271.368 94.6111 229.868 110.611 217.368M86.6111 275.368C96.1501 263.273 116.205 234.661 120.111 216.975M110.611 217.368C109.611 217.368 113.611 199.868 110.611 196.368M110.611 217.368L120.111 216.975M110.611 196.368L91.4214 227.868M110.611 196.368C113.945 195.751 119.524 195.943 126.111 196.608M110.611 196.368C99.4111 194.768 96.9444 176.368 97.1111 167.368C95.2145 151.202 91.4214 118.768 91.4214 118.368C91.0113 114.328 90.0152 110.114 88.6098 105.868M133.689 2.86838C130.835 3.40904 128.973 4.24177 128.111 4.86837L119.111 10.3686C118.111 11.3688 116.368 12.5359 115.455 13.3682M133.689 2.86838C136.908 2.25857 141.387 2.0203 147.111 2.86838C152.111 3.36857 185.111 4.86839 189.611 2.86838C192.111 1.94509 192.848 -0.251082 199.611 1.94477M133.689 2.86838C133.372 5.17595 133.113 7.8587 132.944 10.8684M199.611 1.94477C202.227 2.79428 205.264 4.43934 208.611 7.36836C210.611 9.11834 211.3 9.4674 215.611 12.0787M199.611 1.94477C200.517 4.66772 201.118 7.65991 201.454 10.8684M132.944 10.8684C143.562 12.8684 172.129 15.6684 201.454 10.8684M132.944 10.8684C132.45 19.6507 132.714 31.2169 134.477 44.3682M201.454 10.8684C202.371 19.6178 201.315 29.9755 199.086 40.8682M115.455 13.3682L105.611 40.8682L124.611 51.3682M115.455 13.3682C114.157 14.5501 112.498 15.7247 110.611 16.8694M124.611 51.3682L134.477 44.3682M124.611 51.3682C119.778 54.2016 112.211 63.0682 120.611 75.8682C120.111 76.8682 171.111 144.368 171.611 147.368M134.477 44.3682C137.871 69.678 146.819 100.859 166.611 129.368C168.111 131.529 190.853 81.104 199.086 40.8682M171.611 147.368C171.53 147.288 171.475 148.779 171.441 151.368M171.611 147.368V135.368M171.611 204.368C171.478 189.068 171.303 161.617 171.441 151.368M171.611 204.368C166.21 203.174 158.654 201.632 150.611 200.196M171.611 204.368H181.611M271.53 60.8684C271.53 59.8682 270.111 56.0043 270.111 55.8682C262.611 29.3682 257.611 28.8682 250.111 26.8682C243.611 25.8682 231.19 21.0029 221.233 15.3682M271.53 60.8684C262.557 69.535 244.411 90.2682 243.611 103.868M271.53 60.8684C273.952 68.9371 279.286 85.7524 286.057 103.868M243.611 103.868C242.811 103.468 236.944 149.702 234.111 172.868M243.611 103.868C243.611 97.0682 252.611 67.3682 257.111 53.3682M234.111 172.868C230.911 170.068 231.111 140.368 231.611 125.868M322.611 173.827C320.53 170.412 320.111 168.868 319.111 167.368C311.111 153.868 295.599 129.399 286.057 103.868M322.611 173.827C324.591 177.077 326.986 180.849 328.611 183.368C331.192 187.368 331.111 186.368 322.611 192.868C321.411 192.868 294.444 216.202 281.111 227.868C272.611 236.035 254.111 252.868 247.111 235.868C244.077 228.5 246.386 232.804 243.611 228.009M322.611 173.827C306.444 189.268 268.011 221.721 243.611 228.009M60.7613 64.8682L56.1111 164.868M215.611 12.0787L230.111 40.8682L208.611 51.3682M215.611 12.0787C217.292 13.0966 219.195 14.2155 221.233 15.3682M208.611 51.3682L199.086 40.8682M208.611 51.3682C214.111 56.2016 221.611 60.8684 208.611 79.8682L171.611 129.368V135.368M110.611 16.8694L100.111 42.3682L117.611 51.3682C114.111 56.0349 109.511 68.2682 119.111 79.8682L171.441 151.368M221.233 15.3682L236.111 44.3682L215.611 53.3682C219.611 57.8682 223.811 71.1682 208.611 88.3682C208.611 88.7682 183.944 119.868 171.611 135.368M134.477 138.868C139.189 157.42 149.011 195.658 150.611 200.196M150.611 200.196C143.08 198.852 135.122 197.601 128.111 196.82M126.111 196.608C119.778 186.902 110.911 170.666 126.111 183.368C127.444 185.336 129.711 190.782 128.111 196.82M126.111 196.608C126.768 196.674 127.435 196.745 128.111 196.82M73.6111 53.3682C80.1102 65.7016 92.2088 93.4682 88.6098 105.868M183.111 171.368C186.444 168.341 192.411 164.594 189.611 173.827L181.611 204.368M181.611 204.368H194.611L201.454 200.196C202.31 200.276 203.472 200.476 204.611 200.827M208.611 204.368C208.611 202.572 206.648 201.456 204.611 200.827M208.611 204.368C211.811 202.768 217.278 185.035 219.611 176.368C214.944 183.702 205.411 198.86 204.611 200.827M208.611 204.368L206.611 210.118M208.611 204.368C209.954 205.071 212.453 209.358 215.625 215.868M286.057 103.868L288.111 176.368M183.111 214.368L194.611 206.368L199.086 209.868M183.111 214.368C173.444 220.868 156.611 235.368 166.611 241.368M183.111 214.368L154.611 215.548M166.611 241.368L173.111 249.368M166.611 241.368C175.411 252.056 191.928 224.821 199.086 209.868M173.111 249.368C175.278 255.368 181.111 264.068 187.111 250.868C186.793 249.915 191.911 232.919 196.114 219.368M199.086 209.868C198.231 212.578 197.203 215.857 196.114 219.368M199.086 209.868L201.849 212.868M184.611 351.368L196.114 219.368M184.611 351.368V360.868H204.611L201.849 212.868M201.849 212.868L204.611 215.868L206.611 210.118M206.611 210.118C214.444 239.035 230.111 300.068 230.111 312.868C230.111 313.268 243.111 303.368 249.611 298.368C242.75 280.24 231.274 250.957 222.037 229.868M215.625 215.868C217.551 219.818 219.724 224.586 222.037 229.868M184.188 794.868C184.404 804.148 184.552 809.368 184.611 809.368C216.611 826.168 244.944 816.368 255.111 809.368C255.267 804.913 255.436 800.04 255.613 794.868M184.188 794.868C199.33 800.368 234.814 808.068 255.613 794.868M79.9308 794.868C80.1043 804.117 80.1747 809.368 80.1111 809.368C98.5111 826.568 134.444 817.868 150.111 811.368L150.243 794.868M79.9308 794.868C92.2106 802.035 123.465 812.068 150.243 794.868M154.611 215.548L151.611 284.368M154.611 215.548L151.611 215.672M120.111 216.975L151.611 215.672M142.111 225.368L151.611 215.672M222.037 229.868C225.229 245.035 231.611 276.668 231.611 281.868" stroke="#201717" stroke-width="2"/>
</svg>
