<svg width="236" height="701" viewBox="0 0 236 701" fill="none" xmlns="http://www.w3.org/2000/svg">
<path d="M92.5 0L95 28.5L116 62L137.5 28.5V0H92.5Z" fill="#ECD0D9"/>
<path d="M92.4998 1H137L136.98 1.5256M92.4998 1L76.9998 17.5M92.4998 1L93.4998 14.5M94.4998 28L115.5 62M94.4998 28L86.9998 36M94.4998 28L93.4998 14.5M115.5 62L136 28M115.5 62L116.9 65.5M136 28L147 37.0256M136 28L136.5 14.5M76.9998 17.5L74.9998 36H86.9998M76.9998 17.5C46.4995 20.5 42 48 41 47.5M86.9998 36L74.9998 41.5L113.75 72.5M122.5 79.5L118.3 69M122.5 79.5L121.185 140M122.5 79.5L113.75 72.5M118.3 69L155.5 44L147 37.0256M118.3 69L116.9 65.5M147 37.0256L156 35.5L154.5 17.5M154.5 17.5C148.653 13.3504 136.965 4.34607 136.98 1.5256M154.5 17.5C163.5 18.8333 183.2 26.7 190 47.5M136.98 1.5256L136.5 14.5M93.4998 14.5H136.5M121 148.5L121.185 140M121 148.5C107.277 149.504 83.7419 149.478 68 144.791M121 148.5C134.833 148.886 162.9 148.827 164.5 145.5M57.4998 87C56.9998 75 53 50.3 41 47.5M57.4998 87C56.2443 97.3866 54.1758 115.027 53.1252 125.5M57.4998 87V37.0256M41 47.5L35.2514 67M190 47.5C180 50.3 176.5 71.3333 176 81.5C176.061 82.1438 176.125 82.8114 176.19 83.5M190 47.5C189.627 47.5 205.756 96.225 215.501 125.5M164.5 145.5C164.5 146.5 164.5 148.9 164.5 150.5C190.1 155.3 210.5 139.833 217.5 131.5C216.873 129.618 216.204 127.609 215.501 125.5M164.5 145.5C166.802 144.656 170.206 143.169 173.288 141.341M176 35.5L176.19 83.5M176.19 83.5C177.35 95.7358 179.098 114.625 179.982 125.5M53.1252 125.5C52.6417 130.32 52.3737 133.622 52.4998 134C53.883 137.754 57.5112 140.63 62.5 142.81M53.1252 125.5C56.7265 129.493 64.7703 135.104 76.9998 138.605M121.185 140C117.842 140.6 114.614 141.041 111.5 141.341M121.185 140C127.542 141.18 136.999 142.054 146.623 141.341M179.982 125.5C180.4 130.648 180.624 134 180.5 134C180.068 136.59 176.9 139.2 173.288 141.341M179.982 125.5C173.906 136.235 160.101 140.344 146.623 141.341M113.75 72.5L111.5 141.341M111.5 141.341C97.7146 142.67 86.1783 141.232 76.9998 138.605M68 144.791C67.6667 146.694 67.2 150.5 68 150.5C40.8 154.5 21.6667 141.167 15.5 134L18.0058 125.5M68 144.791C66.0336 144.206 64.1889 143.548 62.5 142.81M18.0058 125.5L28.7659 89M18.0058 125.5C20.5584 127.611 24.3142 130.331 28.7659 132.997M62.5 142.81C51.4456 144.35 38.4568 138.801 28.7659 132.997M173.288 141.341C179.193 143.728 195.903 143.9 215.501 125.5M142 44L116.9 65.5M160.5 57.5L146.623 141.341M62.5 54L70 96L76.9998 138.605M28.7659 89V132.997M28.7659 89L35.2514 67M37 111L35.2514 67M65 185C65.9399 182.337 67.189 178.179 68 174.064M65 185C70.5984 185.436 78.1655 185.928 86 186.282M65 185C57 193.667 41 224.6 41 279C41 277.955 36.8119 320.212 31.7194 372M125 163.5C121 158.3 116.667 162.333 115 165C99.3333 164.333 68 162.9 68 162.5C69.2721 164.832 68.9147 169.421 68 174.064M125 163.5C125.257 164.27 133.812 164.381 143.5 163.834M125 163.5C124.673 166.957 124.327 170.606 123.965 174.417M146.623 213.5C156.082 254.333 173.6 342 168 366C168 366.8 183 358 190.5 353.5C186.833 301.333 174.6 194.6 155 185C154.2 185 149.082 185 146.623 185M146.623 213.5V199.25M146.623 213.5L131.958 321M146.623 185L145.062 174.417M146.623 185V199.25M143.5 163.834C152.686 163.315 162.89 162.203 168 160.5C168 160.9 169.667 175.667 170.5 183C177.833 195.5 193 227.8 195 257C195 257.8 200.667 310.667 203.5 337L206.574 372M143.5 163.834L145.062 174.417M104.5 360C105.482 357.644 108.992 325.566 113.022 286M104.5 360C104.5 400.936 104.5 457.22 104.5 512M104.5 360L86 415M122.955 185C123.304 181.358 123.641 177.823 123.965 174.417M122.955 185C119.43 187.155 102.147 187.012 86 186.282M122.955 185C120.048 215.394 116.357 253.26 113.022 286M161.5 169L145.062 174.417M104.5 169L123.965 174.417M97 174.417C89 175.987 72 178.114 68 174.064M65 341.5C67.4 337.9 80 236.522 86 186.282M95 316L113.022 286M127 265.5L146.623 199.25M86 642C93.2 638 101.333 553.667 104.5 512M104.5 512C104.5 585.801 104.5 656.872 104.5 684M33.5 472L31.7194 372M31.7194 372C27.0689 419.292 21.6642 474.531 18.0058 512L2.74753 671M146.623 614C146.623 610.4 134.777 544.5 128.853 512M128.853 512L131 590C130.75 616.391 130.425 662.587 130.616 684M128.853 512L125 372L131.958 321M27 553.5C28.9926 605.5 40.9821 701.5 73 669.5C86 652.5 85 608.5 65 541.5M175.5 529C161.833 588.5 155 723.5 189 669.5C201.355 645.667 225.11 586.7 221.283 541.5M221.283 541.5L216.5 485L206.574 372M221.283 541.5L224.5 579.5L233.352 672M195 472L206.574 372M143.5 422L131.958 321M130.616 684C130.68 691.12 130.8 695.5 131 695.5C159.06 704.341 177.959 696.634 185.426 692.597C187.859 691.281 190.362 690.818 193.104 691.178C211.512 693.596 228.137 687.57 234.5 684L233.352 672M130.616 684C142.411 688.833 170.2 695.6 187 684C186.5 684 223.703 686 233.352 672M2.74753 671L1.5 684C9.91486 685.736 27.7068 688.864 42.8828 690.038C49.8403 690.576 56.6571 692.403 63.2085 694.807C75.152 699.188 92.1162 702.447 104.5 695.5C104.5 694.989 104.5 690.927 104.5 684M2.74753 671C17.3317 675.667 48.8 684.5 58 682.5C70.8333 688.333 98.1 696.8 104.5 684M119.5 82C119.5 81.6898 119.3 80.9586 119.132 80.4128C119.049 80.1435 118.877 79.9118 118.647 79.7481V79.7481C118.421 79.5867 118.151 79.5 117.873 79.5C117.847 79.5 117.821 79.5 117.794 79.5C117.042 79.5 116.4 80.0329 116.203 80.7591C116.002 81.4998 115.744 82.2554 115.5 82.5C115.1 82.9 116 83.6667 116.5 84C116.833 84.1667 117.8 84.4 119 84C120.5 83.5 119.5 82.5 119.5 82ZM117.5 111.5C117.5 111.144 117.235 109.437 117.06 108.362C117.021 108.124 116.924 107.899 116.779 107.706V107.706C116.155 106.873 114.894 106.908 114.317 107.774L113.977 108.285C113.673 108.74 113.57 109.304 113.735 109.826C113.943 110.486 114.229 111.229 114.5 111.5C115 112 115.5 112.5 116 112.5C116.5 112.5 117.5 112 117.5 111.5ZM116 131L116.26 131.347C117.037 132.382 117 133.706 117 135V135C117 135.17 116.76 135.285 116.433 135.362C115.556 135.569 114.7 135.05 114.2 134.3V134.3C114.067 134.101 113.962 133.885 113.886 133.658L113.851 133.552C113.348 132.045 114.148 129.831 115.54 130.596C115.709 130.688 115.865 130.82 116 131Z" stroke="#201717" stroke-width="2"/>
</svg>
