<svg width="284" height="768" viewBox="0 0 284 768" fill="none" xmlns="http://www.w3.org/2000/svg">
<path d="M170.502 5.49982C169.702 -1.70018 166.169 0.833149 164.502 2.99982L168.002 44H161.502C146.302 45.6 145.835 51.6667 147.502 54.5V65.5C146.302 81.1 153.669 89.6667 157.502 92L160.002 111.5L193.502 111L227.502 48.5C215.002 42.5 203.502 56 203.002 56.5C197.802 48.1 180.502 44.6667 172.502 44C172.002 31.6666 170.902 6.69982 170.502 5.49982Z" fill="#ECD0D9"/>
<path d="M255.002 54.5L248.002 52.5L232.002 111.5H242.502C243.169 104.5 244.402 90.5 244.002 90.5C251.202 91.3 252.335 86.8333 252.002 84.5L255.002 54.5Z" fill="#ECD0D9"/>
<path d="M134.27 191.086C128.402 191.086 123.72 198.522 120.083 209.096M134.27 191.086C133.917 190.91 133.624 190.187 133.017 189.356M134.27 191.086C133.525 190.589 133.139 189.999 133.017 189.356M123.465 186.455C123.465 186.97 133.756 175.65 110.086 177.193C109.572 178.222 85.902 189.543 82.3001 238.94C82.3001 239.352 59.6595 348.541 48.3393 403.084C32.731 452.31 1.41165 554.878 1 571.344C1.41165 572.168 7.68925 573.403 10.7766 573.917M123.465 186.455C108.645 186.455 102.539 225.905 101.339 245.629L82.3001 422.123M123.465 186.455C129.546 185.78 131.857 187.766 133.017 189.356M10.7766 573.917V602.732C17.0734 601.743 27.8331 601.367 39.0773 603.608M10.7766 573.917C18.5979 573.917 37.019 586.266 45.2519 592.441L70.4653 369.123M41.65 630.004C40.6209 618.169 65.3197 616.625 67.8925 617.655C59.8665 609.824 49.2727 605.64 39.0773 603.608M41.65 630.004C41.65 630.827 63.6045 652.301 74.5817 662.936L110.086 266.212C111.14 250.819 114.282 225.964 120.083 209.096M41.65 630.004C33.8288 625.064 36.676 610.348 39.0773 603.608M120.083 209.096C117.608 216.814 114.82 232.354 123.465 232.766M123.465 232.766C118.319 240.312 110.086 255.715 118.319 256.95M123.465 232.766C128.816 232.354 138.044 222.303 141.989 217.329M118.319 256.95C117.805 256.435 112.07 274.445 120.083 276.503M118.319 256.95L138.901 238.94M120.083 276.503C120.083 276.091 120.083 286.966 120.083 292.454M120.083 276.503C126.022 273.621 137.162 258.493 141.989 251.29M120.083 292.454C135.079 289.573 144.365 267.584 147.134 256.95L170.22 199.319M120.083 292.454C119.156 294.251 118.183 296.371 117.304 298.629M123.465 320.755C120.083 319.726 112.144 340.823 127.067 348.026C127.581 348.026 120.377 368.094 131.183 376.327C131.183 377.562 131.183 386.447 131.183 390.735C130.497 393.822 130.771 400.305 137.358 401.54C136.843 403.084 138.387 419.55 145.591 407.201C145.591 406.377 181.61 296.399 199.619 241.513L211.427 194.174M123.465 320.755C130.463 317.462 135.643 303.26 137.358 296.571M123.465 320.755C111.369 321.427 113.403 308.66 117.304 298.629M224.421 79.5L170.22 199.319M207 95C195.702 126.949 165.77 191.676 133.017 189.356M133.017 189.356C132.382 186.005 138.901 181.227 138.901 180.795C135.814 177.708 140.96 174.621 141.989 173.591C157.188 166.858 176.051 141.429 193.934 111.33M147.134 234.824C147.134 233.177 162.525 210.468 170.22 199.319M117.304 298.629C120.207 300.859 125.503 307.068 123.465 314.066M141.989 409.773C138.753 420.751 136.075 443.734 151.251 447.851M151.251 447.851C151.662 447.851 105.455 623.829 82.3001 711.819C78.0121 719.022 80.6535 734.871 125.523 740.634C125.935 740.634 134.613 742.349 138.901 743.207M151.251 447.851C155.779 444.146 165.784 387.304 170.22 359.347M138.901 743.207L173.891 542.015M138.901 743.207C149.365 749.855 168.388 759.98 185.726 764.578M211.427 194.174C220.698 190.229 239.858 182.03 242.327 180.795C245.586 183.196 250.149 191.704 242.327 206.523M211.427 194.174L224.421 359.347M211.427 194.174C213.034 196.468 214.904 199.09 216.945 201.892M211.427 194.174L156.396 536.354M211.427 194.174L203.736 471.006M211.427 194.174L232.092 111.33M242.327 206.523C242.327 206.009 263.939 213.212 251.075 238.94C251.288 239.357 251.502 239.799 251.715 240.263M242.327 206.523L224.421 199.319M245.415 272.386C243.871 272.386 257.764 282.163 242.327 296.571L238.211 323.328M245.415 272.386C259.499 266.127 255.798 249.147 251.715 240.263M245.415 272.386C233.065 267.035 221.289 223.16 216.945 201.892M238.211 323.328C240.853 335.162 241.793 358.935 224.421 359.347M238.211 323.328C232.448 323.328 225.176 275.302 222.26 251.29M224.421 359.347L226.891 390.735C226.479 408.024 244.214 520.06 253.133 573.917C261.366 613.024 278.758 694.324 282.463 706.673C287.094 722.11 258.793 730.857 258.793 731.372C252.269 733.981 245.469 737.418 239.792 740.634M251.715 240.263C246.874 241.167 228.959 218.395 216.945 201.892M188.813 508.054L185.726 764.578M185.726 764.578C195.673 767.215 205.065 768.034 211.969 765.333C211.969 764.818 225.347 762.245 226.376 749.896C226.376 749.005 232.036 745.026 239.792 740.634M203.736 542.015L239.792 740.634M164.115 3.27291C164.263 3.10279 164.43 2.92592 164.61 2.74934M227.264 48.5539C234.025 34.5163 239.89 21.5182 244.386 10.9913L256.735 12.5349L247.237 50.6121M227.264 48.5539C220.948 43.9228 207.75 48.7816 203 56.5C200.118 49.502 181.781 45.1235 172.348 43.9228L170.22 3.27291C169.058 -0.435265 166.25 1.1455 164.61 2.74934M227.264 48.5539C217.538 68.7484 205.957 91.0944 193.934 111.33M164.61 2.74934L167.717 43.9228C160.856 44.2659 147.134 46.084 147.134 50.6121C147 52.5 147.82 68.2786 148.163 77.3691C148.513 80.971 150.751 88.6893 156.911 90.7476M156.911 90.7476C157.323 90.7476 159.141 104.469 159.998 111.33H193.934M156.911 90.7476C165.658 93.3203 170.22 88.6893 170.22 88.1748M232.092 111.33H242.327L244.386 90.7476C246.829 90.233 250.606 92.5 251.715 84.0583C252.5 80 253.69 64.3336 254.677 54.214C252.026 53.6994 246.826 52.2587 247.237 50.6121M232.092 111.33L247.237 50.6121" stroke="#201717" stroke-width="2"/>
</svg>
