<svg width="327" height="746" viewBox="0 0 327 746" fill="none" xmlns="http://www.w3.org/2000/svg">
<path d="M65.5 18.9999C68.1667 13.9999 78.3 6.49993 97.5 16.4999C97.5 15.9999 95.5 -2.5 122 12.5C122 13 129.5 19.4999 131 12.5C131.5 12.5 127.5 4.4999 147 12.5C148.667 14 152.2 15.0001 153 7.0001C153 6.5001 157.5 -7.4999 174.5 8.5001C174.061 8.93867 176.316 12.8393 175.189 14.1286C179.795 12.0986 205.667 3.27182 197 16.4999C197.5 16.4999 230.5 -1 228.5 14.5C241 12.5 264.6 10.5999 259 18.9999C258 18.9999 257.5 25.5001 224.5 21C224 21 211.5 17.5 197 22.5C185.5 24.8333 165.3 27.8 176.5 21C184 18.6666 195.5 14.4999 181.5 16.4999C181.9 16.4999 175 17.5 171.5 18C168 19.1667 159.4 20.8 153 18C145.167 16.3333 132.8 14.4 146 20C146.5 20 162.5 21 151 25C148 26.8659 139.8 28.6782 131 21C125.5 18.3333 111.6 14.4 100 20C99.5 20 78.5 27.4999 65.5 18.9999Z" fill="#ECD0D9"/>
<path d="M259.5 19.2495C262.3 10.4495 243 12.9162 233 15.2495C226 16.7494 228.8 14.7495 228.5 11.7495C227.5 1.74944 205.5 12.7495 203.5 13.7495C193 19.7495 197 15.2495 197.5 15.2495C204.7 6.04945 188.833 9.74949 180 12.7495C174 16.2495 172.5 13.7495 174.5 12.7495C180 6.74952 151.5 -9.25049 151.5 10.7495C151.5 13.9495 148.5 13.4162 147 12.7495C128 6.24952 131.5 9.74952 130.5 12.7495C130.5 18.7495 124.5 14.5828 121.5 11.7495C97 -1.25052 96.5 13.7495 96.5 15.2495C88.9 10.4494 79.3333 11.5828 75.5 12.7495C69.1811 13.3225 66.4829 15.8654 65.8494 19.2495M259.5 19.2495C254 26.7496 225 20.7495 224 20.7495C215 16.7495 187 24.7495 186 24.7495C179.063 25.3528 175.765 25.0917 174.5 24.4741M259.5 19.2495C259.5 19.5538 258.944 22.8218 256.931 27.2495M240.5 63.7495C252.5 60.7495 250.5 36.7495 251 36.7495C253.739 33.423 255.637 30.0965 256.931 27.2495M240.5 63.7495C239.5 63.7495 248 69.7495 240.5 76.7495C240.5 77.2495 245.5 88.7495 237 88.7495M240.5 63.7495C237.5 64.6319 233.713 65.7479 229.773 66.9119M237 88.7495C237.5 89.2495 276 193.249 284.5 297.249C284.5 297.48 291.624 358.318 299.008 427.249M237 88.7495L229.773 90.0349M315 618.25C316.617 599.39 307.635 507.795 299.008 427.249M315 618.25L299.008 544.75M315 618.25C314.642 618.25 321.198 663.575 324.04 693.75M268.5 743.75C287 735.416 324.2 718.75 325 718.75C325.711 715.337 325.168 705.739 324.04 693.75M268.5 743.75C240.667 742.083 183.4 736.75 177 728.75C176.774 728.75 176.649 719.238 176.594 704.25M268.5 743.75L267.499 729.25M164 201.25L156.5 334.249L153.298 537.25M164 201.25L163.875 197.101M164 201.25L175.845 519.25M62 743.75C61.2 743.75 21.6667 727.083 2 718.75L4.35323 697.25M62 743.75L63.1706 725.25M62 743.75C69.7633 745.08 89.0576 742.168 108.8 738.286M13 618.25L32 408.249M13 618.25L4.35323 697.25M13 618.25L32 537.25M32 408.249C40.8333 311.916 64.8 113.15 90 88.7495M32 408.249C40.4 447.449 31.5 498.583 26 519.25M90 88.7495C89 88.7495 83 82.7495 86.5 76.7495C87 76.7495 81 67.7495 86.5 63.7495M90 88.7495C92.6135 89.1582 95.508 89.5912 98.6203 90.0349M86.5 63.7495C81.3333 62.2495 71.9 55.9495 75.5 42.7495C75.5 41.7257 69.7204 34.4127 67.037 27.2495M86.5 63.7495L95.75 65.3307M65.8494 19.2495C71.3996 21.7495 86.4 25.2495 102 19.2495C103 19.2495 115.5 12.7495 137 24.7495C144 29.2495 151.754 24.3467 154.5 22.7047M65.8494 19.2495C65.4037 21.6308 65.9802 24.4285 67.037 27.2495M154.5 22.7047C155.989 21.8146 154.14 20.6556 145 19.2495C140 18.7495 138.5 13.7495 156.5 19.2495C158.403 19.4474 161.172 19.614 164 19.5694M154.5 22.7047L153.096 30.2495M145 73.7495L163.75 75.2495M145 73.7495L153.096 30.2495M145 73.7495L133.5 71.7837M182.5 76.7495L163.75 75.2495M182.5 76.7495L175.843 33.2495M182.5 76.7495C182.629 73.6431 184.97 68.3655 192.567 66.9119M182.5 76.7495C185.856 82.0829 192.567 92.9495 192.567 93.7495M182.5 76.7495L188.5 73.7495C189.856 74.7495 192.567 80.1495 192.567 93.7495M207 73.7495C207.4 67.3495 202.833 66.4162 200.5 66.7495C197.372 66.3921 194.752 66.4938 192.567 66.9119M207 73.7495V46.2495M207 73.7495C206.794 73.7495 212.688 71.9789 220 69.8064M207 73.7495C207.496 79.14 208.189 86.5482 208.886 93.7495M174.5 24.4741C171.572 23.044 175.5 21.7495 178.5 20.7495C196.1 15.5495 184.5 16.2495 174.5 17.2495C169.5 17.7495 168.317 19.5014 164 19.5694M174.5 24.4741L175.843 33.2495M164 19.5694L163.75 75.2495M67.037 27.2495C74.1913 27.5659 91.8 27.4538 105 24.4741C115 22.2168 116.231 17.7495 133.5 30.2495C134 30.7495 149.692 37.7944 153.096 30.2495M175.843 33.2495C181.895 33.5217 195.3 32.7028 200.5 27.2495C200.5 24.7495 206 19.2495 224 27.2495C232.287 30.5829 250.476 35.2495 256.931 27.2495M137 36.7495L133.5 71.7837M133.5 71.7837L117.5 69.0487M117.5 42.7495V69.0487M117.5 69.0487L105 66.9119M102 33.2495L105 66.9119M105 66.9119L95.75 65.3307M86.5 40.7495C87.5 48.5871 90.75 64.476 95.75 65.3307M188.5 36.7495L192.567 66.9119M192.567 66.9119C203.821 72.6418 206.878 101.524 207 115.25C209.8 163.25 205.833 171.916 203.5 170.25M222 33.2495L220 69.8064M220 69.8064C223.12 68.8793 226.499 67.879 229.773 66.9119M240.5 42.7495L229.773 66.9119M192.567 93.7495L195.5 244.75L224 258.25C219.667 220.25 211.1 138.95 211.5 117.75C211.249 117.498 210.063 105.919 208.886 93.7495M192.567 93.7495C188.464 95.4385 181.314 96.1896 172.5 96.3006M208.886 93.7495L215.443 92.5834M237 121.25C236.515 111.273 234.391 91.0632 229.773 90.0349M229.773 90.0349L222 91.4172M246 213.75C239.667 175.695 226 97.9514 222 91.4172M222 91.4172L215.443 92.5834M215.443 92.5834C221.414 99.2505 227.484 185.139 229.773 227.25L253 519.25L263.322 668.75M115 92.1946C107.4 97.3507 91.8333 286.38 85 380.249L65.8494 682.912M115 92.1946C112.89 91.9383 110.819 91.6783 108.8 91.4172M115 92.1946C117.131 92.4535 119.302 92.7086 121.5 92.9573M81.5 211.75C82.5 203.75 105.099 94.085 108.8 91.4172M108.8 91.4172C105.223 90.9549 101.808 90.4893 98.6203 90.0349M86.5 117.75C89.4135 108.353 95.9166 89.6557 98.6203 90.0349M115 135.75C116.167 121.374 119.1 92.6906 121.5 92.9573M121.5 92.9573C125.437 93.4026 129.461 93.8272 133.5 94.2153M117.5 197.75C121.667 164.632 130.7 97.5597 133.5 94.2153M133.5 94.2153C138.694 94.7145 143.912 95.1536 149 95.4994M149 95.4994V163.75L156.5 179.75M149 95.4994C154.098 95.846 159.067 96.0989 163.75 96.225M156.5 179.75V132.75L164.5 114.525M156.5 179.75L154.5 187.75L163.75 192.953M172.5 96.3006C169.733 96.3354 166.802 96.3071 163.75 96.225M172.5 96.3006L164.5 114.525M172.5 96.3006L178.5 201.25L163.75 192.953M163.75 96.225L164.5 114.525M163.75 192.953L163.875 197.101M149 217.75C151.5 213.75 163.25 196.453 163.875 197.101M192.567 414.749C186.819 444.916 175.428 508.05 175.845 519.25M175.845 519.25L177 550.25C176.761 592.928 176.453 666.22 176.594 704.25M302.5 523.25C293.838 501.25 281.014 451.249 299.008 427.249M195.5 637.25L176.594 704.25M176.594 704.25C192.562 710.416 233.098 724.05 267.499 729.25M208.886 565.25C209.805 600.25 221.979 669.95 263.322 668.75M263.322 668.75L266.498 714.75M296.5 635.75C295.165 660.75 287.296 711.55 266.498 714.75M266.498 714.75L267.499 729.25M121.5 557.25C116.9 599.691 99.329 684.241 65.8494 682.912M65.8494 682.912L63.1706 725.25M267.499 729.25L324.04 693.75M63.1706 725.25L151.5 704.25M63.1706 725.25C43.5648 715.916 4.35323 697.25 4.35323 697.25M151.5 704.25V651.25L153.298 537.25M151.5 704.25V728.75C140.809 731.422 124.66 735.167 108.8 738.286M32 632.75C39.2831 667.107 64.8395 736.315 108.8 738.286M140 418.749C144.433 458.249 153.298 537.25 153.298 537.25" stroke="#201717" stroke-width="2"/>
</svg>
