<svg width="488" height="495" viewBox="0 0 488 495" fill="none" xmlns="http://www.w3.org/2000/svg">
<path d="M39.4995 150.499C37.8995 147.699 40.1662 112.666 41.4995 95.4993L49.4995 101.499C43.3328 92.3324 34.1995 73.6993 46.9995 72.4993C62.9995 70.9993 68.4995 118.999 68.9995 118.999C71.4995 116.999 73.9995 118.499 74.9995 118.999C91.7995 135.399 109 133.833 115.5 130.999C133 161.999 132 195.499 132 194.999C78.4995 139.499 39.9995 150.499 39.4995 150.499Z" fill="#ECD0D9"/>
<path d="M260 33.4989C215.2 3.49893 116 1.6656 72 4.49893C77.1667 6.99896 87.7 11.899 88.5 11.499C98.1 7.49902 98.5 11.8324 97.5 14.499L106 18.999C108.4 14.999 122.333 17.3324 129 18.999C130 20.6657 132.1 23.999 132.5 23.999C156.9 36.399 227.667 35.499 260 33.4989Z" fill="#ECD0D9"/>
<path d="M67.9991 3.99952C116.999 1.33285 224.299 3.59952 261.499 33.9995M67.9991 3.99952L88.4991 11.4994M67.9991 3.99952C63.4991 1.33282 53.5991 -1.60058 49.9991 7.99942C49.5579 9.32295 44.8347 18.8213 58.4991 26.5335M261.499 33.9995C224.166 34.4995 145.999 33.0994 131.999 23.4994M261.499 33.9995C261.499 41.8328 261.499 57.3995 261.499 56.9995C259.994 57.0578 258.494 57.1093 256.999 57.1543M131.999 23.4994C131.999 22.4994 133.499 18.4994 115.499 16.4994C114.999 15.4994 105.499 16.4994 106.499 18.4994M131.999 23.4994L127.499 45.4994M106.499 18.4994C106.099 18.4994 117.666 20.8328 123.499 21.9994C125.166 22.3328 128.299 24.2994 127.499 29.4994C127.099 29.4994 127.332 32.4995 127.499 33.9995M106.499 18.4994C103.499 16.9994 97.3991 13.9994 96.9991 13.9994M127.499 33.9995L120.173 31.9646C119.201 31.6944 118.173 32.151 117.722 33.0536V33.0536C117.104 34.2902 117.822 35.7773 119.175 36.0613L126.025 37.4994M127.499 33.9995L126.025 37.4994M88.4991 37.4994C88.9991 30.9994 91.3991 17.1994 96.9991 13.9994M88.4991 37.4994C84.4991 40.2993 82.4991 38.6661 81.9991 37.4994C80.7251 37.1074 80.2054 35.8271 80.2106 33.9995M88.4991 37.4994C91.4991 38.3327 95.4991 39.455 99.4991 40.5957M96.9991 13.9994C100.64 9.19942 92.8493 10.3328 88.4991 11.4994M88.4991 11.4994C85.2274 17.5394 80.2267 28.3677 80.2106 33.9995M80.2106 33.9995C75.3068 32.4995 65.3991 29.4994 64.9991 29.4994C62.4697 28.5583 60.3209 27.5617 58.4991 26.5335M80.2106 33.9995C75.9222 41.4656 49.9312 56.8712 47.499 57.3664C28.299 64.4177 38.3324 87.8932 45.7491 98.7495M99.4991 40.5957C107.499 42.8772 115.499 45.2327 115.499 45.4994C121.099 47.0994 123.166 44.8327 123.499 43.4994L126.025 37.4994M99.4991 40.5957C98.8324 42.7303 99.2991 47.0995 106.499 47.4995C106.499 47.8995 114.499 49.6662 118.499 50.4995C121.499 50.9994 127.499 50.6993 127.499 45.4994M127.499 45.4994C131.021 46.4032 135.743 47.4551 141.499 48.5523M58.4991 26.5335C59.4991 29.0221 53.3991 36.2993 20.9991 45.4994C15.1657 46.8328 8.59906 56.2995 28.9991 83.4995M28.9991 83.4995C28.9991 83.9995 -16.0009 167.5 9.49911 197.5M28.9991 83.4995L41.499 95.4995M9.49911 197.5C9.99911 198.5 33.999 274 31.499 312L34.2895 438.5M9.49911 197.5C9.49911 205.1 38.4991 222.333 52.999 230M49.9991 448H34.499L34.2895 438.5M49.9991 448L58.499 446C58.467 443.594 58.4372 441.091 58.4102 438.5M49.9991 448C49.9794 445.757 49.9568 443.42 49.9312 441M52.999 230C20.999 224 41.999 256.5 41.499 258C46.8787 272.602 49.3053 381.889 49.9312 441M52.999 230C54.5084 230.237 58.1697 232.64 61.499 235.034M67.999 240C67.7506 239.751 64.7867 237.397 61.499 235.034M67.999 240C58.7685 254.23 57.7353 373.762 58.4102 438.5M67.999 240C86.3324 258.166 126.099 303.9 138.499 341.5C138.999 342.5 160.499 429 172.999 436.5M41.499 95.4995C39.8766 108.556 38.649 128.321 39.4712 149.5M41.499 95.4995L45.7491 98.7495M61.499 235.034C52.1831 222.525 46.4692 204.905 43.1621 186M34.2895 438.5L49.9312 441M49.9312 441L58.4102 438.5M172.999 436.5C172.499 436 169.999 448.5 188.999 453M172.999 436.5C171.786 432.284 175.783 422.065 180.563 412M188.999 453C189.999 454 213.999 468.5 227.999 469M188.999 453L224.499 462.5M227.999 469L242.999 489C244.166 492.166 249.599 496.6 261.999 489C262.799 489 282.666 479 292.499 474M227.999 469L224.499 462.5M292.499 474C348.499 475 464.399 474.1 479.999 462.5M292.499 474L299.749 468.25M479.999 462.5C480.499 462.5 498.499 448 473.499 433.5L391.999 397M479.999 462.5C457.999 472.5 350.666 470.5 299.749 468.25M391.999 397C397.332 392.833 405.999 383.8 397.999 381C397.599 379.8 364.166 372.833 347.499 369.5M391.999 397C386.832 403.933 376.199 418.036 374.999 418.976M347.499 369.5L345.999 360L357.999 330.5C360.332 328.333 359.899 322.6 339.499 317C338.499 316 312.499 311.5 309.499 317M347.499 369.5C344.837 370.133 342.168 370.887 339.499 371.75M309.499 317C309.099 317 309.332 325 309.499 329M309.499 317C313.769 317.711 319.681 319.098 323.991 321M309.499 329C303.499 328.833 292.199 327 294.999 321C294.874 320.874 291.835 321.031 287.499 321.525M309.499 329C319.999 333 327.499 329 327.999 329C331.573 325.846 328.766 323.107 323.991 321M224.499 462.5C228.68 457.064 234.286 450.361 240.999 443.048M329.999 363.5L336.499 330.5C335.993 327.333 332.784 321 323.991 321M296.499 378L287.499 321.525M287.499 321.525C274.511 323.003 249.877 327.503 256.999 336.5C261.666 338.833 268.199 344 256.999 346C255.998 346.333 242.984 348.891 232.499 353.971M266.499 333C267.999 333 279.499 348.548 283.499 374.5C284.166 379.971 287.699 391.524 296.499 393.957M296.499 393.957C293.457 396.054 290.454 398.224 287.499 400.451M296.499 393.957C303.436 389.178 310.576 384.785 317.814 381M227.999 365.5C232.166 366 240.599 370.4 240.999 384C240.999 384.4 257.999 406.701 266.499 417.801M266.499 417.801C257.813 425.605 249.876 433.515 242.999 440.887M266.499 417.801L304.499 439M266.499 417.801C273.111 411.861 280.156 405.983 287.499 400.451M234.999 412C222.666 406.21 198.399 393.268 199.999 387.815M199.999 387.815C200.86 387.593 201.554 387.278 201.999 387C207.832 379.5 219.699 364.3 220.499 363.5C222.663 359.671 227.266 356.507 232.499 353.971M199.999 387.815C198.281 388.259 195.897 388.332 193.499 387C193.777 387 186.555 399.379 180.563 412M218.999 450L184.999 433.5C182.666 431.333 183.199 428.9 203.999 436.5C205.999 436.5 229.499 440.865 240.999 443.048M240.999 443.048C241.655 442.334 242.322 441.613 242.999 440.887M256.999 467.5C252.332 461.091 242.999 446.797 242.999 440.887M294.999 407C296.899 413.701 298.36 425.243 288.999 417.801C290.499 417.801 282.499 406.944 287.499 400.451M347.499 430C336.709 418.833 315.666 393.4 317.814 381M317.814 381C324.981 377.251 332.244 374.097 339.499 371.75M374.999 391C363.166 386.667 339.499 376.751 339.499 371.75M301.999 455L306.999 462.5L299.749 468.25M301.999 455C307.666 448.833 322.499 436.5 336.499 436.5C342.332 436.666 353.699 434.9 352.499 426.5C352.499 426.122 348.214 413.173 357.999 406.874M301.999 455L278.499 431.5M374.999 418.976C377.499 405.952 372.999 404.5 372.499 403.5C365.786 403.5 361.159 404.84 357.999 406.874M374.999 418.976L357.999 406.874M39.4712 149.5C52.6472 145.5 89.5991 148.9 131.999 194.5M39.4712 149.5C39.9383 161.534 41.0674 174.025 43.1621 186M131.999 194.5C131.999 197.5 198.499 277.943 232.499 353.971M131.999 194.5C135.599 182.1 122.499 146.333 115.499 130M43.1621 186L115.499 261C134.375 289.166 173.813 358.8 180.563 412M115.499 130C111.166 123.166 107.499 112.3 127.499 123.5C127.499 125.5 158.999 141.5 193.499 132.5H211.999M115.499 130C103.501 138.362 83.8371 126.103 73.999 118.599M211.999 132.5C212.832 136.833 218.399 143.3 233.999 134.5C234.799 134.9 269.999 119 287.499 111C286.999 103.258 280.199 81.6509 256.999 57.1543M211.999 132.5L199.999 83.4995M256.999 57.1543C254.651 57.2249 252.318 57.2794 249.999 57.3187M103.499 126.5C103.999 117.166 107.699 94.9995 118.499 80.9995C118.499 82.9995 127.499 58.1661 131.999 45.4994L141.499 48.5523M141.499 48.5523L144.999 99.4995C146.332 107 149.799 117.5 152.999 99.4995C151.999 99.4995 161.999 57.0271 157.499 51.2633M141.499 48.5523C146.179 49.4443 151.542 50.3664 157.499 51.2633M157.499 51.2633C163.579 52.1786 170.277 53.0678 177.499 53.8721M177.499 53.8721L169.999 111M177.499 53.8721C181.199 54.2842 185.037 54.674 188.999 55.0336M177.499 53.8721L188.999 55.0336M188.999 55.0336C193.198 55.4147 197.536 55.7619 201.999 56.0658M188.999 55.0336C192.199 71.8609 198.999 62.7331 201.999 56.0658M201.999 56.0658C206.7 56.386 211.539 56.6581 216.499 56.8712M224.499 80.9995C221.832 76.0807 216.499 64.3686 216.499 56.8712M216.499 56.8712C222.5 57.1291 228.677 57.3007 234.999 57.3664M234.999 57.3664L261.999 105C260.332 93.0457 255.599 66.7741 249.999 57.3187M234.999 57.3664C239.916 57.4176 244.921 57.4047 249.999 57.3187M115.499 57.3664C101.332 73.977 73.199 109.478 73.999 118.599M73.999 118.599C70.3072 115.783 69.4276 123.5 67.9991 113.5C65.1991 93.8995 61.4991 72.4995 47.499 72.4995C33.499 72.4995 43.3324 92.1662 49.9991 102L45.7491 98.7495M158.999 43.4994L159.017 43.4325M159.017 43.4325L159.289 42.4188C159.558 41.4119 160.593 40.8144 161.6 41.0842L161.911 41.1674C162.553 41.3394 162.999 41.9212 162.999 42.5858V42.5858C162.999 43.5513 162.083 44.2541 161.151 44.0042L159.017 43.4325ZM99.036 27.9069V27.9069C99.2967 27.1337 98.914 26.2907 98.1603 25.9779L97.4335 25.6762C96.5698 25.3178 95.588 25.8016 95.3459 26.7049V26.7049C95.1468 27.4479 95.5239 28.2244 96.231 28.5275L96.9543 28.8374C97.7868 29.1942 98.7466 28.7651 99.036 27.9069ZM141.625 39.0276V39.0276C141.851 38.1836 141.35 37.3161 140.506 37.0899L139.822 36.9066C138.983 36.6818 138.121 37.1797 137.896 38.0189V38.0189C137.675 38.8427 138.151 39.6924 138.969 39.9343L139.648 40.1352C140.501 40.3876 141.395 39.887 141.625 39.0276Z" stroke="#201717" stroke-width="2"/>
</svg>
