<svg width="339" height="789" viewBox="0 0 339 789" fill="none" xmlns="http://www.w3.org/2000/svg">
<path d="M17.0002 574C22.8281 570.438 35.7317 567.003 41.9656 580.737C40.1793 575.132 45.7241 567.959 81.0002 576.5C81.5002 577 125.5 588 131 588C132.5 606.5 133.6 645.6 126 654C125 654 121 630 85.0002 612.5C85.5002 612.5 47.6441 599.5 45.0002 588C36.8336 587 19.8002 582.8 17.0002 574Z" fill="#ECD0D9"/>
<path d="M92.0002 651.5C64.8002 649.5 45.0002 665.333 38.5002 673.5C36.9002 684.7 53.1669 694.166 61.5002 697.5C68.7002 697.9 96.5002 710.666 109.5 717C103.834 695.166 92.4002 651.5 92.0002 651.5Z" fill="#ECD0D9"/>
<path d="M24.5002 745L22.5002 751C24.3336 750.333 28.3002 748.9 29.5002 748.5C30.7002 748.1 27.6669 744.666 26.0002 743L38.5002 724.5C34.6669 720.5 26.8002 712.3 26.0002 711.5C11.5002 691.5 2.50024 701 3.50024 701.5C1.50024 712.7 16.6669 735.166 24.5002 745Z" fill="#ECD0D9"/>
<path d="M151.5 568V544.5C139.5 548.5 106.834 539.833 92.0002 535C63.0002 523.5 61.5002 534.5 61.5002 535C64.5002 555 109.5 561 109.5 560.5C130.7 558.5 146.334 564.666 151.5 568Z" fill="#ECD0D9"/>
<path d="M187 533.5L189.5 518C187.167 518.333 182.5 519.1 182.5 519.5C172.1 524.7 181.167 531 187 533.5Z" fill="#ECD0D9"/>
<path d="M207 502.5L204 485.5C157 474.5 157.5 485.5 157 485.5C148 500 177.5 497 177 496.5C190.2 491.7 202.5 498.5 207 502.5Z" fill="#ECD0D9"/>
<path d="M231.5 475.5L230 457C228.5 453.5 210 452 209.5 452.5C187.5 457.5 212.5 465 212.5 465.5C221.3 465.5 228.834 472.167 231.5 475.5Z" fill="#ECD0D9"/>
<path d="M248 533.5C253.834 522.5 268.1 503.1 278.5 513.5C278.5 514 250.5 547.5 248 533.5L251 555C244 554.883 232.1 552.019 240.5 541.5C240.9 541.1 245.667 536 248 533.5Z" fill="#ECD0D9"/>
<path d="M322.5 403C315.3 421.4 299.5 427.667 292.5 428.5C293 431 294 436.1 294 436.5C315.6 430.5 329.334 418 333.5 412.5C330.834 410.833 325.5 407.4 325.5 407C331.5 406.6 337 400.167 339 397C331 385 323 403 322.5 403Z" fill="#ECD0D9"/>
<path d="M258 302C258 295.5 247.5 251 246.5 250C241.5 225 225.5 218 226 218C224.699 217.35 223.537 216.5 222.5 215.481M258 302C268 302 335.5 392 336.5 394M258 302C257.673 301.673 252.846 304.988 249.551 309M246.5 315.5C246.5 313.428 247.812 311.117 249.551 309M246.5 315.5C260.012 346.79 285.054 406.457 292.107 429M246.5 315.5C246.5 315.731 245.515 316.6 244 317.894M228 337C227.657 336.313 218.824 342.937 213 349.745M228 337C231.702 340.998 230.718 350.712 227.758 362M228 337C228 334.913 229.432 332.4 231.5 329.839M77.5001 506.5C92.3334 483.667 122 437.8 122 437C122.979 435.649 123.983 434.397 125 433.239M77.5001 506.5C70.0001 445.833 59.5001 311.3 77.5001 258.5C79.5001 248.167 87.0001 225.6 101 218C101.149 218 103.123 216.176 105.447 212.5M77.5001 506.5L54.5001 535.5C47.5001 543.667 35.5 558.917 23.0001 561C17.0001 562 14.5001 567.5 17.0001 574.5M101 81.8453C91.7304 84.7094 87.7718 88.3763 87.0001 91C87.0001 122 109 155.5 108.5 155.5C109.301 157.904 109.988 160.237 110.57 162.5M101 81.8453C101 62.7302 99.9001 21 95.5001 7C94.8334 2.83334 95.0001 -3 101 7L105 80.7459M101 81.8453C102.237 81.4631 103.569 81.0952 105 80.7459M105 80.7459C116.008 78.06 132.909 76.4794 158 78C157.632 78 197.823 75.8369 222.5 81.4526M222.5 81.4526C222.5 58.3017 223.6 10.1 228 2.49997C228 1.99997 234 -2.49996 231 7L226 82.3328M222.5 81.4526C223.706 81.727 224.875 82.0201 226 82.3328M226 82.3328C233.161 84.323 238.556 87.1124 240.5 91C240 91 238 129 218.5 155.5C218.281 155.719 217.608 158.378 216.888 162.5M188 146.5C197.092 150.333 215.599 158.9 216.888 162.5M216.888 162.5C216.628 163.991 216.361 165.673 216.108 167.5M208.5 160.5C211.124 162.167 216.319 165.9 216.108 167.5M216.108 167.5C215.911 168.92 215.723 170.427 215.551 172M181.5 155.5C192.964 159.833 215.824 169.2 215.551 172M215.551 172C215.242 174.829 214.989 177.872 214.844 181M179 175C190.989 174.667 214.943 175.4 214.844 181M214.844 181C214.759 182.813 214.711 184.654 214.71 186.5M181.5 186.5C191.844 187.5 212.967 188.9 214.71 186.5M214.71 186.5C214.708 189.013 214.792 191.533 214.988 194M179 194C190.808 192.356 214.538 190.055 214.988 194M214.988 194C215.121 195.675 215.306 197.325 215.551 198.931M196 204.5C202.071 203.788 214.482 201.676 215.551 198.931M215.551 198.931C215.881 201.098 216.32 203.184 216.888 205.142M188 222.5C197.629 218.784 216.888 210.11 216.888 205.142M216.888 205.142C217.34 206.701 217.874 208.179 218.5 209.551M196 251.5C202.167 236.868 215.3 207.993 218.5 209.551M218.5 209.551C218.978 210.599 219.509 211.586 220.099 212.5M215.551 239.5L220.099 212.5M220.099 212.5C220.812 213.606 221.609 214.606 222.5 215.481M228 231.5L222.5 215.481M143 146.5C132.38 150.167 111.026 158.5 110.57 162.5M110.57 162.5C111.191 164.913 111.694 167.246 112.09 169.5M145.5 158C134.87 159.5 113.306 163.9 112.09 169.5M112.09 169.5C112.423 171.389 112.681 173.223 112.872 175M152 175C150.5 175 117.243 182.5 112.872 175M112.872 175C113.095 177.076 113.227 179.076 113.279 181M138.5 186.5C130.355 187.667 113.908 188.2 113.279 181M113.279 181C113.409 185.806 113.043 190.138 112.365 194M152 192.5C139.387 191.356 113.801 190.055 112.365 194M112.365 194C112.183 195.034 111.98 196.034 111.757 197M127.5 202.5C122.141 201.181 111.49 198.235 111.757 197M111.757 197C111.404 198.532 111.004 199.979 110.57 201.342M143 218C131.955 213.251 110.006 203.271 110.57 201.342M110.57 201.342C109.936 203.336 109.232 205.149 108.5 206.782M141 257C133.667 241.688 116.9 210.208 108.5 206.782M108.5 206.782C107.495 209.027 106.439 210.932 105.447 212.5M110.57 243.5L105.447 212.5M17.0001 574.5C17.0001 576 28.0001 588 45.0001 588M17.0001 574.5C21.8535 570.667 33.6543 566.6 42.0301 581M45.0001 588C45.0001 587.6 50 596 56.0001 599M45.0001 588C43.1501 585.2 42.2151 582.89 42.0301 581M56.0001 599C49.3335 620.833 31.8001 668.2 15.0001 683C14.5001 684 -1.49988 696 2.00012 703M56.0001 599C58.2941 599.864 60.8169 600.873 63.5 602.011M2.00012 703C2.00012 704.5 14 739.5 25.5 744.5M2.00012 703C4.32336 698.333 12.2759 693.7 25.5 712.5L38.5 725M25.5 744.5C25.0498 744.5 22.4712 748.655 20.9128 754M25.5 744.5L38.5 725M25.5 744.5L29.5 748.521M294 437C293.5 437 333 422.5 333 412.5C332.6 411.7 328.167 408.5 326 407C332.5 404.333 341.5 401.5 336.5 394M294 437C294 435.651 293.319 432.874 292.107 429M294 437C294 438.194 295.455 440.753 297.713 444M336.5 394C328 390.5 322.216 400.5 321 405C317 419.8 300.071 427.167 292.107 429M299 369.5C286.867 350 259.991 310.6 249.551 309M297.713 444C303.021 451.634 312.77 463.069 318.5 469.5C325 481.5 308.5 492.5 308.5 485.5C306 474 302.5 478.152 299 481.5C287.5 492.5 296 489.615 299 491C318.5 500 301 514.5 296 519C261.5 543 270.5 555.5 269.5 561C271.5 579 247.5 590.5 247.5 591C233.5 597 228.667 612.833 228 620C228.833 633 230.7 659.1 231.5 659.5C229.9 683.1 212.5 688.333 204 688C203.354 681.865 201.989 669.881 201.541 669.5M297.713 444C292.475 449.667 277.9 459.9 261.5 455.5M261.5 455.5C261.9 455.5 261.667 459.167 261.5 461C270.167 459.333 284.9 458.1 274.5 466.5C274.139 466.5 272.41 467.934 269.5 469.248M261.5 455.5C262.833 413.429 261.2 327.009 244 317.894M201.5 455.5C199.732 458.167 200.977 464.1 220.099 466.5C230.399 471 241.6 481.1 204 485.5M201.5 455.5C209.961 449.683 221.077 453.094 229.824 457.6M201.5 455.5L227.758 362M204 485.5C186.5 480.5 152.4 475.1 156 493.5M204 485.5L217 556.5C220.5 572 220 594.5 228 596.5C236 596.5 228.69 584.483 235.035 575.456M156 493.5C156.5 494.5 163.449 499 189.5 495C188 493.5 220 499.5 198.5 514.5C197.225 514.718 195.875 514.982 194.5 515.288M156 493.5C144.4 483.1 160.833 424.067 170.5 395.85M187 532.5C187 532.9 187 537.333 187 539.5M187 532.5C170.51 525.344 178.967 519.741 189.5 516.585M187 532.5C187.833 527.195 189.5 516.585 189.5 516.585M187 539.5C179.311 541.075 165.589 543.339 151 544.629M187 539.5V675.992M151 581C150.626 581.187 148.222 583.054 143.5 584.637M151 581L164 698M151 581C155.486 575.617 154.615 571.557 151 568.549M42.0301 581C41.7794 578.438 42.9063 576.648 45.0001 575.456M65.5 542.356C64.114 540.622 63.62 539.5 63.5 539.5C52.5 514 117 545.5 117 545C119.549 545.268 122.229 545.443 125 545.539M65.5 542.356C69.8912 547.849 83.2354 559.48 122 561C131.184 561.417 144.944 563.508 151 568.549M65.5 542.356C59.6567 553.708 48 574.248 45.0001 575.456M45.0001 575.456C56.8102 568.727 95 579.535 99 581C121.218 589.136 135.602 587.284 143.5 584.637M125 654C125 633.114 87.7184 612.282 63.5 602.011M125 654C134.2 641.6 132.5 601.689 130.5 586.856M125 654C124.507 653.754 109.207 650.352 91 651.03M38.5 674C38.5 673.5 35.0002 657 54.5001 629C56.0001 628 63.5 605.021 63.5 602.011M38.5 674C50.4218 656.751 72.2522 651.728 91 651.03M38.5 674C37.8984 684 54.916 694.167 63.5 698M91 651.03L111 723M111 723C113.5 731.5 125 744.5 86.5 745.5C73.5 745.838 47.9458 741.072 29.5 748.521M111 723C109 713 78.5 702.167 63.5 698M20.9128 754C19.0097 760.527 18.6277 768.827 25.5 773.5C25.5 774.5 72 791.5 119.5 787C119.1 787 131 784.333 137 783C143 779.833 150.1 774 130.5 776C129.567 776 102.072 777.306 111 774.23M20.9128 754C22.5568 751.206 25.5966 750.097 29.5 748.521M38.5 725L63.5 698M122 679C118.333 710.743 111 774.23 111 774.23M111 774.23C111.639 774.01 112.465 773.767 113.5 773.5C114 773.5 159 767 162 744.5C161.5 744.5 167.5 720.5 180.5 710.5C180 709.5 193 705.5 184 692C184 691.227 176.529 683.581 187 675.992M130.5 739.5C134.833 687.879 143.5 584.637 143.5 584.637M151 544.629C151 552.602 151 568.549 151 568.549M151 544.629C142.275 545.4 133.239 545.822 125 545.539M187 675.992C190.073 673.765 194.693 671.542 201.5 669.5C201.513 669.487 201.526 669.488 201.541 669.5M189.5 516.585C191.145 516.092 192.841 515.658 194.5 515.288M194.5 515.288C196.847 566.692 201.541 669.5 201.541 669.5M251 554C252.5 560.5 247 563.308 245.5 564.5C241.01 568.069 237.599 571.807 235.035 575.456M251 554C250.6 554.4 248.5 539.833 247.5 532.5M251 554C236.2 554 236.167 547.752 238 544.629M247.5 532.5C255.333 521.5 272.6 502.5 279 514.5M247.5 532.5L238 544.629M247.5 532.5C245.859 546.269 267.816 526.237 279 514.5M279 514.5C278.5 514.5 266.5 482.055 269.5 469.248M269.5 469.248C264.35 471.575 255.502 473.529 244 466.5C243.529 466.5 237.618 461.615 229.824 457.6M229.824 457.6L238 544.629M208 487.5C217.012 516.819 235.035 575.456 235.035 575.456M99 519C100.6 515.4 117 460.326 125 433.239M125 433.239C134.895 421.971 145.953 419.547 145.5 420C147.283 420.149 149.858 418.278 152.628 415.5M130.5 481.5L125 545.539M145.5 529C147.5 527 139.757 432 152.628 415.5M152.628 415.5C157.316 410.8 162.567 403.504 165.5 399C166.84 398.148 168.682 396.984 170.5 395.85M170.5 395.85C173.659 393.88 176.746 392 177 392C177.367 385.03 184.193 379.137 188 376.097M174 441.5C176.5 420.865 182.8 378.895 188 376.097M188 376.097C189.382 374.994 190.367 374.266 190.5 374C191.793 373.914 193.145 373.397 194.5 372.6M190.5 441.5C194.5 437 198.5 379.201 194.5 372.6M194.5 372.6C198.548 370.221 202.624 365.345 205.226 362M208 376.097L205.226 362M205.226 362C206.807 359.968 207.844 358.5 208 358.5C208.313 355.994 210.344 352.85 213 349.745M208 394C212.667 382.163 220.2 356.741 213 349.745M208 415.5C208 413.499 221.835 384.595 227.758 362M236.5 397.5C238 394 237 331.678 231.5 329.839M231.5 329.839C233.84 326.94 236.994 323.978 239.806 321.5M247.5 352C247.704 342 246.451 321.9 239.806 321.5M239.806 321.5C241.378 320.115 242.844 318.881 244 317.894" stroke="#201717" stroke-width="2"/>
</svg>
