<svg width="294" height="606" viewBox="0 0 294 606" fill="none" xmlns="http://www.w3.org/2000/svg">
<path d="M134 354.5C124 336.5 68.5 300 42 284C46.8333 310.833 56.5 364.6 56.5 365C59.5 375.5 29 441.5 28.5 441.5C60.5 447.5 133.5 355 134 354.5Z" fill="#ECD0D9"/>
<path d="M253.5 287C233.5 277.8 182.833 326.833 160 352.5C192.4 399.7 243.5 436 264 440.5L237.5 367.5C242.667 340.833 253.1 287.4 253.5 287Z" fill="#ECD0D9"/>
<path d="M91.5 2L70 12.5L20 180.5C21.6465 188.686 23.5202 198.011 25.5248 208M91.5 2L136.5 127.5M91.5 2L82.4176 30.5M77 47.5L97 132C98.0708 134.211 99.4966 136.961 101.195 140M77 47.5L70 79M77 47.5L82.4176 30.5M128 173.5C128.4 174.3 141.167 196.833 147.5 208C150.662 199.525 157.895 183.639 166.269 173.5M128 173.5C124.223 171.185 120.35 167.419 116.644 163M128 173.5L131.992 166M216.5 47.5C210.833 71.6667 199.5 119.9 199.5 119.5C198.289 127.169 195.956 134.041 193.183 140M216.5 47.5L224 75.25M216.5 47.5L213.724 37M205 4L226 12.5C240.5 67.6667 270.5 178.5 274.5 180.5C274.371 180.5 271.738 193.418 267.822 213M205 4L156.283 127.5M205 4L213.724 37M237.5 366.5C241.787 344.652 247.598 315.106 253.343 286M237.5 366.5C242.664 385.03 254.61 423.434 264.256 441M237.5 366.5C234.167 375.833 227.4 395.3 227 398.5M156 579.5L137.5 586M156 579.5L173.5 573M156 579.5C156.735 582.709 157.717 587.221 158.552 591.5M137.5 586L125 591.5M137.5 586L136.583 591.5M159.555 597C160.205 600.919 160.502 603.833 160 604C172.5 594 290.5 578 292 577.5C292.212 576.158 292.348 574.652 292.416 573M159.555 597C197.648 587.5 277.549 569.4 292.416 573M159.555 597C159.275 595.307 158.929 593.427 158.552 591.5M292.416 573C292.514 570.618 292.469 567.933 292.3 565M158.552 591.5C195.068 582.167 272.94 563.8 292.3 565M292.3 565C290.745 537.905 278.686 489.635 271.793 463.5M2.67008 573C2.09363 577.146 1.70666 579.5 1.5 579.5C34.3 576.3 103.833 594.5 134.5 604L135.667 597M2.67008 573C37.0578 576.833 111.8 587 135.667 597M2.67008 573C4.3882 560.642 7.7895 532.358 13.1163 503M135.667 597L136.583 591.5M4.5 565C41.7222 570.167 120.25 582.7 136.583 591.5M11 558C10.9452 543.667 11.2917 512.6 13.1163 503M13.1163 503C15.5504 489.585 18.3865 475.946 21.6478 463.5M41.129 286C48.8959 324.983 55.2087 357 55 357C55.5399 358.454 55.8689 360.135 56.0161 362M41.129 286C66.7527 299.333 121.3 331.8 134.5 355M41.129 286C39.9274 279.969 38.691 273.772 37.4386 267.5M134.5 355C134.5 354.5 63.7024 444 28.6012 441M134.5 355L146.5 341M28.6012 441C31.4815 433.265 34.6112 426.73 38 422C45.02 407.811 57.2871 378.094 56.0161 362M28.6012 441C26.0971 447.725 23.7814 455.357 21.6478 463.5M37.4386 267.5C58.6257 273.333 110.1 296.2 146.5 341M37.4386 267.5C33.4263 247.409 29.2495 226.559 25.5248 208M146.5 341C147 341 202 274.422 257.5 264.961M257.5 264.961C256.133 271.87 254.74 278.922 253.343 286M257.5 264.961C261.314 245.678 264.92 227.51 267.822 213M21.6478 463.5C49.896 452.582 111.442 419.504 147.5 369.842M253.343 286C231.67 281.084 184.44 325.829 160 352.559M160 352.559C158.587 354.104 157.251 356.588 156 358C153.369 362.395 150.524 365.677 147.5 369.842M160 352.559C160 355 222.013 431 264.256 441M264.256 441C264.35 441.17 264.443 441.337 264.535 441.503C266.029 444.172 267.394 447.089 268.192 450.042C269.041 453.186 270.295 457.82 271.793 463.5M63 386.5L56.0161 362M147.5 369.842C174.362 399.395 236.827 459.5 271.793 463.5M81 233C71.0165 235.167 45.9447 233.2 25.5248 208M214.5 233C222.548 236 244.48 236.2 267.822 213M70 79L72 113.5C70.3974 113.019 68.3098 111.763 66.6984 109.5M70 79C68.6667 83.3333 65.9 92.2 65.5 93C64.2906 96.9792 64.0125 100.285 64.3216 103M81 127.5C75.9656 127 66.0571 122.7 66.6984 109.5M66.6984 109.5C65.5437 107.878 64.6336 105.74 64.3216 103M59.5 127.5L64.3216 103M231.5 103L224 75.25M231.5 103C231.185 104.26 230.617 105.853 229.775 107.5M231.5 103L235 132M216.5 116.5C219.461 116.629 221.949 115.76 224 114.366M224 75.25V114.366M224 114.366C226.602 112.599 228.502 109.989 229.775 107.5M214.5 127.5C219.737 125 230.124 117.5 229.775 107.5M136.5 127.5L124.195 149.5M136.5 127.5L144.5 142.5L141.839 147.5M116.644 163L124.195 149.5M116.644 163C114.543 160.495 112.496 157.78 110.55 155M101.195 140L116.644 134.5M101.195 140C103.78 144.626 106.995 149.921 110.55 155M116.644 134.5L124.195 149.5M116.644 134.5C116.644 132.5 93.8262 64.3333 82.4176 30.5M124.195 149.5L110.55 155M141.839 147.5L131.992 166M141.839 147.5L145.321 155M156 178C152.268 180.425 142.744 183.819 134.5 178L131.992 166M156 178L145.321 155M156 178L163 166M151.5 144.5L145.321 155M151.5 144.5L163 166M151.5 144.5L147.5 140L154.5 125L156.283 127.5M163 166L166.269 173.5M166.269 173.5C168.929 170.28 171.704 167.639 174.5 166C174.66 165.84 176.814 163.941 179.818 160.5M179.818 160.5L170.547 147.5M179.818 160.5C181.511 158.561 183.473 156.133 185.5 153.25M156.283 127.5L170.547 147.5M213.724 37L176.603 132M170.547 147.5L176.603 132M170.547 147.5L185.5 153.25M176.603 132L193.183 140M193.183 140C190.802 145.114 188.098 149.555 185.5 153.25" stroke="#201717" stroke-width="2"/>
</svg>
