<svg width="372" height="502" viewBox="0 0 372 502" fill="none" xmlns="http://www.w3.org/2000/svg">
<path d="M115.5 231.5C110.7 230.3 108.5 233.333 108 235L105 252.5C102.833 268 98.3999 299 97.9999 299C94.7999 330.2 103.667 336.334 108.5 335.5C121.7 335.5 127 312.834 128 301.5L129.5 238.5C129.5 232.1 126.833 231.834 125.5 232.5L115.5 231.5Z" fill="#ECD0D9"/>
<path d="M230 234.5L231 249C232 264 233.9 294.2 233.5 295C236 336 253.5 332.5 254.5 333C270.1 333.8 267.333 303.333 264 288C260.833 272 254.3 240 253.5 240C251.5 231.2 248 230.667 246.5 231.5L232.5 232.5L230 234.5Z" fill="#ECD0D9"/>
<path d="M138.5 169C130.9 162.2 110.333 165.5 101 168L94.5 189L107 215L132.5 216L147 187.5L138.5 169Z" fill="#ECD0D9"/>
<path d="M255 164C247.8 158.4 230.333 162.333 222.5 165L212 196.5L224.5 215L255 212L264 193.5C261 184 255 164.8 255 164Z" fill="#ECD0D9"/>
<path d="M103 163C102.5 158.333 102.6 148.2 107 145M103 163C108.333 164.166 121.4 162.9 131 148.5M103 163C112.5 161.5 132.2 159.4 135 163M103 163L101.096 168.5M107 145C106 144.5 105 128.5 109 125M107 145L128 128M109 125C109 124.5 102 117.5 109 103M109 125L127 108.5M109 103C106.666 100.5 103.4 93.2995 109 84.4995M109 103L127 88.9995M109 84.4995C109 83.9995 103.5 71.9995 110.5 67.4995M109 84.4995L127 72.4995M110.5 67.4995C109 67.4995 109 51.4995 117 42.4995M110.5 67.4995L129.5 55.4995M117 42.4995C117 42.9995 118.5 28.9995 131 25.9995M117 42.4995L137 40.9995M131 25.9995C131 20.3329 135 9.09953 151 9.49953M131 25.9995C135.333 25.6662 144.9 25.4995 148.5 27.4995M151 9.49953C151.5 8.99953 161.5 -6.50062 175 7.49938M151 9.49953C155.666 12.0914 165.6 17.5199 168 18.4995M175 7.49938C174 6.99938 181.5 -6.00062 194 7.49938M175 7.49938L182.5 16.9995M194 7.49938C198.333 4.66609 208.2 2.59951 213 16.9995M194 7.49938C195.666 10.1661 199 16.6995 199 21.4995M213 16.9995C212.5 16.4995 227 20.4995 227.5 32.4995M213 16.9995C212.833 20.8328 212.1 29.2995 210.5 32.4995M227.5 32.4995C227.5 32.9995 235 36.9995 235.5 49.9995M227.5 32.4995C226.833 36.8328 224.5 46.3995 220.5 49.9995M235.5 49.9995C236 50.9995 243 57.9995 240.5 69.9995M235.5 49.9995L225.5 65.4995M240.5 69.9995C240 69.9995 246.5 76.9995 243.5 87.4995M240.5 69.9995C237.333 74.3329 230.3 83.2995 227.5 84.4995M243.5 87.4995C243.5 87.9995 250.5 93.4995 247 107.5M243.5 87.4995C242.5 88.9995 229.5 104.5 227.5 104.5M247 107.5C246.5 106.5 251 121 247 133.5M247 107.5C242.333 112.833 232.4 123.6 230 124M247 133.5C247 133.9 251 149.666 253 157.5M247 133.5C241.833 139.166 230.3 150.5 225.5 150.5M253 157.5C247 154.3 231.166 157.166 224 159M253 157.5L254.604 163M254.5 211.5L224 215L221.73 211.5M254.5 211.5C257.021 216.166 260.057 227.4 252.032 235M254.5 211.5L258 204.5M224 159L225.5 150.5M224 159L222.24 164.5M225.5 150.5C224.333 143.333 223.6 128 230 124M230 124C230 123 219.5 113 227.5 104.5M227.5 104.5C227.5 103 219.5 92.9995 227.5 84.4995M227.5 84.4995C225.666 80.6662 222.7 71.4995 225.5 65.4995M225.5 65.4995C225.5 64.9995 218.5 61.4995 220.5 49.9995M220.5 49.9995C216.45 49.6662 208.781 45.6995 210.5 32.4995M210.5 32.4995C211 32.4995 199.5 31.4995 199 21.4995M199 21.4995C199.5 20.9995 188 27.4995 182.5 16.9995M182.5 16.9995C183 16.9995 179.5 23.9995 168 18.4995M168 18.4995C167.5 17.9995 159.5 28.9995 148.5 27.4995M148.5 27.4995C148 27.4995 148 40.9995 137 40.9995M137 40.9995C136 40.9995 135 53.9995 129.5 55.4995M129.5 55.4995C129.5 55.9995 137 62.9995 127 72.4995M127 72.4995C126.5 72.9995 134 76.4995 127 88.9995M127 88.9995C128.666 93.4995 131 103.7 127 108.5M127 108.5C127 107.5 132.5 118.5 128 128M128 128C131.166 129.166 136.2 134.9 131 148.5M131 148.5C131 148.9 133.666 158.333 135 163M135 163L137.694 168.5M102.5 206L93.9998 189L101.096 168.5M102.5 206C96.4999 212.666 89 229.1 107 241.5M102.5 206L105.936 212.871M107 241.5C106.676 243.477 106.318 245.667 105.936 248M107 241.5C107 241.238 107.57 238.111 108.151 235M129.5 244.5L129.331 249.5M129.5 244.5V236M129.5 244.5C151.1 229.7 143.166 214.333 136.5 208.5M129.331 249.5L128 289C128.333 305.333 124.6 337.4 107 335C102 334.5 95.5 325.5 97.9998 296C97 302 102.775 267.292 105.936 248M129.331 249.5L138 250.5L138.253 261M105.936 248C98.2843 246 94.7904 255.166 93.9998 260C93.7163 260.85 93.4277 261.859 93.1362 263M93.1362 263C87.9241 262 75.3998 261.1 66.9998 265.5C66.9998 266.3 64.9998 278.833 63.9998 285M93.1362 263C91.5477 269.215 89.8734 279.333 88.4593 289M63.9998 285H69.9998C71.0512 283.51 72.7934 281.818 74.5001 281.768M63.9998 285C61.3331 284 55.9998 284 55.9998 292M63.9998 285L55.9998 292M58.9998 298.5C62.1665 299.333 68.1998 301 66.9998 301C78.9037 304.607 80.0454 295.473 78.9325 289M58.9998 298.5C57.6665 305.5 55.1998 320 55.9998 322M58.9998 298.5C54.9998 297.399 55.3331 293.708 55.9998 292M58.9998 298.5C63.6666 294.679 73.3001 285.983 74.5001 281.768M55.9998 322L53.9608 325M55.9998 322L63.9998 322.769M87.1736 325C86.2688 322.077 85.5302 318.759 85 315C84.5 311.5 86.4728 302.58 88.4593 289M87.1736 325C87.5878 326.337 88.0367 327.592 88.5163 328.768M87.1736 325L63.9998 322.769M105.936 212.871L107 215L132.5 216.5L134.314 212.871M105.936 212.871C102.558 217.581 98.2722 228.6 108.151 235M108.151 235V235C108.63 232.434 110.964 230.643 113.567 230.834L125.51 231.708C127.759 231.872 129.5 233.745 129.5 236V236M134.314 212.871C137.709 218.747 141.5 231.6 129.5 236M134.314 212.871L136.5 208.5M136.5 208.5L147 187.5L137.694 168.5M230.882 249.5L233.5 298.5C236.3 328.5 248.666 334 254.5 333C270.9 333 267.333 301 263.5 285L254.555 246M230.882 249.5L224 250.5C223.827 252.859 223.677 255.463 223.561 258.251M230.882 249.5L230.557 243.42M254.555 246C256.87 246 261.6 246 262 246C264.047 250.248 265.873 254.331 267.5 258.251M254.555 246L253.963 243.42M267.5 258.251L287.5 256.5L297 279M267.5 258.251C279.473 287.092 280.681 307.039 279.842 318M297 279C296.167 279.166 294.4 279.9 294 281.5M297 279C297.624 278.769 298.305 278.569 299 278.432M294 281.5C293.5 281 289.5 279 288 282M294 281.5C291.689 286.666 286.243 297 282.946 297M288 282C287.5 281.5 283.849 277 281 285C280.839 285 280.521 286.77 280.518 289M288 282C286.562 284.333 283.053 289 280.518 289M295.5 293.5C294 296.5 288 297 289 297C286.159 298.352 284.234 298.095 282.946 297M295.5 293.5C298 293.666 303 293.3 303 290.5M295.5 293.5C297.9 292.7 298.833 283.121 299 278.432M303 290.5C305.667 297.333 310.5 312.4 308.5 318M303 290.5C308.168 279.129 303.319 277.578 299 278.432M308.5 318H279.842M308.5 318C311.673 321.109 315.455 324.812 319.5 328.768M279.842 318C279.319 324.836 279 325.5 278 328C265 349.5 240.5 338 240.5 337.5C235.802 334.937 232.306 329.325 229.74 322M279.842 318C306.116 325.2 329.562 400.333 338 437M279.842 318C285.316 322.4 289.561 348.5 291 361M282.946 297C281.009 295.353 280.513 291.811 280.518 289M74.5001 281.768C76.0401 281.723 77.5512 283.015 78.4998 287C78.6635 287.621 78.8114 288.295 78.9325 289M63.9998 301C68.4549 299 77.6785 293.8 78.9325 289M78.9325 318L88.4593 289M138.253 261L139 292C139.396 299.932 138.872 311.707 136.1 322M138.253 261H147M147 261C146.5 256.666 146.9 248 152.5 248C154 247.5 157.5 247.3 159.5 250.5M147 261C147 265.846 147 272.479 147 279M147 261L159.5 250.5M159.5 250.5C162.5 249.333 168.6 248.3 169 253.5M159.5 250.5C160.833 253.333 162.7 259.8 159.5 263M169 253.5H191.5M169 253.5L167 304C167 318.228 167 332.5 176.5 354C177.742 356.81 180.333 366.666 182.5 373M191.5 253.5C192.833 252 197 249.3 203 250.5M191.5 253.5L199 301C201.5 318.228 206.182 331.5 194.5 357C193.29 359.64 191.662 363.345 190.178 367M203 250.5C203.5 250.5 209 245.5 210.5 250.5M203 250.5C199.4 254.1 201.5 257.167 203 258.251M210.5 250.5C210.97 250.5 216.308 249.615 214.858 258.251M210.5 250.5L203 258.251M214.5 260C214.648 259.377 214.767 258.795 214.858 258.251M214.5 260C214.5 260.366 214.567 267.571 215.021 277M214.5 260L203 271.5M222.5 322H229.74M222.5 322C224.317 324.724 226.595 328.69 228.472 333M222.5 322C221.769 321.122 221.104 319.836 220.5 318.228M136.1 322C133.048 333.334 127.272 342.871 117 343.5C109.718 346.385 95.6859 346.348 88.5163 328.768M136.1 322H143.375M143.375 322C144.439 317.334 145.424 312.729 146.097 309M143.375 322C143.147 322.999 142.915 324.002 142.682 325M229.74 322C223.599 304.469 222.781 277.123 223.561 258.251M214.858 258.251H223.561M218 205.75L212 196.5L222.24 164.5M218 205.75C210.704 216.28 203.002 238.556 230.557 243.42M218 205.75L221.73 211.5M230.557 243.42L230.16 236M221.73 211.5C217.593 217.833 213.488 231.6 230.16 236M230.16 236V236C230.07 234.312 231.305 232.844 232.983 232.644L246.415 231.045C249.023 230.735 251.445 232.44 252.032 235V235M252.032 235L253.963 243.42M258 204.5L263.5 193.5L254.604 163M258 204.5C264.063 210.113 271.745 225.756 253.963 243.42M101.096 168.5C107.86 165.833 124.649 162.1 137.694 168.5M222.24 164.5C229.229 162.166 245.487 158.6 254.604 163M120.5 182.152C121.625 181.968 122.692 181.116 123 180.5C129 172 123.145 170.669 120.5 171C112.5 172 115.667 178.962 118.5 181.5C119.076 182.122 119.799 182.267 120.5 182.152ZM120.5 182.152L118.5 200M118.5 200C121.376 200.166 128.565 198.5 134.314 190.5M118.5 200C111.7 200 108.768 194.333 108.151 191.5M134.314 190.5H127M134.314 190.5L132.5 197.022M108.151 191.5L103 193.5L104.5 186L111 189L108.151 191.5ZM239.5 185.152C240.625 184.968 241.692 184.116 242 183.5C248.001 175 242.146 173.669 239.5 174C231.5 175 234.667 181.963 237.5 184.5C238.076 185.122 238.799 185.267 239.5 185.152ZM239.5 185.152L237.5 203M237.5 203C240.376 203.166 247.565 201.5 253.314 193.5M237.5 203C230.701 203 227.768 197.333 227.151 194.5M253.314 193.5H246M253.314 193.5L251.5 200.022M227.151 194.5L222 196.5L223.5 189L230 192L227.151 194.5ZM159.5 263C161.333 265.954 164.2 273.177 161 278.432M159.5 263L147 279M161 278.432C162.167 282.121 163.3 290.4 158.5 294M161 278.432L147 290.5M158.5 294C157.5 293.5 164.5 298.5 158.5 312.5M158.5 294L146.097 309M158.5 312.5C158.5 313 164.5 318.5 156.5 328M158.5 312.5L142.682 325M156.5 328C159 331 162.3 338.4 155.5 344M156.5 328C151.013 331.333 139.862 339.9 139.147 347.5M155.5 344C156.5 343.5 162.5 351.5 161 358M155.5 344C152.33 348.333 146.941 359 150.745 367M161 358C161 358.5 168 357.5 171.5 367M161 358C159.167 362.602 157.3 372.378 164.5 374.658M171.5 367C171.5 366.5 177 363.5 182.5 373M171.5 367L175 377.869M182.5 373C182.9 373.4 184 377.465 184.5 379.447M184.5 379.447C183.36 379.332 182.194 379.183 181 379C184.5 379.447 178.713 378.725 175 377.869M184.5 379.447C185.176 379.515 185.843 379.572 186.5 379.618M186.5 379.618C185.759 378.687 187.779 372.91 190.178 367M186.5 379.618C194.947 380.203 201.866 378.932 207.5 376.688M190.178 367C191.286 366.333 194.6 365.4 199 367M199 367C201 364.166 206.1 359 210.5 361M199 367C201.833 369.253 207.5 374.345 207.5 376.688M210.5 361C210.5 360.5 207.499 354 218 354M210.5 361L225.5 362.27M218 354C216.616 352 215.179 346.7 220.5 341.5M218 354C223.042 354.333 232.914 353.5 232.058 347.5M220.5 341.5C221.73 340 210 339 217 327M220.5 341.5L228.472 333M217 327C212.783 326.833 205.579 323.7 210.5 312.5M217 327L220.5 318.228M210.5 312.5C207.167 311.333 201.9 306.6 207.5 297M210.5 312.5L217.345 304M207.5 297C207 296 199.5 293 206.5 286M207.5 297L215.615 287M206.5 286C207.5 285 197 277.5 203 271.5M206.5 286L215.021 277M203 271.5C200.5 269.667 197 264.452 203 258.251M147 279C147 283.025 147 287.008 147 290.5M147 290.5C147 296.912 147 301.67 147 302C147 303.423 146.655 305.911 146.097 309M142.682 325C141.361 330.656 139.995 336.144 139 340C138.764 342.675 138.828 345.171 139.147 347.5M139.147 347.5C140.054 354.134 143.027 359.405 147 363.583M150.745 367C155.014 370.398 159.909 372.873 164.5 374.658M150.745 367C149.428 365.951 148.17 364.815 147 363.583M164.5 374.658C168.413 376.18 172.104 377.202 175 377.869M207.5 376.688C216.381 373.151 222.066 367.193 225.5 362.27M225.5 362.27C226.122 361.377 226.671 360.518 227.151 359.714M225.5 362.27C236.3 367.886 241 425.43 242 453.5M232.058 347.5C231.994 350.007 231.381 352.25 230 354C230 353.858 229.195 356.291 227.151 359.714M232.058 347.5C232.171 343.073 230.573 337.821 228.472 333M220.5 318.228C219.181 314.717 218.15 309.671 217.345 304M217.345 304C216.584 298.637 216.025 292.715 215.615 287M215.615 287C215.366 283.533 215.172 280.143 215.021 277M367.191 439.5C362.706 460.353 355.5 476.692 355.5 477C351.5 495.8 329.833 496.833 319.5 495C232.667 496.833 58.9998 500.6 58.9998 501C15.4997 501.5 12.5001 454 12.5001 453.5C11.1473 451.355 9.97118 449.184 8.95563 447M367.191 439.5C369.989 426.491 371.729 411.726 370 398C368.5 381.5 369 379.5 359 367C358.676 367 336.701 345.588 319.5 328.768M367.191 439.5C367.61 437.5 334 348.536 319.5 328.768M253 411.5C248.229 396.098 236.381 364.18 227.151 359.714M142.682 461C142.682 453.5 135.499 373.167 147 363.583M147 363.583C135.499 360.167 127 398 123 401.5M46 432C54.3656 398.178 74.5808 330.182 88.5163 328.768M88.5163 328.768C80.5839 330.182 78.5335 354.845 78.4998 367M7.24932 398C8.86419 393.073 10.7698 388.954 12.5001 386L53.9608 325M7.24932 398L2 359.714L53.9608 325M7.24932 398C4.01114 407.879 1.94194 421.005 4.79892 434.5M46 491C46 489.5 5.47057 457.5 4.79892 434.5M4.79892 434.5C5.67965 438.659 7.02853 442.854 8.95563 447M8.95563 447C12.5001 443.5 7.49949 382.539 63.9998 322.769M243 273C243.5 267 252.5 268.5 253.314 276C253.477 277.5 255 280.5 249.5 280.5C248 280.5 241.5 280.5 243 273ZM110 273C110.5 267 119.5 268.5 120.314 276C120.477 277.5 122 280.5 116.5 280.5C115 280.5 108.5 280.5 110 273Z" stroke="#201717" stroke-width="2"/>
</svg>
