<svg width="294" height="783" viewBox="0 0 294 783" fill="none" xmlns="http://www.w3.org/2000/svg">
<path d="M244 327C248.5 319.833 264.2 307.9 291 317.5C287 325 272 337.4 244 327Z" fill="#ECD0D9"/>
<path d="M2 317.5C13.1667 313 39 308.5 53 326.5C53.5 326.5 16 339.999 2 317.5Z" fill="#ECD0D9"/>
<path d="M169.5 52C168.309 57.6128 168.519 56.5951 169.251 52.7611L160.5 79.5L147 104.5L129 67L123 47.5L120.5 27L173 26.5C174.056 27.2918 170.671 45.3244 169.251 52.7611L169.5 52Z" fill="#ECD0D9"/>
<path d="M117.645 2.29471C114.388 10.2342 105.552 26.8462 96.2692 29.7777M117.645 2.29471L172.611 1.07324M117.645 2.29471L120.699 26.7241M96.2692 29.7777L91.3833 59.0929L112.759 60.9251M96.2692 29.7777L55.9608 44.4353M112.759 60.9251L123.752 51.1534M112.759 60.9251L96.2692 76.1935L175.054 185.515M123.752 51.1534C123.752 56.0393 139.224 89.0189 146.96 104.898M123.752 51.1534L120.699 26.7241M172.611 1.07324H178.718C180.958 9.21636 188.124 26.3576 198.872 29.7777M172.611 1.07324C173.575 6.85665 174.082 15.7975 173.273 26.7241M146.96 104.898C159.413 85.7734 166.435 66.0922 170.12 48.7105M146.96 104.898L157.953 131.16M198.872 29.7777L201.926 60.9251L183.604 62.7573M198.872 29.7777L237.349 44.4353M183.604 62.7573L170.12 48.7105M183.604 62.7573L198.872 77.415L157.953 131.16M170.12 48.7105C171.794 40.8185 172.779 33.4006 173.273 26.7241M157.953 131.16L172.446 171.468M175.054 185.515H177.497M175.054 185.515H170.779M177.497 185.515L172.446 171.468M177.497 185.515L178.718 185.851M120.699 26.7241H173.273M55.9608 44.4353H49.2427L44.3568 77.415C38.6566 96.5513 28.1113 140.687 31.5314 164.139C30.5542 164.139 22.574 192.64 18.706 206.89C12.3951 225.416 0.62826 266.376 4.04837 282.011C3.55978 282.011 2.21619 305.626 1.60547 317.433M55.9608 44.4353L63.2896 75.0018M1.60547 317.433C6.69492 324.966 24.2026 337.343 53.5178 326.594M1.60547 317.433C12.5987 312.955 38.3716 308.517 53.5178 326.594M53.5178 326.594C53.5178 326.106 62.0681 261.246 66.3432 228.877L72.6091 194.676M81.0008 148.871L73.672 188.874M81.0008 148.871L66.3432 87.7379M81.0008 148.871L85.8867 171.468C84.2581 178.722 81.0008 195.024 81.0008 202.198L57.793 319.265C58.5048 320.306 59.8942 321.582 62.0681 322.844M63.2896 153.757C59.0144 140.137 53.0293 105.318 63.2896 75.0018M63.2896 75.0018L66.3432 87.7379M49.2427 171.468C56.1643 172.282 70.7405 176.903 73.672 188.874M73.672 188.874L72.6091 194.676M45.5783 181.24C49.7555 185.515 61.0098 194.187 72.6091 194.676M66.3432 51.1534V87.7379M170.779 185.515L170.417 194.676M170.779 185.515C164.427 185.246 134.745 150.387 120.699 132.992M183.604 269.796L170.417 194.676M183.604 269.796L180.42 340.641M183.604 269.796L186.869 340.641M170.417 194.676L170.269 198.437M170.417 194.676C159.867 197.119 118.218 183.479 98.7121 176.354M170.417 194.676L89.5511 132.992M189.711 188.874L178.718 185.851M189.711 188.874L203.286 185.851M189.711 188.874L190.912 202.198M132.913 317.433L169.477 218.494M169.477 218.494L170.12 202.198M169.477 218.494L164.872 335.145M85.8867 252.085C101.938 234.91 141.255 200.887 170.12 202.198M170.12 202.198L170.269 198.437M98.7121 202.198C119.748 199.691 163.509 195.428 170.269 198.437M186.658 120.166L172.446 171.468M212.919 104.898C202.74 131.994 181.65 186.119 178.718 185.851M164.872 335.145L163.45 371.178L178.718 378.507L180.42 340.641M164.872 335.145C159.482 334.448 152.78 333.596 145.739 332.719M180.42 340.641H186.869M186.869 340.641L189.711 402.325C191.666 394.019 205.998 389.093 212.919 387.668L204.261 327.816M203.286 185.851L212.919 153.757M203.286 185.851L207.423 202.198M212.919 153.757L231.852 67.6432L237.349 44.4353M212.919 153.757L217.805 174.216M237.349 44.4353H247.731L258.114 100.623L270.939 176.354C279.489 205.465 295.613 274.438 291.704 317.433M291.704 317.433C291.093 317.433 280.1 338.809 243.456 326.594M291.704 317.433C265.809 307.173 248.749 319.265 243.456 326.594M243.456 326.594L228.188 225.213L224.45 204.448M243.456 91.4618C242.845 114.478 236.86 163.252 217.805 174.216M217.805 174.216L220.248 184.446M247.731 171.468C239.384 172.384 222.202 176.262 220.248 184.446M220.248 184.446L222.691 194.676L224.45 204.448M256.281 171.468C250.736 180.425 236.606 199.562 224.45 204.448M190.912 202.198L198.872 290.561L204.261 327.816M190.912 202.198H207.423M207.423 202.198C208.887 205.754 210.73 210.552 212.658 216.052M204.261 327.816C212.604 330.106 224.089 327.079 231.852 324.091M198.872 216.052H212.658M212.658 216.052C213.41 218.195 214.174 220.445 214.934 222.77M198.872 222.77H214.934M214.934 222.77C219.781 237.589 224.45 255.43 224.45 267.964C224.45 270.895 233.049 305.015 237.349 321.708C235.909 322.421 234.027 323.255 231.852 324.091M231.852 324.091L233.684 380.339L237.349 465.231C241.827 477.446 250.663 510.303 250.174 544.015C249.685 544.504 257.299 588.599 261.167 610.585L266.053 717.464C270.328 736.6 273.748 774.262 253.228 771.819C252.739 770.842 230.631 776.705 219.637 779.759C211.494 780.98 192.887 781.835 183.604 775.484C182.993 774.873 155.51 777.926 154.9 765.101C154.9 764.124 150.828 553.787 148.792 448.741L147.088 384.003M145.739 332.719C123.973 330.012 98.9537 327.077 99.3229 327.816C79.6787 329.602 67.9762 326.274 62.0681 322.844M145.739 332.719L147.088 384.003M147.088 384.003L139.021 484.774V579.438V710.746V752.276C140.446 761.233 138.898 778.415 121.309 775.484C115.406 775.484 100.911 776.705 90.1619 781.591C88.9404 781.591 65.1218 782.812 56.5715 771.819C57.1822 771.819 23.5919 772.43 23.5919 759.604C23.5919 759.116 39.8781 579.438 48.0212 489.66L62.0681 322.844" stroke="#201717" stroke-width="2"/>
</svg>
