<svg width="267" height="428" viewBox="0 0 267 428" fill="none" xmlns="http://www.w3.org/2000/svg">
<path d="M138 43C100.8 46.2 74.8333 21.6667 66.5 9C77 70 135.5 102.5 136.5 103C172.1 85.8 197 33.1667 205 9C185.5 42 139 42.5 138 43Z" fill="#ECD0D9"/>
<path d="M63.9982 1.5C68.4982 24.6667 89.2982 77.4 136.498 103M63.9982 1.5L6.49823 14C-4.50169 15.5 6.49823 25 6.49823 25.5M63.9982 1.5C68.6649 15.6667 89.6982 43.8 136.498 43M136.498 103C135.498 103 195.998 63.5 205.998 3.5M136.498 103V43M136.498 103C160.507 115.333 209.922 139.8 215.511 139M205.998 3.5C206.398 4.3 234.165 15.5 247.998 21C243.765 42.6804 238.254 78.1741 237.999 103M205.998 3.5C196.398 35.1 155.665 43 136.498 43M31.4982 74.5C28.8315 72 25.0982 66.5 31.4982 64.5M31.4982 74.5C33.6649 79.1667 40.5983 87.5 50.9983 83.5M31.4982 74.5L30.4982 99.75M31.4982 64.5C31.4982 63.7 28.1649 57.8333 26.4982 55L11.4982 36C6.49822 34.6667 -1.50174 30.7 6.49823 25.5M31.4982 64.5L50.9983 47.5M6.49823 25.5L35.9983 16M50.9983 83.5C50.9983 82.7 63.665 92.5 69.9983 97.5C71.4983 102.167 75.9983 109.8 81.9983 103M50.9983 83.5L67.4983 64.5M81.9983 103C81.5983 103 87.165 108.667 89.9983 111.5C92.3316 114.333 97.0983 119.8 101.498 115M81.9983 103L89.9983 78M101.498 115C104.498 112.5 112.832 117.5 117.998 120.5C117.998 124.5 119.398 131.3 126.998 128.5M101.498 115V99.75M126.998 128.5C127.498 128.5 143.998 125 158.998 136M126.998 128.5L130.498 109.5M158.998 136C158.598 136 174.498 136 182.498 136M158.998 136L161.998 125M182.498 136V141.5C192.165 142 211.798 143.4 212.998 145M182.498 136V128.5M212.998 145C212.878 144.88 213.857 142.532 215.511 139M212.998 145C210.854 150.446 208.405 157.719 205.998 166.381M237.999 103C237.843 118.252 239.67 129.478 244.998 131C244.198 130.6 235.332 178.833 230.998 203C229.332 215 228.198 245.8 236.998 273C237.398 273.8 256.498 360 265.998 403C266.234 408.431 254.444 417.709 212.998 422.658M237.999 103C232.683 104.899 220.734 127.849 215.511 139M30.4982 99.75L29.4982 125C25.4983 127 25.4982 132.667 26.4982 136C27.4982 139.333 29.4982 146.2 29.4982 147C37.4982 168.6 40.8315 221 41.4982 244.5C30.1649 295.5 7.29823 397.8 6.49823 399C2.8008 411.832 28.3375 418.704 58.4983 422.332M30.4982 99.75C46.3316 115.333 77.1983 165.4 73.9983 241C74.7983 241 63.9983 361.888 58.4983 422.332M58.4983 422.332C75.8646 424.421 94.7639 425.434 110.498 425.89M212.998 422.658C195.935 424.696 173.845 426 145.498 426C145.026 426.157 130.258 426.463 110.498 425.89M212.998 422.658C211.462 409.613 209.448 392.411 207.428 375M207.428 375C187.285 393.149 139.698 428.737 110.498 425.89M207.428 375C205.153 355.386 202.869 335.506 201.252 321M107.998 381.5L201.252 321M201.252 321C199.787 307.86 198.869 299.13 198.998 299C198.032 294.525 197.228 290.019 196.571 285.5M81.9983 326C118.629 315.667 192.826 293.1 196.571 285.5M196.571 285.5C195.189 275.998 194.459 266.442 194.245 257M91.9983 275.5C124.496 272.333 190.442 264.2 194.245 257M194.245 257C194.044 248.187 194.294 239.474 194.883 231M89.9983 219.5C120.778 225.667 184.848 236.6 194.883 231M194.883 231C195.7 219.262 197.169 207.983 198.998 197.531M83.9983 182L198.998 197.531M198.998 197.531C201.022 185.969 203.487 175.419 205.998 166.381M91.9983 139L205.998 166.381" stroke="#201717" stroke-width="2"/>
</svg>
