<svg width="107" height="32" viewBox="0 0 107 32" fill="none" xmlns="http://www.w3.org/2000/svg">
<path d="M59.8867 31.084C59.9277 31.125 59.9482 31.1836 59.9482 31.2598V31.3125C59.9482 31.3418 59.9482 31.3682 59.9482 31.3916C59.9189 31.4678 59.8721 31.5205 59.8076 31.5498C59.7432 31.585 59.6729 31.6025 59.5967 31.6025C59.5615 31.6025 59.5234 31.5996 59.4824 31.5938C59.4414 31.5879 59.4092 31.5791 59.3857 31.5674C59.1045 31.3213 58.7939 31.1514 58.4541 31.0576C58.1201 30.9697 57.7861 30.9082 57.4521 30.873C57.2471 30.8438 57.0479 30.8115 56.8545 30.7764C52.4424 29.9092 48.0068 29.2383 43.5479 28.7637C41.2803 28.5469 39.0068 28.3594 36.7275 28.2012C34.9697 28.084 33.209 28.0078 31.4453 27.9727C30.2852 27.9609 29.1309 27.9287 27.9824 27.876C27.1328 27.8467 26.2773 27.8467 25.416 27.876C25.1406 27.8877 24.874 27.8936 24.6162 27.8936C23.8311 27.9053 23.0459 27.917 22.2607 27.9287C20.1221 27.958 17.9893 28.0107 15.8623 28.0869C14.0283 28.1514 12.2002 28.2598 10.3779 28.4121C8.55566 28.5703 6.74219 28.8105 4.9375 29.1328C3.71289 29.3262 2.51465 29.6279 1.34277 30.0381C1.30176 30.0498 1.25488 30.0703 1.20215 30.0996C1.07324 30.1523 0.941406 30.1934 0.806641 30.2227C0.671875 30.2578 0.52832 30.2607 0.375977 30.2314C0.206055 30.208 0.100586 30.1172 0.0595703 29.959C0.0478516 29.9121 0.0537109 29.8594 0.0771484 29.8008C0.0947266 29.7422 0.121094 29.6924 0.15625 29.6514C0.390625 29.458 0.630859 29.2793 0.876953 29.1152C3.10352 27.5391 5.28027 25.8955 7.40723 24.1846C11.1455 21.2432 14.7227 18.123 18.1387 14.8242C20.2656 12.7734 22.4189 10.7607 24.5986 8.78613C25.9932 7.52637 27.3789 6.25195 28.7559 4.96289C29.4297 4.33008 30.0947 3.68555 30.751 3.0293C30.8389 2.93555 30.9209 2.85059 30.9971 2.77441C31.0381 2.75098 31.0703 2.72461 31.0938 2.69531C31.1582 2.63086 31.2197 2.56348 31.2783 2.49316C31.3369 2.42285 31.3662 2.33789 31.3662 2.23828C31.2373 2.13281 31.1025 2.06836 30.9619 2.04492C30.8213 2.01562 30.6719 2.00098 30.5137 2.00098C30.4492 2.00098 30.3789 2.00098 30.3027 2.00098C28.6797 1.88379 27.0566 1.80762 25.4336 1.77246C23.8105 1.73145 22.1787 1.74902 20.5381 1.8252C19.1611 1.87793 17.7812 1.96289 16.3984 2.08008C15.0215 2.19727 13.6504 2.37891 12.2852 2.625C12.2207 2.63672 12.1562 2.64844 12.0918 2.66016C11.8457 2.70117 11.6055 2.75684 11.3711 2.82715C11.1426 2.89746 10.9258 3.00879 10.7207 3.16113C10.7559 3.41895 10.8496 3.62988 11.002 3.79395C11.1602 3.95215 11.3418 4.0957 11.5469 4.22461C11.6523 4.30078 11.7549 4.37988 11.8545 4.46191C12.4346 4.9248 13.0674 5.31152 13.7529 5.62207C13.7764 5.63379 13.7969 5.66016 13.8145 5.70117C13.8379 5.73633 13.8555 5.76563 13.8672 5.78906C13.8672 5.87109 13.8438 5.92383 13.7969 5.94727C13.7559 5.9707 13.709 5.99121 13.6562 6.00879C13.3457 6.07324 13.0557 6.04102 12.7861 5.91211C12.2588 5.6543 11.752 5.36719 11.2656 5.05078C10.7852 4.73438 10.3369 4.36816 9.9209 3.95215C9.25293 3.28418 9.3584 2.77734 10.2373 2.43164C10.7119 2.23828 11.207 2.08887 11.7227 1.9834C12.4727 1.81348 13.2256 1.68457 13.9814 1.59668C14.7432 1.50879 15.5049 1.42383 16.2666 1.3418C16.3428 1.3418 16.4189 1.33594 16.4951 1.32422C18.458 1.14258 20.4209 1.0459 22.3838 1.03418C24.3525 1.02246 26.3154 1.04297 28.2725 1.0957C29.3564 1.13086 30.4404 1.20703 31.5244 1.32422C31.7939 1.35352 32.0518 1.3418 32.2979 1.28906C32.5439 1.23633 32.7695 1.10742 32.9746 0.902344C33.0273 0.837891 33.1006 0.791016 33.1943 0.761719C33.2939 0.726562 33.3877 0.694336 33.4756 0.665039C33.5166 0.65332 33.5488 0.641602 33.5723 0.629883C33.6895 0.606445 33.7891 0.626953 33.8711 0.691406C33.9531 0.755859 33.9824 0.858398 33.959 0.999023C33.9473 1.13965 33.9561 1.24805 33.9854 1.32422C34.0205 1.40039 34.1084 1.44727 34.249 1.46484C34.3135 1.47656 34.3779 1.48242 34.4424 1.48242C34.7119 1.50586 34.9814 1.5498 35.251 1.61426C35.4092 1.65527 35.4824 1.7666 35.4707 1.94824C35.4531 2.0127 35.4209 2.06543 35.374 2.10645C35.333 2.1416 35.2861 2.15918 35.2334 2.15918C34.9404 2.18262 34.6445 2.2002 34.3457 2.21191C34.0234 2.21191 33.7656 2.21191 33.5723 2.21191C33.3379 2.2002 33.1592 2.20605 33.0361 2.22949C32.9189 2.24707 32.8105 2.29395 32.7109 2.37012C32.6172 2.44629 32.4854 2.5752 32.3154 2.75684C32.1865 2.88574 32.0195 3.05273 31.8145 3.25781C30.1738 4.85742 28.5039 6.43066 26.8047 7.97754C26.2363 8.50488 25.668 9.02637 25.0996 9.54199C22.6152 11.8623 20.1338 14.1973 17.6553 16.5469C14.4326 19.5762 11.0811 22.4443 7.60059 25.1514C6.81543 25.7666 6.02441 26.3789 5.22754 26.9883C4.74707 27.3574 4.26367 27.7236 3.77734 28.0869C3.74805 28.1104 3.71582 28.1367 3.68066 28.166C3.60449 28.2188 3.53418 28.2773 3.46973 28.3418C3.40527 28.4062 3.37305 28.4941 3.37305 28.6055C3.64258 28.5703 3.91211 28.5322 4.18164 28.4912C4.82617 28.3916 5.47656 28.2891 6.13281 28.1836C8.19531 27.873 10.2783 27.6533 12.3818 27.5244C15.0244 27.3721 17.6729 27.2666 20.3271 27.208C22.9814 27.1494 25.6357 27.126 28.29 27.1377C32.3389 27.167 36.376 27.3604 40.4014 27.7178C46.4072 28.2627 52.3486 29.1855 58.2256 30.4863C58.2783 30.498 58.3311 30.5098 58.3838 30.5215C58.7412 30.5859 59.0869 30.6709 59.4209 30.7764C59.6025 30.8408 59.7578 30.9434 59.8867 31.084Z" fill="#E25C7E"/>
<path d="M28.7367 24C28.5087 24 28.3947 23.88 28.3947 23.64V10.95C28.3947 10.746 28.4907 10.644 28.6827 10.644H31.7247C31.8447 10.644 31.9287 10.662 31.9767 10.698C32.0367 10.722 32.0787 10.788 32.1027 10.896L35.2707 19.392C35.3067 19.488 35.3487 19.536 35.3967 19.536C35.4447 19.524 35.4867 19.47 35.5227 19.374L38.6007 10.986C38.6727 10.758 38.7927 10.644 38.9607 10.644H42.1107C42.2787 10.644 42.3627 10.74 42.3627 10.932V23.622C42.3627 23.874 42.2307 24 41.9667 24H40.0407C39.9207 24 39.8307 23.976 39.7707 23.928C39.7227 23.868 39.6987 23.784 39.6987 23.676V14.262C39.6987 14.19 39.6807 14.16 39.6447 14.172C39.6087 14.172 39.5787 14.208 39.5547 14.28L36.1347 23.73C36.0747 23.91 35.9547 24 35.7747 24H34.4967C34.2927 24 34.1607 23.91 34.1007 23.73L30.7167 14.388C30.6927 14.304 30.6627 14.268 30.6267 14.28C30.5907 14.28 30.5727 14.322 30.5727 14.406V23.712C30.5727 23.82 30.5547 23.898 30.5187 23.946C30.4827 23.982 30.3987 24 30.2667 24H28.7367ZM49.8074 23.01C49.4114 23.37 48.9674 23.658 48.4754 23.874C47.9954 24.078 47.4494 24.18 46.8374 24.18C45.9254 24.18 45.2054 23.94 44.6774 23.46C44.1494 22.968 43.8854 22.332 43.8854 21.552C43.8854 20.892 44.0834 20.322 44.4794 19.842C44.8754 19.35 45.4514 18.966 46.2074 18.69C46.9634 18.414 47.8754 18.252 48.9434 18.204L49.8434 18.15C49.9034 18.138 49.9634 18.114 50.0234 18.078C50.0954 18.042 50.1314 17.976 50.1314 17.88V17.466C50.1314 16.938 49.9754 16.53 49.6634 16.242C49.3514 15.942 48.9134 15.792 48.3494 15.792C47.9414 15.792 47.5514 15.888 47.1794 16.08C46.8194 16.26 46.5074 16.56 46.2434 16.98C46.1954 17.052 46.1474 17.1 46.0994 17.124C46.0634 17.148 45.9914 17.148 45.8834 17.124L44.3714 16.746C44.3114 16.722 44.2694 16.686 44.2454 16.638C44.2214 16.59 44.2394 16.494 44.2994 16.35C44.6234 15.666 45.1394 15.15 45.8474 14.802C46.5554 14.454 47.4254 14.28 48.4574 14.28C49.3814 14.28 50.1314 14.406 50.7074 14.658C51.2834 14.91 51.7034 15.264 51.9674 15.72C52.2314 16.164 52.3634 16.692 52.3634 17.304V23.64C52.3634 23.772 52.3394 23.868 52.2914 23.928C52.2554 23.976 52.1774 24 52.0574 24H50.5274C50.4194 24 50.3354 23.958 50.2754 23.874C50.2274 23.79 50.1974 23.688 50.1854 23.568L50.1674 23.028C50.1314 22.824 50.0114 22.818 49.8074 23.01ZM50.1314 19.644C50.1314 19.428 50.0414 19.326 49.8614 19.338L49.1234 19.392C48.7274 19.416 48.3494 19.476 47.9894 19.572C47.6414 19.656 47.3294 19.776 47.0534 19.932C46.7894 20.076 46.5794 20.262 46.4234 20.49C46.2674 20.706 46.1894 20.964 46.1894 21.264C46.1894 21.672 46.3334 21.996 46.6214 22.236C46.9094 22.476 47.3054 22.596 47.8094 22.596C48.1454 22.596 48.4514 22.542 48.7274 22.434C49.0034 22.326 49.2434 22.188 49.4474 22.02C49.6514 21.852 49.8134 21.678 49.9334 21.498C50.0654 21.306 50.1314 21.114 50.1314 20.922V19.644ZM63.5165 14.136C63.6245 14.136 63.7085 14.166 63.7685 14.226C63.8405 14.274 63.8765 14.364 63.8765 14.496V15.504C63.8765 15.66 63.8405 15.768 63.7685 15.828C63.7085 15.888 63.6125 15.912 63.4805 15.9C63.3125 15.876 63.1505 15.87 62.9945 15.882C62.8505 15.882 62.7185 15.9 62.5985 15.936C62.2865 16.008 62.1665 16.146 62.2385 16.35C62.2745 16.458 62.3165 16.59 62.3645 16.746C62.4245 16.902 62.4545 17.088 62.4545 17.304C62.4545 17.844 62.2985 18.336 61.9865 18.78C61.6865 19.224 61.2245 19.578 60.6005 19.842C59.9765 20.106 59.1965 20.238 58.2605 20.238C57.7325 20.238 57.3125 20.268 57.0005 20.328C56.7005 20.388 56.4845 20.472 56.3525 20.58C56.2205 20.676 56.1545 20.784 56.1545 20.904C56.1545 21.072 56.2565 21.192 56.4605 21.264C56.6765 21.324 57.0065 21.372 57.4505 21.408L59.9345 21.552C61.1105 21.612 61.9685 21.876 62.5085 22.344C63.0485 22.8 63.3185 23.394 63.3185 24.126C63.3185 25.026 62.8925 25.752 62.0405 26.304C61.2005 26.868 59.9765 27.15 58.3685 27.15C56.7005 27.15 55.4405 26.946 54.5885 26.538C53.7485 26.142 53.3285 25.548 53.3285 24.756C53.3285 24.336 53.4845 23.982 53.7965 23.694C54.1085 23.406 54.5225 23.154 55.0385 22.938C55.1945 22.878 55.1945 22.812 55.0385 22.74C54.7625 22.608 54.5285 22.446 54.3365 22.254C54.1565 22.05 54.0665 21.804 54.0665 21.516C54.0665 21.288 54.1385 21.084 54.2825 20.904C54.4265 20.712 54.6185 20.538 54.8585 20.382C55.1105 20.226 55.3925 20.088 55.7045 19.968C55.7645 19.944 55.8005 19.914 55.8125 19.878C55.8365 19.83 55.8065 19.788 55.7225 19.752C55.1825 19.488 54.7685 19.158 54.4805 18.762C54.1925 18.354 54.0485 17.874 54.0485 17.322C54.0485 16.41 54.4205 15.684 55.1645 15.144C55.9205 14.592 57.0125 14.316 58.4405 14.316C59.0885 14.316 59.6405 14.388 60.0965 14.532C60.5645 14.676 60.9485 14.874 61.2485 15.126C61.3325 15.186 61.4165 15.216 61.5005 15.216C61.5845 15.204 61.6565 15.168 61.7165 15.108C61.8605 14.94 62.0345 14.784 62.2385 14.64C62.4425 14.484 62.6585 14.364 62.8865 14.28C63.1145 14.184 63.3245 14.136 63.5165 14.136ZM58.2425 19.014C58.9505 19.014 59.4725 18.858 59.8085 18.546C60.1445 18.234 60.3125 17.832 60.3125 17.34C60.3125 16.8 60.1445 16.368 59.8085 16.044C59.4725 15.72 58.9505 15.558 58.2425 15.558C57.5825 15.558 57.0725 15.72 56.7125 16.044C56.3525 16.368 56.1725 16.8 56.1725 17.34C56.1725 17.832 56.3525 18.234 56.7125 18.546C57.0725 18.858 57.5825 19.014 58.2425 19.014ZM56.8205 23.244C56.5925 23.232 56.3585 23.28 56.1185 23.388C55.8905 23.484 55.6925 23.628 55.5245 23.82C55.3685 24 55.2905 24.21 55.2905 24.45C55.2905 24.762 55.3985 25.032 55.6145 25.26C55.8425 25.488 56.1965 25.656 56.6765 25.764C57.1565 25.884 57.7805 25.944 58.5485 25.944C59.4245 25.944 60.0905 25.818 60.5465 25.566C61.0025 25.326 61.2305 24.972 61.2305 24.504C61.2305 24.192 61.1045 23.934 60.8525 23.73C60.6125 23.526 60.2225 23.412 59.6825 23.388L56.8205 23.244ZM70.0405 23.01C69.6445 23.37 69.2005 23.658 68.7085 23.874C68.2285 24.078 67.6825 24.18 67.0705 24.18C66.1585 24.18 65.4385 23.94 64.9105 23.46C64.3825 22.968 64.1185 22.332 64.1185 21.552C64.1185 20.892 64.3165 20.322 64.7125 19.842C65.1085 19.35 65.6845 18.966 66.4405 18.69C67.1965 18.414 68.1085 18.252 69.1765 18.204L70.0765 18.15C70.1365 18.138 70.1965 18.114 70.2565 18.078C70.3285 18.042 70.3645 17.976 70.3645 17.88V17.466C70.3645 16.938 70.2085 16.53 69.8965 16.242C69.5845 15.942 69.1465 15.792 68.5825 15.792C68.1745 15.792 67.7845 15.888 67.4125 16.08C67.0525 16.26 66.7405 16.56 66.4765 16.98C66.4285 17.052 66.3805 17.1 66.3325 17.124C66.2965 17.148 66.2245 17.148 66.1165 17.124L64.6045 16.746C64.5445 16.722 64.5025 16.686 64.4785 16.638C64.4545 16.59 64.4725 16.494 64.5325 16.35C64.8565 15.666 65.3725 15.15 66.0805 14.802C66.7885 14.454 67.6585 14.28 68.6905 14.28C69.6145 14.28 70.3645 14.406 70.9405 14.658C71.5165 14.91 71.9365 15.264 72.2005 15.72C72.4645 16.164 72.5965 16.692 72.5965 17.304V23.64C72.5965 23.772 72.5725 23.868 72.5245 23.928C72.4885 23.976 72.4105 24 72.2905 24H70.7605C70.6525 24 70.5685 23.958 70.5085 23.874C70.4605 23.79 70.4305 23.688 70.4185 23.568L70.4005 23.028C70.3645 22.824 70.2445 22.818 70.0405 23.01ZM70.3645 19.644C70.3645 19.428 70.2745 19.326 70.0945 19.338L69.3565 19.392C68.9605 19.416 68.5825 19.476 68.2225 19.572C67.8745 19.656 67.5625 19.776 67.2865 19.932C67.0225 20.076 66.8125 20.262 66.6565 20.49C66.5005 20.706 66.4225 20.964 66.4225 21.264C66.4225 21.672 66.5665 21.996 66.8545 22.236C67.1425 22.476 67.5385 22.596 68.0425 22.596C68.3785 22.596 68.6845 22.542 68.9605 22.434C69.2365 22.326 69.4765 22.188 69.6805 22.02C69.8845 21.852 70.0465 21.678 70.1665 21.498C70.2985 21.306 70.3645 21.114 70.3645 20.922V19.644ZM74.1197 24C73.9997 24 73.9157 23.982 73.8677 23.946C73.8197 23.898 73.7957 23.814 73.7957 23.694V23.046C73.7957 22.914 73.8137 22.812 73.8497 22.74C73.8857 22.656 73.9637 22.536 74.0837 22.38L78.7637 16.188C78.8717 16.044 78.8297 15.972 78.6377 15.972H74.4797C74.3717 15.972 74.2937 15.954 74.2457 15.918C74.2097 15.87 74.1917 15.792 74.1917 15.684V14.712C74.1917 14.544 74.2697 14.46 74.4257 14.46H81.6077C81.7637 14.46 81.8417 14.538 81.8417 14.694V15.414C81.8417 15.522 81.8237 15.618 81.7877 15.702C81.7517 15.786 81.6917 15.888 81.6077 16.008L76.8737 22.218C76.7417 22.386 76.7717 22.47 76.9637 22.47H81.6257C81.8057 22.47 81.8957 22.548 81.8957 22.704V23.712C81.8957 23.796 81.8717 23.868 81.8237 23.928C81.7757 23.976 81.6977 24 81.5897 24H74.1197ZM85.5471 23.604C85.5471 23.748 85.5111 23.85 85.4391 23.91C85.3791 23.97 85.2711 24 85.1151 24H83.5491C83.4171 24 83.3271 23.976 83.2791 23.928C83.2311 23.868 83.2071 23.784 83.2071 23.676V14.766C83.2071 14.562 83.2971 14.46 83.4771 14.46H85.2951C85.4631 14.46 85.5471 14.556 85.5471 14.748V23.604ZM85.5831 12.696C85.5831 12.972 85.4391 13.11 85.1511 13.11H83.5131C83.3811 13.11 83.2911 13.08 83.2431 13.02C83.1951 12.96 83.1711 12.87 83.1711 12.75V10.986C83.1711 10.758 83.2671 10.644 83.4591 10.644H85.3131C85.4931 10.644 85.5831 10.746 85.5831 10.95V12.696ZM87.7766 24C87.5606 24 87.4526 23.892 87.4526 23.676V14.766C87.4526 14.562 87.5366 14.46 87.7046 14.46H89.5046C89.6606 14.46 89.7386 14.55 89.7386 14.73V15.666C89.7386 15.738 89.7566 15.786 89.7926 15.81C89.8286 15.822 89.8766 15.798 89.9366 15.738C90.2846 15.438 90.6206 15.18 90.9446 14.964C91.2686 14.748 91.6046 14.58 91.9526 14.46C92.3006 14.34 92.6786 14.28 93.0866 14.28C93.9746 14.28 94.6706 14.538 95.1746 15.054C95.6906 15.558 95.9486 16.23 95.9486 17.07V23.622C95.9486 23.874 95.8226 24 95.5706 24H93.9146C93.8066 24 93.7286 23.976 93.6806 23.928C93.6326 23.88 93.6086 23.796 93.6086 23.676V17.484C93.6086 17.016 93.4826 16.656 93.2306 16.404C92.9786 16.14 92.6006 16.008 92.0966 16.008C91.8086 16.008 91.5386 16.056 91.2866 16.152C91.0466 16.236 90.8066 16.368 90.5666 16.548C90.3266 16.728 90.0686 16.956 89.7926 17.232V23.64C89.7926 23.88 89.6546 24 89.3786 24H87.7766ZM99.6889 19.968C99.6889 20.46 99.8029 20.904 100.031 21.3C100.259 21.684 100.571 21.99 100.967 22.218C101.375 22.434 101.819 22.542 102.299 22.542C102.791 22.542 103.235 22.44 103.631 22.236C104.039 22.032 104.423 21.702 104.783 21.246C104.831 21.186 104.873 21.156 104.909 21.156C104.945 21.144 105.005 21.162 105.089 21.21L106.187 21.696C106.343 21.768 106.361 21.876 106.241 22.02C105.881 22.548 105.491 22.974 105.071 23.298C104.663 23.61 104.207 23.838 103.703 23.982C103.211 24.114 102.653 24.18 102.029 24.18C101.117 24.18 100.301 23.976 99.5809 23.568C98.8609 23.16 98.2909 22.596 97.8709 21.876C97.4629 21.144 97.2589 20.304 97.2589 19.356C97.2589 18.312 97.4689 17.412 97.8889 16.656C98.3209 15.9 98.8969 15.318 99.6169 14.91C100.337 14.49 101.129 14.28 101.993 14.28C102.905 14.28 103.697 14.478 104.369 14.874C105.053 15.27 105.587 15.84 105.971 16.584C106.355 17.316 106.547 18.21 106.547 19.266C106.547 19.386 106.535 19.482 106.511 19.554C106.499 19.626 106.415 19.668 106.259 19.68H99.8869C99.8149 19.68 99.7609 19.704 99.7249 19.752C99.7009 19.8 99.6889 19.872 99.6889 19.968ZM103.955 18.348C104.075 18.348 104.153 18.336 104.189 18.312C104.237 18.276 104.261 18.204 104.261 18.096C104.261 17.724 104.177 17.358 104.009 16.998C103.841 16.638 103.595 16.344 103.271 16.116C102.947 15.876 102.551 15.756 102.083 15.756C101.603 15.756 101.183 15.876 100.823 16.116C100.463 16.344 100.187 16.656 99.9949 17.052C99.8149 17.436 99.7249 17.868 99.7249 18.348H103.955Z" fill="#394050"/>
</svg>
