<svg width="21" height="20" viewBox="0 0 21 20" fill="none" xmlns="http://www.w3.org/2000/svg">
<path d="M13.8332 1.6665V4.99984M7.1665 1.6665V4.99984" stroke="#A1A2A7" stroke-width="1.25" stroke-linecap="round" stroke-linejoin="round"/>
<path d="M11.3333 3.3335H9.66667C6.52397 3.3335 4.95262 3.3335 3.97631 4.3098C3 5.28612 3 6.85746 3 10.0002V11.6668C3 14.8095 3 16.3809 3.97631 17.3572C4.95262 18.3335 6.52397 18.3335 9.66667 18.3335H11.3333C14.476 18.3335 16.0474 18.3335 17.0237 17.3572C18 16.3809 18 14.8095 18 11.6668V10.0002C18 6.85746 18 5.28612 17.0237 4.3098C16.0474 3.3335 14.476 3.3335 11.3333 3.3335Z" stroke="#A1A2A7" stroke-width="1.25" stroke-linecap="round" stroke-linejoin="round"/>
<path d="M3 8.3335H18" stroke="#A1A2A7" stroke-width="1.25" stroke-linecap="round" stroke-linejoin="round"/>
<path d="M10.4961 11.6665H10.5036M10.4961 14.9998H10.5036M13.8257 11.6665H13.8332M7.1665 11.6665H7.17398M7.1665 14.9998H7.17398" stroke="#A1A2A7" stroke-width="1.66667" stroke-linecap="round" stroke-linejoin="round"/>
</svg>
