<svg width="30" height="34" viewBox="0 0 30 34" fill="none" xmlns="http://www.w3.org/2000/svg">
<path d="M10.9071 3.96853L10.0737 4.61899C8.80984 5.60551 8.1779 6.09878 7.83895 6.79428C7.5 7.48977 7.5 8.29321 7.5 9.90009V11.6428C7.5 14.7967 7.5 16.3736 8.47631 17.3534C9.45262 18.3332 11.024 18.3332 14.1667 18.3332H15.8333C18.976 18.3332 20.5474 18.3332 21.5237 17.3534C22.5 16.3736 22.5 14.7967 22.5 11.6428V9.90009C22.5 8.29321 22.5 7.48977 22.1611 6.79428C21.8221 6.09878 21.1902 5.60551 19.9263 4.61899L19.0929 3.96853C17.1268 2.43385 16.1437 1.6665 15 1.6665C13.8563 1.6665 12.8732 2.43385 10.9071 3.96853Z" stroke="#A1A2A7" stroke-width="1.25" stroke-linejoin="round"/>
<path d="M14.9998 15.0002C16.1504 15.0002 17.0832 14.0674 17.0832 12.9168C17.0832 11.7662 16.1504 10.8335 14.9998 10.8335C13.8492 10.8335 12.9165 11.7662 12.9165 12.9168C12.9165 14.0674 13.8492 15.0002 14.9998 15.0002Z" stroke="#A1A2A7" stroke-width="1.25" stroke-linecap="round" stroke-linejoin="round"/>
<path d="M3.03473 28.62C2.96806 28.62 2.93473 28.6533 2.93473 28.72V31.83C2.93473 31.9433 2.87139 32 2.74473 32H1.89473C1.82806 32 1.78139 31.9867 1.75473 31.96C1.73473 31.9333 1.72473 31.8933 1.72473 31.84V24.73C1.72473 24.63 1.77139 24.58 1.86473 24.58H2.80473C2.89139 24.58 2.93473 24.63 2.93473 24.73V27.54C2.93473 27.6333 2.97806 27.68 3.06473 27.68H6.03473C6.11473 27.68 6.15473 27.6367 6.15473 27.55V24.72C6.15473 24.6267 6.19473 24.58 6.27473 24.58H7.23473C7.32139 24.58 7.36473 24.63 7.36473 24.73V31.84C7.36473 31.8933 7.35139 31.9333 7.32473 31.96C7.30473 31.9867 7.26139 32 7.19473 32H6.35473C6.22139 32 6.15473 31.9433 6.15473 31.83V28.73C6.15473 28.6567 6.11806 28.62 6.04473 28.62H3.03473ZM11.2371 32.1C10.7237 32.1 10.2737 31.9867 9.88707 31.76C9.5004 31.5267 9.2004 31.2067 8.98707 30.8C8.77374 30.3867 8.66707 29.9133 8.66707 29.38C8.66707 28.8267 8.77707 28.3433 8.99707 27.93C9.21707 27.51 9.5204 27.1833 9.90707 26.95C10.3004 26.7167 10.7471 26.6 11.2471 26.6C11.7671 26.6 12.2171 26.72 12.5971 26.96C12.9837 27.1933 13.2837 27.52 13.4971 27.94C13.7104 28.3533 13.8171 28.83 13.8171 29.37C13.8171 29.9033 13.7071 30.3767 13.4871 30.79C13.2737 31.1967 12.9737 31.5167 12.5871 31.75C12.2004 31.9833 11.7504 32.1 11.2371 32.1ZM11.2571 31.35C11.5704 31.35 11.8371 31.27 12.0571 31.11C12.2771 30.95 12.4437 30.7233 12.5571 30.43C12.6771 30.13 12.7371 29.77 12.7371 29.35C12.7371 28.93 12.6771 28.57 12.5571 28.27C12.4437 27.97 12.2737 27.74 12.0471 27.58C11.8271 27.4133 11.5604 27.33 11.2471 27.33C10.9337 27.33 10.6637 27.4133 10.4371 27.58C10.2171 27.74 10.0471 27.97 9.92707 28.27C9.80707 28.57 9.74707 28.93 9.74707 29.35C9.74707 29.77 9.80707 30.13 9.92707 30.43C10.0471 30.7233 10.2171 30.95 10.4371 31.11C10.6637 31.27 10.9371 31.35 11.2571 31.35ZM15.0934 32C14.9867 32 14.9334 31.9467 14.9334 31.84V26.85C14.9334 26.75 14.9767 26.7 15.0634 26.7H15.8434C15.9234 26.7 15.9634 26.7433 15.9634 26.83V27.38C15.9634 27.4133 15.9734 27.4367 15.9934 27.45C16.0134 27.4567 16.0367 27.4433 16.0634 27.41C16.2701 27.2433 16.4634 27.1 16.6434 26.98C16.8234 26.8533 17.0067 26.76 17.1934 26.7C17.3867 26.6333 17.5934 26.6 17.8134 26.6C18.1934 26.6 18.5034 26.69 18.7434 26.87C18.9834 27.0433 19.1467 27.2533 19.2334 27.5C19.2467 27.5267 19.2634 27.5367 19.2834 27.53C19.3101 27.5233 19.3367 27.5067 19.3634 27.48C19.5567 27.3 19.7501 27.1467 19.9434 27.02C20.1367 26.8867 20.3334 26.7833 20.5334 26.71C20.7334 26.6367 20.9434 26.6 21.1634 26.6C21.6434 26.6 22.0167 26.74 22.2834 27.02C22.5567 27.3 22.6934 27.6767 22.6934 28.15V31.82C22.6934 31.94 22.6334 32 22.5134 32H21.7734C21.7267 32 21.6901 31.99 21.6634 31.97C21.6434 31.9433 21.6334 31.9 21.6334 31.84V28.34C21.6334 28.0467 21.5601 27.8167 21.4134 27.65C21.2667 27.4833 21.0467 27.4 20.7534 27.4C20.5801 27.4 20.4134 27.4333 20.2534 27.5C20.0934 27.5667 19.9467 27.65 19.8134 27.75C19.6867 27.8433 19.5734 27.9367 19.4734 28.03C19.4267 28.0767 19.3934 28.12 19.3734 28.16C19.3534 28.2 19.3434 28.2533 19.3434 28.32V31.82C19.3434 31.94 19.2834 32 19.1634 32H18.4334C18.3867 32 18.3501 31.99 18.3234 31.97C18.2967 31.9433 18.2834 31.9 18.2834 31.84V28.34C18.2834 28.0467 18.2134 27.8167 18.0734 27.65C17.9334 27.4833 17.7101 27.4 17.4034 27.4C17.1501 27.4 16.9167 27.4633 16.7034 27.59C16.4967 27.71 16.2601 27.8967 15.9934 28.15V31.83C15.9934 31.9433 15.9301 32 15.8034 32H15.0934ZM24.845 29.72C24.845 30.02 24.915 30.2933 25.055 30.54C25.2016 30.78 25.395 30.9733 25.635 31.12C25.8816 31.26 26.155 31.33 26.455 31.33C26.7616 31.33 27.035 31.2667 27.275 31.14C27.515 31.0133 27.735 30.8167 27.935 30.55C27.955 30.5233 27.975 30.51 27.995 30.51C28.015 30.5033 28.045 30.51 28.085 30.53L28.595 30.77C28.6683 30.8033 28.675 30.8567 28.615 30.93C28.4283 31.2033 28.2216 31.4267 27.995 31.6C27.775 31.7733 27.5283 31.9 27.255 31.98C26.9816 32.06 26.6783 32.1 26.345 32.1C25.8383 32.1 25.3916 31.9867 25.005 31.76C24.6183 31.5333 24.3116 31.2167 24.085 30.81C23.865 30.4033 23.755 29.9367 23.755 29.41C23.755 28.83 23.8683 28.3333 24.095 27.92C24.3216 27.5 24.6283 27.1767 25.015 26.95C25.4083 26.7167 25.845 26.6 26.325 26.6C26.8183 26.6 27.2483 26.71 27.615 26.93C27.9883 27.1433 28.2783 27.4533 28.485 27.86C28.6916 28.2667 28.795 28.76 28.795 29.34C28.795 29.4 28.7883 29.4533 28.775 29.5C28.7616 29.54 28.7183 29.56 28.645 29.56H24.945C24.9116 29.56 24.885 29.5767 24.865 29.61C24.8516 29.6367 24.845 29.6733 24.845 29.72ZM27.575 28.93C27.6483 28.93 27.695 28.92 27.715 28.9C27.735 28.88 27.745 28.8433 27.745 28.79C27.745 28.5367 27.6883 28.2967 27.575 28.07C27.4683 27.8433 27.3116 27.66 27.105 27.52C26.905 27.38 26.655 27.31 26.355 27.31C26.0416 27.31 25.7716 27.3867 25.545 27.54C25.325 27.6867 25.155 27.8833 25.035 28.13C24.9216 28.3767 24.865 28.64 24.865 28.92L27.575 28.93Z" fill="#A1A2A7"/>
</svg>
