<svg width="20" height="20" viewBox="0 0 20 20" fill="none" xmlns="http://www.w3.org/2000/svg">
<path d="M5.90707 3.96853L5.07372 4.61899C3.80984 5.60551 3.1779 6.09878 2.83895 6.79428C2.5 7.48977 2.5 8.29321 2.5 9.90009V11.6428C2.5 14.7967 2.5 16.3736 3.47631 17.3534C4.45262 18.3332 6.02397 18.3332 9.16667 18.3332H10.8333C13.976 18.3332 15.5474 18.3332 16.5237 17.3534C17.5 16.3736 17.5 14.7967 17.5 11.6428V9.90009C17.5 8.29321 17.5 7.48977 17.1611 6.79428C16.8221 6.09878 16.1902 5.60551 14.9263 4.61899L14.0929 3.96853C12.1268 2.43385 11.1437 1.6665 10 1.6665C8.85633 1.6665 7.87322 2.43385 5.90707 3.96853Z" stroke="#A1A2A7" stroke-width="1.25" stroke-linejoin="round"/>
<path d="M9.99984 15.0002C11.1504 15.0002 12.0832 14.0674 12.0832 12.9168C12.0832 11.7662 11.1504 10.8335 9.99984 10.8335C8.84924 10.8335 7.9165 11.7662 7.9165 12.9168C7.9165 14.0674 8.84924 15.0002 9.99984 15.0002Z" stroke="#A1A2A7" stroke-width="1.25" stroke-linecap="round" stroke-linejoin="round"/>
</svg>
