<svg width="20" height="20" viewBox="0 0 20 20" fill="none" xmlns="http://www.w3.org/2000/svg">
<path d="M14.1668 11.2502V6.66683C14.1668 5.51624 13.2341 4.5835 12.0835 4.5835C10.9329 4.5835 10.0002 5.51624 10.0002 6.66683M10.0002 6.66683V9.5835M10.0002 6.66683C10.0002 5.51624 9.06741 4.5835 7.91683 4.5835C6.76624 4.5835 5.8335 5.51624 5.8335 6.66683V11.2502" stroke="#A1A2A7" stroke-width="1.25" stroke-linecap="round" stroke-linejoin="round"/>
<path d="M10.8333 14.1627C12.5082 14.1627 14.075 13.9062 15.4124 13.4603C16.7729 13.0066 17.5 11.6258 17.5 10.1917V6.26941C17.5 4.45637 16.5247 2.73142 14.7734 2.26234C13.3549 1.88238 11.7287 1.6665 10 1.6665C8.27133 1.6665 6.64512 1.88238 5.22658 2.26234C3.47528 2.73142 2.5 4.45638 2.5 6.26941V12.0799C2.5 18.7446 9.16667 18.328 9.16667 18.328C11.25 18.328 12.5 17.4998 12.5 17.4998V16.6665C12.5 16.6665 11.25 17.0784 9.16667 17.0784C4.73341 17.0784 5.88342 13.3296 5.88342 13.3296C7.29817 13.8557 9.001 14.1627 10.8333 14.1627Z" stroke="#A1A2A7" stroke-width="1.25" stroke-linecap="round" stroke-linejoin="round"/>
</svg>
