<svg width="21" height="20" viewBox="0 0 21 20" fill="none" xmlns="http://www.w3.org/2000/svg">
<path d="M5.5 16.6665V18.3332M15.5 16.6665V18.3332" stroke="#A1A2A7" stroke-width="1.25" stroke-linecap="round" stroke-linejoin="round"/>
<path d="M3 11.6665V6.6665C3 4.30948 3 3.13097 3.77531 2.39874C4.55061 1.6665 5.79845 1.6665 8.29412 1.6665H12.7059C15.2016 1.6665 16.4494 1.6665 17.2247 2.39874C18 3.13097 18 4.30948 18 6.6665V11.6665C18 14.0235 18 15.202 17.2247 15.9343C16.4494 16.6665 15.2016 16.6665 12.7059 16.6665H8.29412C5.79845 16.6665 4.55061 16.6665 3.77531 15.9343C3 15.202 3 14.0235 3 11.6665Z" stroke="#A1A2A7" stroke-width="1.25" stroke-linecap="round" stroke-linejoin="round"/>
<path d="M10.5 16.6665V1.6665" stroke="#A1A2A7" stroke-width="1.25" stroke-linecap="round" stroke-linejoin="round"/>
<path d="M3 11.6665H10.5" stroke="#A1A2A7" stroke-width="1.25" stroke-linecap="round" stroke-linejoin="round"/>
<path d="M3 6.6665H10.5" stroke="#A1A2A7" stroke-width="1.25" stroke-linecap="round" stroke-linejoin="round"/>
<path d="M13 9.58333V8.75" stroke="#A1A2A7" stroke-width="1.25" stroke-linecap="round" stroke-linejoin="round"/>
</svg>
