<svg width="40" height="90" viewBox="0 0 40 90" fill="none" xmlns="http://www.w3.org/2000/svg">
<g clip-path="url(#clip0_46_3553)">
<path d="M19.9988 58.2724C31.0438 58.2724 39.9976 48.0201 39.9976 35.3733C39.9976 22.7264 31.0438 12.4741 19.9988 12.4741C8.95376 12.4741 0 22.7264 0 35.3733C0 48.0201 8.95376 58.2724 19.9988 58.2724Z" fill="#D33964"/>
<path d="M19.8702 3.68689C19.8702 3.68689 21.1489 2.97297 22.2069 4.00717C23.2624 5.04138 24.9997 8.62563 24.0946 10.2588C23.1896 11.892 21.8574 12.738 21.8574 12.738C21.8574 12.738 21.2508 14.2367 22.5417 15.0093C23.8301 15.7819 27.7513 16.6083 29.0786 17.7061C30.4058 18.8038 31.226 22.261 31.0925 24.4272C30.9591 26.5934 30.7819 29.6886 30.8863 30.7693C30.993 31.8499 31.5778 33.7203 31.5778 36.4342C31.5778 39.148 31.8253 43.7127 31.9393 44.8936C32.0534 46.0745 32.7085 48.3312 32.4853 49.5096C32.2621 50.6881 31.0852 51.5902 30.7941 51.8763C30.5029 52.1623 29.4886 52.6244 29.5566 51.9912C29.5566 51.7809 30.6485 51.0083 30.6485 51.0083C30.6485 51.0083 30.5878 49.2504 30.5005 49.1526C30.4131 49.0548 30.3282 49.1429 30.3282 49.1429L30.1559 50.5414C30.1559 50.5414 30.0783 50.9912 29.7968 51.0548C29.5153 51.1184 29.4935 50.5365 29.5396 50.1428C29.5857 49.7517 29.6876 48.2774 29.6876 47.5243C29.6876 46.7713 29.7507 46.2627 29.9302 45.6955C30.1074 45.1283 30.0346 43.1748 29.7944 41.879C29.5566 40.5856 28.1735 35.2679 27.9794 34.2215C27.7853 33.1751 27.6567 31.5761 27.5645 30.9282C27.4722 30.2803 27.1762 29.5297 27.1762 29.5297C27.1762 29.5297 26.7856 30.9698 26.936 31.9062C27.0864 32.845 28.6272 39.5539 28.9791 40.8032C29.3309 42.0526 29.4207 48.2382 28.239 53.3261C27.0573 58.414 26.4313 61.4726 26.4313 63.7708C26.4313 66.0715 26.5211 69.7976 26.2639 72.2254C26.0067 74.6532 24.6018 80.3352 24.495 82.8266C24.3882 85.3179 24.8347 87.0758 24.9851 87.3203C25.1356 87.5648 26.111 88.3227 25.6015 89.0587C25.0919 89.797 24.1698 89.6992 24.0146 89.7555C23.8593 89.8117 23.1143 89.3154 23.1143 89.3154C23.1143 89.3154 23.3182 89.8264 22.7601 89.9657C22.202 90.1051 21.3988 89.7506 21.4571 89.176C21.5153 88.6039 21.7361 86.9047 21.8113 86.1614C21.889 85.4182 22.1195 81.4721 22.0491 79.8755C21.9788 78.279 21.5517 73.1178 21.5517 71.3183C21.5517 69.5189 22.0977 68.5115 21.7167 66.6803C21.3382 64.8491 21.0373 62.4481 21.0373 60.1352C21.0373 57.8223 20.7389 49.5365 20.5278 48.1991L19.9964 48.0818L19.465 48.1991C19.2539 49.5341 18.9554 57.8223 18.9554 60.1352C18.9554 62.4481 18.657 64.8466 18.276 66.6803C17.8951 68.514 18.441 69.5189 18.441 71.3183C18.441 73.1178 18.0139 78.2814 17.9436 79.8755C17.8732 81.4721 18.1037 85.4157 18.1814 86.1614C18.259 86.9047 18.4774 88.6039 18.5356 89.176C18.5939 89.7481 17.7907 90.1026 17.2326 89.9657C16.6746 89.8264 16.8784 89.3154 16.8784 89.3154C16.8784 89.3154 16.1335 89.8117 15.9782 89.7555C15.8229 89.6992 14.9008 89.797 14.3913 89.0587C13.8817 88.3203 14.8571 87.5624 15.0076 87.3203C15.158 87.0758 15.6045 85.3155 15.4977 82.8266C15.391 80.3352 13.986 74.6556 13.7288 72.2254C13.4716 69.7976 13.5614 66.0715 13.5614 63.7708C13.5614 61.4702 12.9354 58.4116 11.7537 53.3261C10.572 48.2382 10.6618 42.0526 11.0136 40.8032C11.3655 39.5539 12.9063 32.845 13.0567 31.9062C13.2072 30.9673 12.8165 29.5297 12.8165 29.5297C12.8165 29.5297 12.5205 30.2803 12.4283 30.9282C12.3361 31.5761 12.2075 33.1751 12.0133 34.2215C11.8192 35.2679 10.4362 40.5832 10.1984 41.879C9.96057 43.1748 9.88535 45.1283 10.0625 45.6955C10.2396 46.2627 10.3051 46.7713 10.3051 47.5243C10.3051 48.2774 10.4095 49.7492 10.4531 50.1428C10.4992 50.534 10.4774 51.1159 10.1959 51.0548C9.91447 50.9912 9.7616 49.4094 9.7616 49.4094L9.66697 49.1942C9.66697 49.1942 9.58447 49.1062 9.49469 49.204C9.40734 49.3018 9.52866 50.8959 9.52866 50.8959C9.52866 50.8959 10.0576 51.49 10.1231 52.1232C10.1911 52.7565 9.48498 52.1623 9.19381 51.8763C8.90264 51.5902 7.72581 50.6881 7.50258 49.5096C7.27934 48.3312 7.93448 46.0745 8.04853 44.8936C8.16257 43.7127 8.41007 39.148 8.41007 36.4342C8.41007 33.7203 8.99484 31.8499 9.10161 30.7693C9.20837 29.6886 9.02881 26.5934 8.89536 24.4272C8.7619 22.261 9.58447 18.8038 10.9093 17.7061C12.2366 16.6083 16.1577 15.7819 17.4462 15.0093C18.7346 14.2367 18.1304 12.738 18.1304 12.738C18.1304 12.738 16.7983 11.8896 15.8932 10.2588C14.9882 8.62563 16.7255 5.04138 17.781 4.00717C18.8486 2.97297 19.8702 3.68689 19.8702 3.68689Z" fill="#FAC3C5"/>
<path d="M8.8735 51.6369C8.84924 51.6369 8.8274 51.6246 8.81769 51.6002C8.42461 50.7225 8.32512 49.5073 8.57019 48.5758C8.57747 48.544 8.61144 48.5245 8.64541 48.5318C8.67696 48.5416 8.69637 48.5734 8.68909 48.6076C8.45615 49.5 8.55564 50.7102 8.93173 51.5513C8.94629 51.5831 8.93173 51.6173 8.90019 51.632C8.89048 51.6369 8.88078 51.6369 8.8735 51.6369Z" fill="black"/>
<path d="M7.99512 50.6587C7.966 50.6587 7.94173 50.6392 7.93688 50.6098C7.82769 50.0817 7.78402 49.3214 7.93931 48.8153C7.94901 48.7835 7.98298 48.7639 8.01453 48.7761C8.04607 48.7859 8.06548 48.8201 8.05578 48.8519C7.90776 49.3385 7.94901 50.0744 8.05578 50.5854C8.06306 50.6196 8.04122 50.6514 8.00967 50.6587C8.00239 50.6587 7.99754 50.6587 7.99512 50.6587Z" fill="black"/>
<path d="M30.9833 51.681C30.9687 51.681 30.9566 51.6761 30.9444 51.6664C30.9178 51.6444 30.9153 51.6052 30.9372 51.5808C31.5074 50.8987 31.8034 49.9989 31.7525 49.1114C31.75 49.0772 31.7767 49.0479 31.8083 49.0479C31.8398 49.0479 31.8713 49.0723 31.8713 49.1065C31.9247 50.0258 31.6166 50.9573 31.0294 51.6639C31.0172 51.6737 31.0003 51.681 30.9833 51.681Z" fill="black"/>
<path d="M32.3736 49.7663C32.3688 49.7663 32.3663 49.7663 32.3615 49.7663C32.3275 49.759 32.3081 49.7272 32.313 49.6954C32.3663 49.4265 32.3494 49.1453 32.262 48.8837C32.2523 48.8519 32.2693 48.8177 32.3008 48.8055C32.3324 48.7957 32.3663 48.8128 32.3785 48.8446C32.4707 49.1258 32.4901 49.4265 32.4343 49.7174C32.427 49.7468 32.4027 49.7663 32.3736 49.7663Z" fill="black"/>
<path d="M28.0109 23.3831C27.909 21.2902 27.5208 18.8258 27.1155 16.7256C26.5623 16.5129 25.9654 16.3124 25.3806 16.1192C25.286 16.7525 25.0021 17.4957 24.8007 18.0629C24.7303 18.2585 24.6503 18.4541 24.5192 18.613C24.3033 18.8698 23.9757 18.9993 23.6627 19.1167C22.7649 19.4565 21.8696 19.7939 20.9718 20.1338C20.6272 20.2634 20.5059 20.3269 20.1395 20.2756C19.7731 20.3269 19.3679 20.2634 19.0233 20.1338C18.1256 19.7939 17.2302 19.4565 16.3324 19.1167C16.0194 18.9993 15.6918 18.8698 15.4759 18.613C15.3424 18.4541 15.2623 18.2585 15.1944 18.0629C14.993 17.4933 14.8596 16.7011 14.7989 16.0581C14.1583 16.2708 13.4935 16.4933 12.882 16.7256C12.4768 18.8282 12.0886 21.2927 11.9866 23.3831C11.8799 25.6006 11.9721 27.5028 12.8189 29.5541C12.8189 29.5541 13.2096 30.9941 13.0591 31.9305C12.9257 32.7594 11.7125 38.0795 11.1859 40.1773C11.8969 40.9596 12.7485 41.6002 13.5687 42.2701C15.7476 44.05 17.7252 46.0817 19.4552 48.3066C19.4601 48.2773 19.4625 48.2479 19.4674 48.2235L19.9988 48.1061L20.5302 48.2235C20.535 48.2479 20.5374 48.2773 20.5423 48.3066C22.2724 46.0793 24.2499 44.05 26.4289 42.2701C27.249 41.6002 28.1007 40.9572 28.8116 40.1773C28.2875 38.0795 27.0719 32.7594 26.9384 31.9305C26.788 30.9917 27.1786 29.5541 27.1786 29.5541C28.0255 27.5028 28.1177 25.6006 28.0109 23.3831Z" fill="#4E101E"/>
<path d="M26.4968 7.17314C26.3634 7.09001 26.2105 7.01422 26.0552 6.96776C26.1862 6.86263 26.2493 6.70127 26.1935 6.54235C26.4119 6.26363 26.3221 5.79176 25.9873 5.73063C26.0649 5.52526 26.276 5.40546 26.344 5.19764C26.8462 5.05584 26.8147 4.3737 26.5793 3.99474C26.3051 3.54976 25.6937 3.36151 25.172 3.43241C25.4583 3.1708 25.7665 2.84807 25.4874 2.47155C25.2351 2.13171 24.8153 2.21484 24.4804 2.39332C24.5362 1.88477 24.3737 1.34689 23.8738 1.12196C23.4371 0.923919 22.7965 0.963038 22.4325 1.31511C22.401 1.07061 22.3524 0.828567 22.2263 0.615859C22.2166 0.60119 22.202 0.58652 22.185 0.574295C22.1608 -0.176295 21.0373 -0.0931681 20.5278 0.271125C20.3482 0.0779764 20.0861 0.058417 19.8314 0.195333C19.6057 0.317579 19.3485 0.564516 19.2612 0.826122C19.249 0.796783 19.2223 0.772334 19.1811 0.760109C18.9481 0.701431 18.7031 0.657423 18.4823 0.757665C18.1692 0.503393 17.7373 0.366477 17.3443 0.505838C16.9002 0.662313 16.7352 1.09262 16.7862 1.53759C16.7886 1.56204 16.7959 1.57916 16.8056 1.59872C16.774 1.59383 16.7425 1.60361 16.7134 1.62561C16.5581 1.75275 16.3324 1.78453 16.1407 1.81387C15.9127 1.8481 15.6797 1.86277 15.4565 1.919C15.2575 1.9679 15.0585 2.05347 14.9324 2.22217C14.8086 2.38843 14.7916 2.58402 14.8062 2.77961C14.6558 2.85052 14.5563 2.98743 14.515 3.16102C14.4689 3.35173 14.5005 3.57666 14.4155 3.75758C14.3185 3.96051 14.1195 4.09009 14.0346 4.30036C13.9472 4.51551 14.0273 4.72577 14.185 4.87491C13.673 5.23187 13.4086 6.2294 13.8599 6.72572C13.6342 6.97265 13.6658 7.3345 13.6876 7.66946C13.5372 7.72569 13.4789 7.8675 13.4547 8.05331C13.4158 8.31981 13.2169 8.51785 13.1683 8.77945C13.0858 9.22443 13.4522 9.75009 13.9133 9.71097C13.9133 9.85277 13.9327 9.99213 14.0127 10.1144C14.0686 10.1975 14.1462 10.2611 14.2263 10.3198C14.1341 10.442 14.0564 10.574 14.0346 10.7256C14.0055 10.9139 14.0855 11.085 14.2141 11.2195C14.5272 11.5471 14.9324 11.5984 15.3327 11.4738C15.3618 11.53 15.4031 11.5789 15.4541 11.6156C15.3643 11.9187 15.408 12.2317 15.6773 12.4468C15.869 12.6009 16.1407 12.662 16.3446 12.5471C16.3931 12.6204 16.4562 12.6815 16.529 12.7182C16.4174 13.1828 17.1162 13.6497 17.4534 13.3539C17.6282 13.5079 17.8684 13.5593 18.0843 13.4101C18.2008 13.3295 18.2857 13.2121 18.3294 13.0776C18.3706 12.948 18.3803 12.7231 18.2663 12.6253C18.2445 12.6082 18.2178 12.6009 18.1887 12.596C17.8975 12.2219 17.4753 11.9799 17.2011 11.5936C16.9148 11.1901 16.876 10.6425 16.8735 10.1633C16.8735 10.1046 16.8396 10.0679 16.7983 10.0508C16.7668 9.99947 16.7061 9.97746 16.6454 9.98724C16.643 9.98724 16.643 9.98724 16.6406 9.98724C16.6357 9.98724 16.6309 9.98724 16.626 9.98724C16.6212 9.98724 16.6018 9.9848 16.5993 9.98724C16.5872 9.9848 16.5751 9.98235 16.5654 9.97991C16.5581 9.97746 16.5532 9.97502 16.546 9.97502C16.5435 9.97502 16.5411 9.97257 16.5411 9.97257C16.5411 9.97257 16.5411 9.97257 16.5387 9.97013C16.4732 9.93834 16.4489 9.91634 16.3979 9.86255C16.296 9.75987 16.2208 9.6254 16.1553 9.48848C16.1019 9.37601 16.0534 9.24154 16.0315 9.10707C16.0315 9.10463 16.0315 9.10463 16.0315 9.10218C16.0315 9.09974 16.0315 9.09974 16.0315 9.09485C16.0315 9.0704 16.0291 9.04839 16.0291 9.02394C16.0291 8.98483 16.0315 8.94326 16.0388 8.90414C16.0534 8.83568 16.0777 8.77701 16.1189 8.73789C16.1238 8.73544 16.1213 8.73544 16.1213 8.733C16.1286 8.72811 16.1359 8.72322 16.1456 8.71833C16.1674 8.7061 16.1504 8.71344 16.1747 8.7061C16.2038 8.69877 16.2232 8.69632 16.2548 8.70121C16.3349 8.71344 16.4198 8.7819 16.4926 8.83569C16.5581 8.88703 16.6333 8.85035 16.6721 8.79168C16.6746 8.79168 16.677 8.79168 16.6794 8.78923C16.7668 8.73789 16.7498 8.61564 16.7328 8.53007C16.7207 8.47384 16.7012 8.4176 16.6915 8.35893C16.6915 8.36382 16.694 8.36871 16.694 8.3736C16.6915 8.35648 16.6867 8.33937 16.6794 8.3247C16.6309 7.95551 16.6746 7.59855 16.7959 7.2416C16.9269 6.8553 17.0021 6.47389 16.9609 6.06314C17.1817 6.11204 17.3952 6.05336 17.5214 5.85288C17.6136 5.70863 17.6427 5.52771 17.6379 5.35412C17.9023 5.29299 18.0164 4.97271 18.0212 4.6891C18.1741 4.69399 18.3245 4.63775 18.4265 4.52529C18.4289 4.52773 18.4313 4.53018 18.4362 4.53262C18.4968 4.56441 18.5551 4.58641 18.6157 4.60108C18.5793 4.73555 18.6109 4.88714 18.6958 5.00449C18.8026 5.15119 18.9627 5.22454 19.1253 5.20498C19.2199 5.41769 19.4286 5.55216 19.6761 5.55949C19.926 5.56682 20.2293 5.44458 20.3142 5.18786C20.3555 5.06562 20.3288 4.94826 20.2706 4.84313C20.3555 4.70377 20.3943 4.53262 20.3555 4.37859C20.4695 4.42505 20.5787 4.45928 20.6952 4.47883C20.6394 4.75267 20.882 4.98738 21.1295 5.12918C21.0786 5.24899 21.0519 5.37612 21.0931 5.50326C21.1538 5.68663 21.3455 5.82354 21.5153 5.89444C21.6682 5.96046 21.8477 5.96535 21.9788 5.85288C22.0977 5.75264 22.1413 5.60105 22.1535 5.45191C22.3015 5.37123 22.3743 5.20253 22.4131 5.02894C22.4471 5.21231 22.5684 5.36634 22.7528 5.42013C22.7698 5.60105 22.8911 5.75508 23.0658 5.75264C23.1216 5.99958 23.209 6.27341 23.3861 6.45189C23.4225 6.48856 23.4662 6.5179 23.5074 6.54479C23.5341 6.56435 23.6215 6.60592 23.6312 6.6377C23.6336 6.64748 23.5754 6.76728 23.5705 6.7844C23.5487 6.85041 23.5414 6.92131 23.5341 6.98977C23.471 7.67679 23.4904 8.38582 23.5341 9.07284C23.5414 9.18286 23.653 9.25621 23.7525 9.19998C23.8423 9.14864 23.9854 9.06551 24.0898 9.12908C24.1699 9.17553 24.1917 9.29044 24.199 9.37357C24.2208 9.59117 24.1553 9.7892 24.0558 9.97257C23.966 10.1413 23.5123 10.9579 23.2527 10.7036C23.141 10.5936 22.9833 10.7207 23.0124 10.8405C23.0124 10.843 23.01 10.843 23.01 10.8454C22.9275 11.1559 22.9081 11.4909 22.7577 11.7769C22.5878 12.0997 22.3088 12.2904 22.02 12.4957C21.9788 12.5251 21.9666 12.5666 21.9691 12.6058C21.9278 12.6229 21.8987 12.6595 21.9036 12.7207C21.9133 12.8649 21.8696 13.0067 21.8817 13.151C21.8963 13.3172 22.0006 13.4321 22.1583 13.4786C22.3355 13.5299 22.5466 13.5177 22.6897 13.3906C22.7892 13.3026 22.8426 13.1803 22.9008 13.0605C22.9906 13.1143 23.0707 13.1876 23.1629 13.2365C23.2891 13.305 23.4225 13.3368 23.5657 13.3172C23.7185 13.2977 23.8787 13.2219 23.9757 13.1021C24.0898 13.1485 24.2329 13.1461 24.3494 13.0996C24.512 13.0336 24.6721 12.8429 24.7061 12.6498C24.7085 12.6498 24.7085 12.6522 24.711 12.6522C25.1089 12.7867 25.8708 12.2561 25.6306 11.8772C25.7737 11.7378 25.8708 11.5178 25.9072 11.3442C25.9484 11.1437 25.9193 10.9505 25.8004 10.8038C26.0867 10.5007 26.2226 10.0117 26.0091 9.6474C26.1523 9.49581 26.2736 9.30755 26.2809 9.0924C26.2857 8.89436 26.1814 8.74278 26.0382 8.62787C26.0965 8.56674 26.1474 8.49584 26.1741 8.41027C26.1959 8.34181 26.1814 8.30269 26.2493 8.2758C26.3076 8.25379 26.3852 8.26602 26.4459 8.25624C26.7055 8.21468 26.9093 7.95062 26.8948 7.68413C26.8705 7.45919 26.6812 7.28805 26.4968 7.17314Z" fill="black"/>
<path d="M20.7412 7.45199C20.7243 7.45199 20.7097 7.44465 20.6976 7.43243C20.6733 7.40798 20.6757 7.36886 20.7 7.34685C20.9669 7.09014 21.343 7.01923 21.6099 7.00212C21.9423 6.98256 22.1898 7.05591 22.35 7.21483C22.3742 7.23928 22.3742 7.2784 22.35 7.3004C22.3257 7.32485 22.2869 7.32485 22.2651 7.3004C22.1292 7.16593 21.9132 7.10481 21.6172 7.12192C21.3697 7.13659 21.0251 7.2026 20.7849 7.43243C20.7728 7.44465 20.7558 7.45199 20.7412 7.45199Z" fill="black"/>
<path d="M19.2805 7.40535C19.2563 7.40535 19.2344 7.39068 19.2247 7.36867C19.1908 7.28554 19.1277 7.21464 19.0525 7.16819C18.9942 7.13151 18.919 7.10462 18.822 7.08506C18.4725 7.01416 18.0989 7.08506 17.7956 7.27576C17.7664 7.29532 17.73 7.28554 17.7131 7.2562C17.6961 7.22687 17.7034 7.19019 17.7325 7.17308C18.06 6.96526 18.4653 6.88947 18.8462 6.96526C18.9578 6.98726 19.0452 7.01905 19.1156 7.0655C19.2126 7.12662 19.2903 7.21709 19.3339 7.32222C19.3461 7.354 19.3339 7.38823 19.3024 7.4029C19.2951 7.40534 19.2878 7.40535 19.2805 7.40535Z" fill="black"/>
<path d="M20.1031 9.86265C19.9745 9.86265 19.8508 9.79175 19.778 9.67928C19.7052 9.71351 19.6154 9.70618 19.545 9.6695C19.4917 9.64017 19.4553 9.60105 19.4383 9.55459C19.4043 9.46658 19.448 9.38834 19.4844 9.31744C19.5038 9.28321 19.5208 9.25142 19.5281 9.21964C19.5353 9.18786 19.5669 9.16585 19.6008 9.17563C19.6324 9.18297 19.6542 9.21719 19.6445 9.24898C19.6324 9.29543 19.6106 9.337 19.5887 9.37611C19.5547 9.43724 19.5378 9.47636 19.5499 9.51059C19.5572 9.5277 19.5742 9.54726 19.6008 9.55948C19.6469 9.58393 19.7173 9.58638 19.7464 9.54726C19.7586 9.53014 19.7804 9.52036 19.8022 9.52281C19.8241 9.52525 19.8435 9.53992 19.8508 9.56193C19.892 9.66706 20.0061 9.74041 20.1055 9.73796C20.2123 9.73552 20.3142 9.64995 20.3288 9.54726C20.3336 9.52036 20.353 9.50081 20.3797 9.49592C20.4089 9.49347 20.4331 9.5057 20.4428 9.53014C20.4622 9.57171 20.5083 9.60349 20.5544 9.61083C20.6005 9.61572 20.6515 9.59371 20.6806 9.55704C20.7219 9.50081 20.7194 9.42257 20.7 9.36633C20.6758 9.29299 20.6224 9.22453 20.5739 9.1683C20.552 9.1414 20.5544 9.10473 20.5811 9.08272C20.6054 9.06072 20.6442 9.06316 20.6661 9.09006C20.7219 9.15607 20.7825 9.23186 20.8141 9.32722C20.8505 9.43724 20.8359 9.55215 20.7752 9.63039C20.7219 9.70129 20.6272 9.74041 20.5399 9.73063C20.4914 9.72574 20.4453 9.70618 20.4089 9.67684C20.3482 9.78197 20.2317 9.85532 20.108 9.86021C20.108 9.86265 20.1055 9.86265 20.1031 9.86265Z" fill="black"/>
<path d="M20.0036 11.4149C19.6979 11.4149 19.3946 11.3538 19.1156 11.2266C18.9651 11.1582 18.8875 11.075 18.8754 10.9699C18.8729 10.9357 18.8972 10.9063 18.9287 10.9039C18.9603 10.899 18.9918 10.9259 18.9942 10.9577C18.9991 11.0139 19.0573 11.0677 19.1641 11.1166C19.8168 11.4124 20.6175 11.3342 21.2047 10.9186C21.2314 10.899 21.2703 10.9063 21.2897 10.9332C21.3091 10.9601 21.3018 10.9992 21.2751 11.0188C20.9039 11.278 20.455 11.4149 20.0036 11.4149Z" fill="black"/>
<path d="M21.656 8.67685C21.7673 8.67685 21.8574 8.586 21.8574 8.47392C21.8574 8.36185 21.7673 8.271 21.656 8.271C21.5448 8.271 21.4547 8.36185 21.4547 8.47392C21.4547 8.586 21.5448 8.67685 21.656 8.67685Z" fill="black"/>
<path d="M18.6327 8.67685C18.7439 8.67685 18.8341 8.586 18.8341 8.47392C18.8341 8.36185 18.7439 8.271 18.6327 8.271C18.5214 8.271 18.4313 8.36185 18.4313 8.47392C18.4313 8.586 18.5214 8.67685 18.6327 8.67685Z" fill="black"/>
<path d="M18.259 12.6206C18.259 12.6206 19.7319 14.1169 21.9618 12.606C21.9618 12.606 19.7319 15.7477 18.259 12.6206Z" fill="black"/>
<path d="M24.148 89.7087C24.1286 89.7087 24.1067 89.6989 24.097 89.6793C24.08 89.65 24.0873 89.6133 24.1164 89.5962C24.1771 89.5595 24.1989 89.4984 24.2086 89.4544C24.2281 89.3639 24.2062 89.2612 24.1528 89.1854C24.0534 89.0412 23.8786 88.963 23.7258 88.8921C23.6942 88.8774 23.6821 88.8407 23.6967 88.8114C23.7112 88.7796 23.7476 88.7674 23.7767 88.782C23.9369 88.8554 24.1358 88.9458 24.2523 89.1194C24.3227 89.2221 24.3518 89.3615 24.3251 89.4837C24.3057 89.5791 24.2523 89.6573 24.1771 89.7038C24.1698 89.7062 24.1577 89.7087 24.148 89.7087Z" fill="black"/>
<path d="M25.0919 89.5105C25.0894 89.5105 25.0894 89.5105 25.087 89.5105C25.053 89.5081 25.0288 89.4787 25.0312 89.4445C25.0555 89.1144 24.8031 88.7893 24.478 88.7355C24.444 88.7306 24.4222 88.6988 24.427 88.6646C24.4319 88.6303 24.4658 88.6083 24.4974 88.6157C24.8807 88.6817 25.1792 89.0655 25.1501 89.4543C25.1501 89.4861 25.1234 89.5105 25.0919 89.5105Z" fill="black"/>
<path d="M25.5408 88.9924C25.5359 88.9924 25.5311 88.9924 25.5262 88.99C25.4947 88.9826 25.4728 88.9484 25.4826 88.9166C25.5408 88.6819 25.3806 88.4056 25.1477 88.3396C25.1162 88.3298 25.0967 88.2981 25.1065 88.2638C25.1162 88.232 25.1477 88.2125 25.1817 88.2223C25.4777 88.3054 25.6742 88.6428 25.6015 88.946C25.5917 88.9753 25.5675 88.9924 25.5408 88.9924Z" fill="black"/>
<path d="M22.68 89.5228C22.6776 89.5228 22.6727 89.5228 22.6703 89.5228L21.9763 89.4152C21.9423 89.4103 21.9205 89.3785 21.9254 89.3443C21.9302 89.3101 21.9618 89.2881 21.9957 89.293L22.6484 89.3932C22.6873 89.3052 22.68 89.1952 22.6217 89.1194C22.5562 89.0314 22.4349 88.9922 22.3306 89.0265C22.299 89.0363 22.2651 89.0191 22.2554 88.9874C22.2456 88.9556 22.2626 88.9213 22.2942 88.9091C22.4446 88.8602 22.6242 88.9165 22.7188 89.0436C22.8134 89.1707 22.8207 89.359 22.7334 89.4935C22.7188 89.513 22.6994 89.5228 22.68 89.5228Z" fill="black"/>
<path d="M15.9272 89.7088C15.9175 89.7088 15.9054 89.7063 15.8957 89.699C15.8205 89.6525 15.7671 89.5743 15.7477 89.4789C15.7234 89.3567 15.7501 89.2173 15.8205 89.1146C15.9369 88.9435 16.1359 88.8506 16.296 88.7772C16.3276 88.7626 16.3615 88.7772 16.3761 88.8066C16.3907 88.8384 16.3761 88.8726 16.347 88.8873C16.1941 88.9582 16.0194 89.0389 15.9199 89.1807C15.8666 89.2564 15.8471 89.3616 15.8641 89.4496C15.8738 89.4936 15.8981 89.5547 15.9563 89.5914C15.9855 89.6085 15.9927 89.6476 15.9757 89.6745C15.966 89.699 15.9466 89.7088 15.9272 89.7088Z" fill="black"/>
<path d="M14.9833 89.5109C14.9518 89.5109 14.9251 89.4864 14.9227 89.4547C14.8935 89.0659 15.1944 88.6796 15.5754 88.6161C15.6069 88.6087 15.6409 88.6332 15.6457 88.665C15.6506 88.6992 15.6288 88.731 15.5948 88.7359C15.2721 88.7921 15.0173 89.1148 15.0416 89.4449C15.044 89.4791 15.0197 89.5084 14.9858 89.5109H14.9833Z" fill="black"/>
<path d="M14.5344 88.9924C14.5077 88.9924 14.4835 88.9728 14.4762 88.946C14.4034 88.6452 14.6 88.3078 14.896 88.2223C14.9275 88.2125 14.9615 88.232 14.9712 88.2638C14.9809 88.2956 14.9615 88.3298 14.9299 88.3396C14.697 88.4056 14.5393 88.6795 14.5951 88.9166C14.6024 88.9484 14.583 88.9826 14.5514 88.99C14.5441 88.9924 14.5393 88.9924 14.5344 88.9924Z" fill="black"/>
<path d="M17.3952 89.5228C17.3758 89.5228 17.3564 89.513 17.3443 89.4959C17.2569 89.3639 17.2618 89.1732 17.3589 89.046C17.4535 88.9189 17.633 88.8627 17.7835 88.9116C17.815 88.9213 17.832 88.9556 17.8223 88.9873C17.8126 89.0191 17.7786 89.0387 17.7471 89.0265C17.6427 88.9922 17.5214 89.0314 17.4559 89.1194C17.3977 89.1976 17.388 89.3076 17.4292 89.3932L18.0819 89.293C18.1159 89.2881 18.145 89.3101 18.1523 89.3443C18.1572 89.3785 18.1353 89.4079 18.1013 89.4152L17.4074 89.5228C17.4001 89.5228 17.3977 89.5228 17.3952 89.5228Z" fill="black"/>
</g>
<defs>
<clipPath id="clip0_46_3553">
<rect width="40" height="90" fill="white"/>
</clipPath>
</defs>
</svg>
