<svg width="33" height="90" viewBox="0 0 33 90" fill="none" xmlns="http://www.w3.org/2000/svg">
<g clip-path="url(#clip0_46_3428)">
<path d="M29.6255 67.0215C20.133 73.0671 12.024 73.0946 2.49026 67.0215C0.407794 65.5033 -0.516938 62.376 0.286438 60.5441C5.7426 46.8715 12.5555 36.8679 0.286438 20.31C-0.516938 18.4754 0.407794 15.3481 2.49026 13.8326C12.024 7.75951 20.1306 7.78701 29.6255 13.8326C31.7079 15.3509 32.6326 18.4782 31.8293 20.31C17.2908 39.4754 26.3731 46.8715 31.8293 60.5441C32.6326 62.376 31.7079 65.5033 29.6255 67.0215Z" fill="#D33964"/>
<path d="M15.138 16.0355C14.9341 16.228 14.6817 16.4343 14.4244 16.3518C14.3492 16.327 14.2812 16.2803 14.206 16.272C14.0555 16.2528 13.9269 16.3793 13.7861 16.4398C13.4148 16.6021 13.007 16.305 12.6138 16.349C12.4779 16.3628 12.3444 16.4206 12.2085 16.4068C12.0726 16.3958 11.9269 16.2803 11.9342 16.1263C11.4682 16.5636 10.7304 16.4123 10.2668 15.9695C10.1915 15.898 10.1163 15.8155 10.0216 15.7824C9.90028 15.7412 9.76922 15.7879 9.64301 15.8017C9.27894 15.843 8.90516 15.5762 8.77895 15.1856C8.73769 15.0591 8.71585 14.9105 8.62119 14.8308C8.54352 14.762 8.43673 14.7593 8.33722 14.7483C7.52899 14.6465 6.92706 13.5958 7.1989 12.8229C6.45377 12.2206 6.11155 11.0461 6.39795 10.0587C6.45377 9.86339 6.53144 9.67911 6.57998 9.48108C6.65523 9.16202 6.64794 8.82646 6.68192 8.49915C6.80571 7.27793 7.47074 6.2245 8.13577 5.24807C9.08963 3.84808 10.0969 2.46458 11.3638 1.4304C11.8444 1.03983 12.3565 0.704267 12.8856 0.409965C13.2084 0.231183 13.5482 0.066154 13.905 0.060653C14.2642 0.0524016 14.6453 0.239435 14.6356 1.00682C15.0045 0.222932 15.8928 -0.0961248 16.6695 0.0248967C17.4462 0.145918 18.1428 0.613501 18.8151 1.07283C19.2374 1.36163 19.6646 1.65319 20.0092 2.05476C20.4607 2.5801 20.7447 3.25397 21.0942 3.87008C21.5553 4.68147 22.1402 5.3966 22.5941 6.2135C23.048 7.03039 23.3756 7.99856 23.1863 9.15377C23.8247 9.29954 24.2373 10.1825 23.9873 10.8646C23.9509 10.9663 23.8999 11.0654 23.895 11.1754C23.8902 11.2799 23.9266 11.3762 23.9533 11.4752C24.0819 11.9703 23.912 12.5451 23.548 12.8532C23.7616 13.461 23.4679 14.2339 22.9339 14.4787C22.7834 14.5475 22.6135 14.5832 22.497 14.707C22.4121 14.7978 22.366 14.9243 22.3004 15.0371C22.0723 15.4304 21.5869 15.6009 21.2034 15.4194C20.8053 16.0657 19.9922 16.3325 19.3515 16.03C19.252 15.9832 19.1525 15.9227 19.0457 15.9365C18.9607 15.9475 18.8855 16.0025 18.8102 16.0437C18.3855 16.2885 17.8224 16.1813 17.4923 15.7934C16.8176 16.3958 15.8394 16.5113 15.138 16.0355Z" fill="#2C2F34"/>
<path d="M15.1234 54.7653C15.2569 54.6966 15.4195 54.7158 15.5385 54.8121C15.5749 55.574 15.6574 56.4926 15.7326 57.4085C15.9147 59.6639 16.0287 61.9276 16.0797 64.1913C16.138 66.8757 16.1064 69.5712 16.3685 72.2419C16.4923 73.3614 16.6525 74.5413 16.6962 75.7268C16.7812 78.0895 16.4074 80.4494 16.4632 82.8148C16.5045 83.2879 16.5773 83.871 16.6501 84.4514C16.854 86.0879 17.0578 87.7244 17.1695 89.372C17.3078 91.4156 17.3054 93.4729 17.1574 95.5193C17.2302 96.8175 16.4147 98.2671 16.7812 99.6533C16.8491 99.9118 16.9583 100.157 17.0093 100.418C17.0748 100.751 17.0457 101.106 17.1307 101.433C17.1792 101.625 17.2739 101.815 17.4268 101.914C17.7593 102.134 18.2083 101.815 18.3321 101.403C18.4146 101.716 18.7034 101.931 18.9971 101.98C19.2908 102.03 19.5869 101.944 19.8684 101.845C20.2713 101.705 20.7058 101.496 20.8806 101.062C21.0383 100.663 20.9291 100.195 20.7616 99.7991C20.4243 99.0069 19.8684 98.3303 19.6646 97.4804C19.8005 97.0541 19.8515 96.658 19.8442 96.2647C19.8345 95.8824 19.7689 95.5028 19.7617 95.1177C19.7544 94.7052 19.8126 94.2953 19.8733 93.8883C20.1621 91.9272 20.4582 89.9688 20.7592 88.0105C21.616 84.4128 22.2859 80.7629 22.0286 77.1158C21.9097 75.438 21.599 73.7299 21.9364 72.0907C22.1208 71.326 22.1038 70.5559 22.1329 69.7967C22.1766 68.6415 22.3247 67.4918 22.5771 66.3724C22.8053 65.3575 23.1159 64.37 23.3611 63.3606C23.8926 61.174 24.1159 58.9076 24.3368 56.6522C24.7251 54.4188 24.7858 52.2404 24.5892 50.0895C24.4023 48.0349 23.9848 46.016 23.5674 44.0054C23.3392 42.2534 22.6572 40.6773 21.9024 39.1783C21.6208 38.62 21.3223 38.0561 21.2106 37.4235C21.048 36.0455 21.6524 34.684 22.1354 33.3638C22.5844 32.1371 22.9388 30.8663 23.1936 29.5709C23.4339 29.8459 23.4776 30.3107 23.4994 30.7618C23.5989 32.7009 23.4072 34.6455 23.4339 36.5874C23.4582 38.4714 23.6887 40.3445 23.9169 42.2121C24.5576 44.7563 25.1256 47.4133 25.5867 50.0922C25.5989 50.5406 25.6013 51.1072 25.5285 51.6573C25.4848 51.9928 25.412 52.3229 25.3634 52.6585C25.2858 53.181 25.2639 53.7119 25.2421 54.2427C25.2105 55.0294 25.1766 55.816 25.145 56.6027C25.1401 56.7347 25.1353 56.875 25.1838 56.996C25.2348 57.117 25.3562 57.2105 25.4678 57.1665C25.6062 57.1142 25.7785 55.4777 25.9023 55.3924C25.9775 55.948 25.8901 58.0329 25.5236 58.4097C25.3756 58.5638 25.1741 58.649 25.0455 58.8223C24.9169 58.9983 24.9266 59.3339 25.1232 59.3889C24.9969 59.4962 25.077 59.7492 25.2251 59.8125C25.3732 59.8757 25.5382 59.8097 25.6814 59.7382C26.7008 59.2294 27.6037 58.319 27.9799 57.1308C28.1765 56.0278 28.0066 54.9524 27.8634 53.9017C27.3585 50.2188 27.1571 46.4836 27.2615 42.7567C27.3949 40.086 26.3925 37.605 26.4823 35.0608C26.5139 34.1834 26.6741 33.3198 26.759 32.4479C26.8974 31.0066 26.827 29.5516 26.7566 28.1048C26.861 26.8369 26.8076 25.5276 26.4872 24.2927C26.2736 23.4675 25.9411 22.6809 25.5091 21.9713C25.0528 21.2204 24.4775 20.552 23.7785 20.1009C23.3562 19.8286 22.8951 19.6388 22.4339 19.4628C20.6597 18.7807 18.7811 18.2141 17.354 16.8361C17.1646 16.495 17.1501 16.1017 17.1501 15.7331C17.1525 15.1913 17.1816 14.6522 17.2374 14.1159C18.3661 12.7076 18.8612 10.6475 18.5311 8.74966C18.2034 6.85182 17.0578 5.15752 15.5288 4.29937C15.3928 3.89505 15.2909 3.57599 15.1574 3.27344H15.2375C15.104 3.57599 15.0021 3.89505 14.8662 4.30487C13.3346 5.16027 12.1915 6.85457 11.8638 8.75516C11.5361 10.6557 12.0313 12.7131 13.1575 14.1214C13.2133 14.6577 13.2424 15.1996 13.2448 15.7387C13.2473 16.11 13.2303 16.5005 13.041 16.8416C11.6162 18.2196 9.73523 18.7889 7.961 19.4683C7.49985 19.6443 7.0387 19.8341 6.61638 20.1064C5.91737 20.5575 5.34214 21.2259 4.88584 21.9768C4.45381 22.6864 4.1213 23.4703 3.90771 24.2982C3.58733 25.5331 3.53394 26.8424 3.6383 28.1103C3.56792 29.5571 3.4951 31.0121 3.63588 32.4534C3.72082 33.3253 3.88102 34.1889 3.91257 35.0663C4.00237 37.6105 2.99754 40.0942 3.13346 42.7622C3.23783 46.4864 3.03638 50.2243 2.53154 53.9072C2.38834 54.9579 2.21844 56.0333 2.41503 57.1362C2.79367 58.3245 3.69413 59.2349 4.71352 59.7437C4.85914 59.8152 5.02176 59.8812 5.16981 59.818C5.31787 59.7547 5.39796 59.5017 5.27175 59.3944C5.46835 59.3421 5.47563 59.0038 5.34942 58.8278C5.22078 58.6518 5.01933 58.5665 4.87128 58.4152C4.50478 58.0357 4.36158 56.3606 4.43683 55.805C4.56304 55.8875 4.78876 57.1197 4.9271 57.172C5.03875 57.2133 5.16253 57.1197 5.21108 57.0015C5.26205 56.8805 5.25719 56.7429 5.24991 56.6082C5.21836 55.8215 5.18438 55.0349 5.15283 54.2482C5.13098 53.7174 5.10914 53.1865 5.03147 52.664C4.98293 52.3284 4.91011 51.9983 4.86642 51.6628C4.79361 51.1099 4.79847 50.5461 4.80817 50.0978C5.26933 47.416 5.83727 44.7618 6.47803 42.2176C6.70618 40.35 6.93676 38.4797 6.96103 36.5928C6.98773 34.651 6.79356 32.7064 6.8955 30.7673C6.91977 30.3162 6.96103 29.8514 7.20131 29.5764C7.45616 30.8718 7.81295 32.1426 8.25954 33.3693C8.74253 34.6868 9.34689 36.051 9.18427 37.429C9.07019 38.0589 8.77409 38.6227 8.49254 39.1838C7.73771 40.6828 7.05569 42.2589 6.82754 44.0109C6.41007 46.0215 5.99261 48.0404 5.80572 50.095C5.61155 52.2459 5.67223 54.4243 6.05814 56.6577C6.27901 58.9131 6.49988 61.1767 7.03384 63.3661C7.27898 64.3755 7.58965 65.363 7.8178 66.3779C8.07022 67.4973 8.21828 68.647 8.26196 69.8022C8.29109 70.5614 8.2741 71.3315 8.45856 72.0962C8.79836 73.7354 8.48526 75.4435 8.36633 77.1213C8.10906 80.7684 8.78137 84.4183 9.63571 88.016C9.93668 89.9743 10.2328 91.9327 10.5216 93.8938C10.5823 94.3008 10.6405 94.7107 10.6333 95.1232C10.626 95.5056 10.5604 95.8851 10.5507 96.2702C10.541 96.6635 10.5944 97.0596 10.7303 97.4859C10.5265 98.3358 9.97066 99.0124 9.63329 99.8046C9.46581 100.198 9.35417 100.668 9.51436 101.067C9.68911 101.502 10.1236 101.711 10.5265 101.851C10.8104 101.95 11.1065 102.035 11.3978 101.986C11.6915 101.936 11.9803 101.722 12.0628 101.408C12.1866 101.823 12.6332 102.14 12.9681 101.92C13.1211 101.818 13.2157 101.631 13.2643 101.438C13.3468 101.111 13.3201 100.756 13.3856 100.423C13.4366 100.159 13.5458 99.9173 13.6138 99.6588C13.9803 98.2725 13.1672 96.823 13.2376 95.5248C13.0919 93.4812 13.0871 91.4238 13.2254 89.3775C13.3371 87.7299 13.5409 86.0934 13.7448 84.4568C13.8176 83.8737 13.8905 83.2934 13.9317 82.8203C13.9875 80.4549 13.6138 78.095 13.6987 75.7323C13.7424 74.5441 13.9002 73.3669 14.0264 72.2474C14.2885 69.5767 14.2569 66.884 14.3152 64.1968C14.3637 61.9331 14.4802 59.6695 14.6623 57.4141C14.7351 56.4981 14.82 55.5795 14.8564 54.8176C14.9754 54.7213 15.138 54.7021 15.2715 54.7708" fill="#FAC3C5"/>
<path d="M5.21106 59.4737C5.20135 59.4737 5.19407 59.471 5.18436 59.4655C4.73292 59.2152 4.29604 58.9264 3.881 58.6046C3.23539 58.1012 3.16743 57.0423 3.18684 56.0714C3.18684 56.0329 3.21354 56.0054 3.24995 56.0054C3.28393 56.0054 3.31063 56.0384 3.3082 56.0769C3.29121 57.0121 3.35189 58.0297 3.94896 58.4946C4.35672 58.8136 4.79117 59.0997 5.23533 59.3445C5.26446 59.361 5.27902 59.4022 5.26446 59.4352C5.25475 59.46 5.23291 59.4737 5.21106 59.4737Z" fill="#D33964"/>
<path d="M25.1596 59.4601C25.1377 59.4601 25.1183 59.4464 25.1062 59.4244C25.0892 59.3914 25.1013 59.3501 25.1304 59.3309C25.6911 58.987 26.1911 58.536 26.611 57.9914C26.9556 57.543 26.9799 56.8994 27.0042 56.2751C27.009 56.121 27.0163 55.9698 27.026 55.8212C27.0284 55.7827 27.0503 55.7525 27.0915 55.758C27.1255 55.7607 27.1498 55.7937 27.1474 55.8322C27.1377 55.978 27.1328 56.1293 27.1255 56.2806C27.1012 56.9269 27.077 57.5953 26.7032 58.0821C26.2736 58.6405 25.7639 59.1026 25.1887 59.4519C25.179 59.4574 25.1693 59.4601 25.1596 59.4601Z" fill="#D33964"/>
<path d="M13.1599 14.1216C13.1599 14.1216 15.0457 16.7923 17.2374 14.1216C17.2374 14.1216 15.1889 18.2253 13.1599 14.1216Z" fill="#2C2F34"/>
<path d="M15.8953 8.09458C15.8831 8.09458 15.8686 8.08908 15.8588 8.08083C15.8321 8.05883 15.8273 8.01482 15.8467 7.98456C16.0506 7.68476 16.3588 7.47022 16.6865 7.39871C17.0166 7.3272 17.3709 7.39871 17.6573 7.59399C17.6865 7.61325 17.6962 7.6545 17.6792 7.68751C17.6622 7.72052 17.6234 7.73152 17.5967 7.71226C17.3345 7.53348 17.0117 7.47022 16.7108 7.53348C16.4098 7.59949 16.1307 7.79203 15.9438 8.06708C15.9317 8.08633 15.9147 8.09458 15.8953 8.09458Z" fill="#2C2F34"/>
<path d="M14.5215 8.08128C14.5045 8.08128 14.4851 8.07303 14.473 8.05377C14.3055 7.80898 14.041 7.6522 13.7667 7.63845C13.49 7.62745 13.2157 7.75122 13.0288 7.97676C13.007 8.00427 12.9682 8.00702 12.9439 7.97951C12.9196 7.95476 12.9172 7.91075 12.9415 7.88324C13.1526 7.62745 13.4633 7.48442 13.774 7.50368C14.0822 7.52018 14.3808 7.69621 14.5701 7.97401C14.5895 8.00427 14.5871 8.04827 14.5604 8.07028C14.5458 8.07578 14.5337 8.08128 14.5215 8.08128Z" fill="#2C2F34"/>
<path d="M15.1113 10.8235C14.9365 10.8235 14.7618 10.796 14.5919 10.7438C14.5676 10.7355 14.5264 10.7217 14.4997 10.6777C14.4633 10.6172 14.4875 10.5485 14.4972 10.5155C14.6599 10.0314 14.8346 9.54729 15.0215 9.07421C15.0361 9.03845 15.07 9.0247 15.1016 9.03845C15.1331 9.05495 15.1453 9.09346 15.1331 9.12922C14.9463 9.59955 14.7715 10.0836 14.6113 10.5622C14.6016 10.5897 14.6016 10.6007 14.6016 10.6035C14.6016 10.6007 14.6065 10.6035 14.6234 10.609C14.9948 10.7272 15.4001 10.7052 15.7618 10.5485C15.7933 10.5347 15.8273 10.5512 15.8394 10.587C15.8516 10.6227 15.837 10.6612 15.8055 10.675C15.5822 10.774 15.3467 10.8235 15.1113 10.8235Z" fill="#2C2F34"/>
<path d="M16.6283 9.3792C16.7623 9.3792 16.871 9.25606 16.871 9.10415C16.871 8.95225 16.7623 8.8291 16.6283 8.8291C16.4942 8.8291 16.3856 8.95225 16.3856 9.10415C16.3856 9.25606 16.4942 9.3792 16.6283 9.3792Z" fill="#2C2F34"/>
<path d="M13.7521 9.37676C13.8862 9.37676 13.9948 9.25361 13.9948 9.10171C13.9948 8.9498 13.8862 8.82666 13.7521 8.82666C13.6181 8.82666 13.5094 8.9498 13.5094 9.10171C13.5094 9.25361 13.6181 9.37676 13.7521 9.37676Z" fill="#2C2F34"/>
<path d="M15.2473 12.5668C14.524 12.5668 13.9682 12.1295 13.9585 12.1213C13.9318 12.0993 13.9245 12.0553 13.9439 12.025C13.9633 11.9947 14.0021 11.9865 14.0288 12.0085C14.041 12.0195 15.223 12.9464 16.3492 12.0085C16.3759 11.9865 16.4147 11.992 16.4341 12.0223C16.4535 12.0525 16.4487 12.0965 16.422 12.1185C16.0191 12.4541 15.6113 12.5668 15.2473 12.5668Z" fill="#2C2F34"/>
<path d="M22.4339 19.4846C21.963 19.303 21.4824 19.1298 21.0067 18.9482C20.497 20.2657 19.849 21.9628 19.4534 23.217C19.2155 23.9706 18.9874 24.7353 18.6378 25.4284C18.0456 26.6028 17.1355 27.5215 16.2059 28.3659C15.8758 28.6657 15.6112 28.9683 15.1986 29.0755C14.786 28.9683 14.5215 28.6657 14.1914 28.3659C13.2618 27.5215 12.3516 26.6001 11.7594 25.4284C11.4099 24.7325 11.1817 23.9706 10.9439 23.217C10.5434 21.9545 9.9609 20.241 9.46334 18.918C8.96335 19.1105 8.45851 19.292 7.96338 19.4846C7.76921 19.5588 7.57747 19.6358 7.38572 19.7211C7.31291 22.8044 7.23767 26.4708 7.16486 29.6421C7.17699 29.6256 7.18913 29.6036 7.20369 29.5871C7.45854 30.8826 7.81532 32.1533 8.26191 33.38C8.74491 34.6975 9.34926 36.0618 9.18665 37.4398C9.07257 38.0696 8.77646 38.6335 8.49492 39.1946C7.98765 40.204 7.51679 41.2464 7.19155 42.3549C8.85898 43.8952 10.4706 46.1863 11.541 48.2134C12.6186 50.2543 13.7545 52.7435 14.9292 54.7843C15.0142 54.7403 15.1088 54.7321 15.1986 54.7541C15.2884 54.7293 15.3831 54.7403 15.468 54.7843C16.6428 52.7435 17.7811 50.2543 18.8563 48.2134C19.9485 46.1451 21.4897 43.8044 23.179 42.2641C22.8538 41.1914 22.395 40.1765 21.8999 39.1973C21.6183 38.639 21.3198 38.0751 21.2082 37.4425C21.0455 36.0645 21.6499 34.703 22.1329 33.3828C22.5819 32.1561 22.9363 30.8853 23.1911 29.5899C23.2057 29.6064 23.2178 29.6256 23.23 29.6449C23.1571 26.4736 23.0819 22.8072 23.0091 19.7239C22.8198 19.6386 22.6256 19.5588 22.4339 19.4846Z" fill="#4E101E"/>
</g>
<defs>
<clipPath id="clip0_46_3428">
<rect width="32.1181" height="90" fill="white"/>
</clipPath>
</defs>
</svg>
