<svg width="34" height="90" viewBox="0 0 34 90" fill="none" xmlns="http://www.w3.org/2000/svg">
<g clip-path="url(#clip0_46_3365)">
<path d="M13.5629 64.4109L0.0818899 14.5008C-0.313123 13.0424 0.770754 11.6035 2.26169 11.6035H31.7383C33.2726 11.6035 34.3613 13.123 33.8868 14.6034L17.8912 64.516C17.1975 66.6779 14.1554 66.607 13.5629 64.4109Z" fill="#D33964"/>
<path d="M11.8793 8.48893C11.0531 6.669 11.07 4.51195 11.7492 2.63095C11.9154 2.16925 12.1249 1.71732 12.426 1.33134C13.0787 0.505655 14.1747 0.0634968 15.1935 0.317555C15.6704 -0.0464321 16.7615 -0.0830751 17.3179 0.129454C17.8743 0.341983 18.3319 0.781699 18.6378 1.29959C18.9437 1.81992 19.1581 2.71156 19.2809 3.30273C19.6543 5.12755 19.5555 6.65923 18.9943 8.46451C20.3985 10.1012 20.584 12.461 20.2636 14.6059C20.2275 14.8477 20.1721 15.1042 19.9939 15.2703C19.7 15.5464 19.2352 15.4438 18.8522 15.3241C18.3705 15.1726 17.8767 15.0163 17.4769 14.7036C17.1927 14.4813 16.9687 14.1881 16.7543 13.895C16.1425 13.0595 15.5717 12.1923 15.0466 11.2958C14.8346 10.9318 14.6227 10.5556 14.3047 10.282C14.0133 10.0304 13.6496 9.88137 13.3172 9.68594C12.756 9.35615 12.1105 8.99705 11.8793 8.48893Z" fill="black"/>
<path d="M28.1398 46.1703C27.9038 45.2127 27.8219 44.2258 27.7424 43.2413C27.6292 41.8489 27.516 40.4589 27.4678 39.0616C27.4172 37.6032 27.4389 36.1399 27.3715 34.6815C27.2077 31.0221 26.502 28.5622 27.0849 24.9467C27.186 22.8776 27.3305 21.1798 27.1716 20.0757C27.0054 18.9153 26.8729 17.9724 26.0395 17.1638C25.4205 16.5628 24.5992 16.2208 23.7706 15.9961C22.942 15.7713 22.0894 15.6492 21.2656 15.4098C19.8542 15.0018 18.5391 14.2519 17.46 13.2405C17.383 12.6103 17.3854 12.0557 17.3974 11.5036C18.0212 10.9564 18.4668 10.2114 18.6595 9.40034C19.1557 9.28309 19.57 8.83848 19.741 8.3377C19.9144 7.83691 19.8831 7.28971 19.806 6.76449C19.7868 6.63014 19.7603 6.49089 19.6784 6.38585C19.5965 6.28081 19.4375 6.22218 19.3267 6.29791C19.252 6.34676 19.2183 6.43959 19.187 6.52509C19.0738 6.85488 18.9582 7.18711 18.845 7.5169C18.9221 6.67411 18.9582 5.84598 18.8161 5.03983C18.674 4.23369 18.344 3.44708 17.778 2.8608C17.2119 2.27695 16.3978 1.91541 15.5958 2.00824C15.5452 1.77128 15.4416 1.52455 15.3091 1.29736C15.1767 1.52455 15.1646 1.77128 15.114 2.00824C14.312 1.91541 13.4955 2.27695 12.9318 2.8608C12.3658 3.44464 12.0358 4.23369 11.8937 5.03983C11.7516 5.84598 11.7853 6.67411 11.8648 7.5169C11.7516 7.18711 11.636 6.85488 11.5228 6.52509C11.4939 6.43959 11.4602 6.34676 11.3831 6.29791C11.2723 6.22462 11.1133 6.28081 11.0314 6.38585C10.9495 6.49089 10.9231 6.63014 10.9038 6.76449C10.8267 7.28971 10.7978 7.83691 10.9688 8.3377C11.1422 8.83848 11.5541 9.28064 12.0503 9.40034C12.243 10.2114 12.6886 10.9589 13.3124 11.5036C13.3244 12.0557 13.3244 12.6103 13.2498 13.2405C12.1731 14.2519 10.858 15.0018 9.44416 15.4098C8.62042 15.6467 7.76777 15.7713 6.9392 15.9961C6.11064 16.2208 5.2893 16.5628 4.67029 17.1638C3.8345 17.9748 3.70443 18.9177 3.53824 20.0757C3.37927 21.1823 3.52379 22.8776 3.62495 24.9467C4.20783 28.5622 3.50211 31.0221 3.33832 34.6815C3.27329 36.1399 3.29256 37.6008 3.24198 39.0616C3.19381 40.4565 3.0806 41.8489 2.9674 43.2413C2.88791 44.2258 2.80602 45.2127 2.56998 46.1703C2.37006 46.9814 2.05694 47.8266 2.33393 48.6865C2.45677 49.8078 3.22994 50.8313 4.26805 51.2442C4.46556 51.3223 4.68715 51.381 4.88706 51.315C5.08698 51.249 5.24836 51.0145 5.16646 50.8142C5.07494 50.5919 4.78108 50.5602 4.58358 50.4307C4.38607 50.3012 4.28009 50.0643 4.25119 49.8297C4.22229 49.5952 4.23433 48.794 4.27287 48.5595C4.2825 48.5082 4.29454 48.4495 4.34031 48.4251C4.44629 48.3714 4.51132 48.5424 4.52336 48.6621C4.55227 48.9405 4.61971 49.3167 4.80999 49.6587C4.87502 49.7784 5.0918 50.2426 5.28448 50.1351C5.44104 50.0472 5.35915 49.0969 5.22186 48.4935C5.18332 48.3201 5.15201 48.1442 5.13756 47.9658C4.97136 45.8015 4.83889 43.598 5.37119 41.4996C5.52053 40.9157 5.71804 40.3465 5.88423 39.77C6.34187 38.1724 6.54419 36.5112 6.73447 34.9674C6.64776 31.1858 6.8549 27.3994 7.45705 23.7815C7.5269 25.963 7.85207 28.1371 8.4205 30.2429C8.5891 30.8682 8.78179 31.4887 8.88055 32.1288C9.34541 35.1432 7.72923 38.1064 7.66901 41.2382C7.39443 45.264 7.17525 49.3583 8.06403 53.2937C8.22059 53.9851 8.41087 54.6666 8.57465 55.3579C9.01784 57.2048 9.28038 59.0906 9.68502 61.0596C9.63444 65.0732 9.58386 69.0942 9.95479 73.0907C10.3305 77.1336 11.1398 81.1399 11.1928 85.4662C10.8267 86.4996 10.4606 87.5329 10.0945 88.5662C10.0198 88.7739 9.94997 89.0108 10.0487 89.2063C10.1282 89.3626 10.2944 89.4481 10.451 89.5165C10.7544 89.6533 11.0748 89.7706 11.4072 89.7755C11.7396 89.7803 12.0888 89.6533 12.2839 89.3822C12.2285 89.7828 12.7199 90.0955 13.098 89.9684C13.4762 89.8414 13.693 89.4212 13.7219 89.0182C13.7508 88.6151 13.6279 88.2194 13.5292 87.8309C13.0547 85.989 13.0185 84.0323 13.3389 82.4591C13.6255 80.0162 13.876 77.5685 14.0904 75.1183C14.1843 74.0434 14.2734 72.9612 14.1964 71.8839C14.0832 70.2838 13.6135 68.6764 13.9097 67.3011C14.0928 65.0854 14.2783 62.8698 14.4613 60.6541C14.5914 59.0906 14.7214 57.5223 14.6853 55.9516C14.6636 54.95 14.5721 53.9509 14.5914 52.9493C14.6275 51.0145 15.0635 49.0969 14.9743 47.233C15.1309 47.1035 15.2899 47.1157 15.3621 47.1255C15.5139 47.1524 15.5934 47.1255 15.7138 47.233C15.6247 49.0969 16.063 51.0145 16.0968 52.9493C16.116 53.9509 16.0245 54.95 16.0028 55.9516C15.9667 57.5199 16.0968 59.0882 16.2268 60.6541C16.4099 62.8698 16.5953 65.0854 16.7784 67.3011C17.0771 68.6764 16.605 70.2838 16.4918 71.8839C16.4171 72.9612 16.5038 74.0434 16.5977 75.1183C16.8145 77.5685 17.065 80.0162 17.3492 82.4591C17.6696 84.0323 17.6334 85.989 17.159 87.8309C17.0578 88.2218 16.9374 88.6175 16.9663 89.0182C16.9952 89.4212 17.2119 89.8414 17.5901 89.9684C17.9682 90.0955 18.4596 89.7828 18.4042 89.3822C18.5993 89.6533 18.9486 89.7803 19.2809 89.7755C19.6133 89.7706 19.9337 89.6533 20.2372 89.5165C20.3937 89.4457 20.5599 89.3602 20.6394 89.2063C20.7382 89.0108 20.6659 88.7739 20.5936 88.5662C20.2275 87.5329 19.8614 86.4996 19.4953 85.4662C19.5483 81.1424 20.3576 77.1336 20.7333 73.0907C21.1043 69.0942 21.0537 65.0732 21.0031 61.0596C21.4077 59.0906 21.6727 57.2048 22.1135 55.3579C22.2797 54.6691 22.4675 53.9851 22.6241 53.2937C23.5153 49.3607 23.2961 45.264 23.0191 41.2382C22.9589 38.1064 21.3427 35.1457 21.8076 32.1288C21.9063 31.4887 22.099 30.8682 22.2676 30.2429C22.8385 28.1371 23.1636 25.963 23.2311 23.7815C23.8332 27.3994 24.0428 31.1882 23.9537 34.9674C24.1439 36.5112 24.3463 38.1724 24.8039 39.77C24.9701 40.349 25.1676 40.9182 25.3169 41.4996C25.8541 43.6151 25.7144 45.8357 25.5482 48.0147C25.5385 48.1515 25.5168 48.2859 25.4855 48.4202C25.3458 49.0285 25.2904 50.118 25.5193 49.9861C25.618 49.9934 25.736 49.9568 25.8227 49.8493C26.0516 49.5659 26.1383 48.9088 26.1672 48.6303C26.1792 48.5106 26.2442 48.3396 26.3502 48.3933C26.396 48.4178 26.4104 48.4764 26.4177 48.5277C26.4562 48.7622 26.4707 49.5879 26.4418 49.8249C26.4128 50.0594 26.3069 50.2963 26.1094 50.4258C25.9095 50.5577 25.618 50.587 25.5265 50.8093C25.4446 51.0072 25.6036 51.2417 25.8059 51.3101C26.0082 51.3761 26.2274 51.3174 26.4249 51.2393C27.4606 50.8264 28.2338 49.8029 28.359 48.6816C28.6529 47.8266 28.3397 46.9814 28.1398 46.1703Z" fill="#FAC3C5"/>
<path d="M3.95734 51.1169C3.94048 51.1169 3.92602 51.1096 3.91398 51.0974C3.28051 50.4158 3.03002 49.3947 3.27088 48.4908C3.28051 48.4591 3.31424 48.4395 3.34555 48.4469C3.37686 48.4566 3.39613 48.4884 3.3889 48.5226C3.15768 49.3849 3.39854 50.3621 4.0031 51.0119C4.02478 51.0363 4.02478 51.0754 4.00069 51.0974C3.98865 51.112 3.9742 51.1169 3.95734 51.1169Z" fill="black"/>
<path d="M2.44233 49.219C2.41343 49.219 2.38693 49.197 2.38212 49.1677C2.30745 48.6913 2.3484 48.2003 2.49773 47.7435C2.50736 47.7117 2.54349 47.6946 2.57481 47.7044C2.60612 47.7142 2.62298 47.7508 2.61334 47.7826C2.46883 48.2198 2.43029 48.6938 2.50255 49.1481C2.50737 49.1823 2.48569 49.2116 2.45197 49.219C2.44956 49.219 2.44715 49.219 2.44233 49.219Z" fill="black"/>
<path d="M26.7645 51.144C26.7525 51.144 26.7405 51.1416 26.7308 51.1342C26.7043 51.1147 26.6971 51.0781 26.714 51.0487C27.1523 50.3892 27.4076 49.5904 27.4341 48.7964C27.4341 48.7622 27.4679 48.7378 27.4968 48.7378C27.5305 48.7378 27.557 48.7671 27.5546 48.8013C27.5257 49.6172 27.2631 50.4405 26.8127 51.1196C26.8007 51.1342 26.7838 51.144 26.7645 51.144Z" fill="black"/>
<path d="M28.0555 49.7075C28.0531 49.7075 28.0483 49.7075 28.0459 49.7075C28.0122 49.7026 27.9905 49.6709 27.9977 49.6367C28.082 49.1457 28.1206 48.6449 28.1085 48.1465C28.1085 48.1123 28.135 48.0854 28.1687 48.0854C28.2025 48.0854 28.229 48.1123 28.229 48.1465C28.2386 48.6522 28.2001 49.1603 28.1158 49.6587C28.1085 49.688 28.0844 49.7075 28.0555 49.7075Z" fill="black"/>
<path d="M13.2426 89.526C13.2281 89.526 13.2161 89.5211 13.204 89.5113C13.0234 89.3647 12.7536 89.3354 12.5489 89.4405C12.52 89.4551 12.4839 89.4429 12.467 89.4136C12.4525 89.3843 12.4646 89.3476 12.4935 89.3305C12.7319 89.2084 13.0306 89.2328 13.2474 89.3916C13.2594 89.3818 13.2739 89.3647 13.2859 89.3428C13.3148 89.289 13.3221 89.2328 13.3148 89.2084C13.2932 89.1375 13.2233 89.0911 13.1631 89.074C13.086 89.0496 12.9993 89.0545 12.9174 89.0618C12.8861 89.0667 12.8548 89.0398 12.8524 89.0056C12.85 88.9714 12.8741 88.9421 12.9078 88.9397C13.0017 88.9323 13.1005 88.9275 13.1992 88.9568C13.3148 88.991 13.4015 89.074 13.4304 89.1742C13.4497 89.2377 13.4329 89.3281 13.3919 89.4038C13.3558 89.4673 13.3076 89.5113 13.257 89.5235C13.2522 89.526 13.2474 89.526 13.2426 89.526Z" fill="black"/>
<path d="M11.4819 89.7364C11.453 89.7364 11.4289 89.7168 11.4217 89.6875C11.3711 89.4139 11.4626 89.1232 11.6601 88.9278C11.6842 88.9034 11.7227 88.9058 11.7444 88.9302C11.7685 88.9547 11.7661 88.9938 11.742 89.0157C11.5758 89.1794 11.4963 89.4335 11.5397 89.6655C11.5469 89.6997 11.5252 89.7315 11.4915 89.7364C11.4891 89.7364 11.4843 89.7364 11.4819 89.7364Z" fill="black"/>
<path d="M10.8388 89.646C10.8123 89.646 10.7882 89.6289 10.781 89.602C10.6967 89.2918 10.8003 88.94 11.0363 88.7275C11.0604 88.7055 11.0989 88.7079 11.1206 88.7324C11.1423 88.7568 11.1399 88.7959 11.1158 88.8179C10.9135 89.0011 10.8243 89.304 10.8966 89.5703C10.9062 89.602 10.887 89.6362 10.8557 89.646C10.8508 89.646 10.8436 89.646 10.8388 89.646Z" fill="black"/>
<path d="M10.3426 89.4113C10.3113 89.4113 10.2848 89.3869 10.2824 89.3527C10.2655 89.0522 10.398 88.7493 10.6268 88.5587C10.6533 88.5392 10.6894 88.5416 10.7111 88.5685C10.7328 88.5954 10.728 88.632 10.7015 88.654C10.5016 88.8177 10.386 89.0839 10.4028 89.3453C10.4052 89.3795 10.3787 89.4088 10.345 89.4088C10.345 89.4113 10.3426 89.4113 10.3426 89.4113Z" fill="black"/>
<path d="M17.5179 89.526C17.5131 89.526 17.5082 89.526 17.5034 89.5235C17.4528 89.5113 17.4047 89.4673 17.3685 89.4038C17.3252 89.3256 17.3107 89.2353 17.3276 89.1717C17.3565 89.0716 17.4432 88.991 17.5612 88.9543C17.6576 88.925 17.7587 88.9299 17.8503 88.9372C17.884 88.9397 17.9081 88.969 17.9057 89.0032C17.9033 89.0374 17.8744 89.0643 17.8406 89.0594C17.7587 89.052 17.672 89.0472 17.595 89.0716C17.5347 89.0887 17.4649 89.1351 17.4432 89.206C17.436 89.2328 17.4432 89.289 17.4721 89.3427C17.4842 89.3672 17.4986 89.3818 17.5106 89.3916C17.7274 89.2353 18.0261 89.2084 18.2645 89.3305C18.2935 89.3452 18.3055 89.3818 18.291 89.4136C18.2766 89.4453 18.2405 89.4551 18.2091 89.4405C18.002 89.3354 17.7322 89.3647 17.554 89.5113C17.5444 89.5211 17.5323 89.526 17.5179 89.526Z" fill="black"/>
<path d="M19.2786 89.7364C19.2762 89.7364 19.2714 89.7364 19.2666 89.7364C19.2328 89.7291 19.2112 89.6973 19.2184 89.6656C19.2617 89.4359 19.1823 89.1794 19.0161 89.0158C18.992 88.9913 18.992 88.9547 19.0137 88.9303C19.0377 88.9058 19.0763 88.9058 19.098 88.9278C19.2955 89.1208 19.387 89.4139 19.3364 89.6876C19.334 89.7169 19.3075 89.7364 19.2786 89.7364Z" fill="black"/>
<path d="M19.9217 89.646C19.9169 89.646 19.912 89.646 19.9048 89.6435C19.8735 89.6338 19.8542 89.602 19.8639 89.5678C19.9361 89.3015 19.8494 89.0011 19.6447 88.8154C19.6206 88.7934 19.6182 88.7543 19.6399 88.7299C19.6615 88.7055 19.7001 88.703 19.7242 88.725C19.9602 88.94 20.0638 89.2893 19.9795 89.5996C19.9722 89.6289 19.9458 89.646 19.9217 89.646Z" fill="black"/>
<path d="M20.4179 89.4113H20.4155C20.3817 89.4088 20.3577 89.3795 20.3577 89.3478C20.3721 89.0864 20.2589 88.8226 20.0566 88.6564C20.0301 88.6345 20.0277 88.5954 20.0469 88.5709C20.0686 88.5441 20.1072 88.5416 20.1312 88.5612C20.3601 88.7517 20.4925 89.0546 20.4757 89.3551C20.4757 89.3844 20.4492 89.4113 20.4179 89.4113Z" fill="black"/>
<path d="M15.9594 5.77215C15.9402 5.77215 15.9185 5.76238 15.9089 5.74284C15.892 5.71352 15.8992 5.67688 15.9281 5.65978C16.4243 5.34465 17.0867 5.30556 17.6166 5.55962C17.6479 5.57428 17.6599 5.61092 17.6455 5.64024C17.631 5.67199 17.5949 5.68421 17.566 5.66955C17.0722 5.43259 16.4556 5.46924 15.9932 5.76238C15.9811 5.76971 15.9715 5.77215 15.9594 5.77215Z" fill="black"/>
<path d="M14.6781 5.73815C14.6636 5.73815 14.6492 5.73326 14.6371 5.72105C14.4444 5.54027 14.1675 5.44012 13.8664 5.45233C13.6062 5.4621 13.3341 5.5476 13.0595 5.71128C13.0306 5.72838 12.9945 5.7186 12.9776 5.68929C12.9607 5.65998 12.9704 5.62333 12.9993 5.60623C13.2907 5.43279 13.5822 5.3424 13.8616 5.33263C14.1939 5.32286 14.5047 5.43279 14.719 5.63555C14.7431 5.65753 14.7455 5.69662 14.7214 5.72105C14.7094 5.73082 14.6949 5.73815 14.6781 5.73815Z" fill="black"/>
<path d="M14.8804 8.63792C14.8635 8.63792 14.8491 8.63059 14.8371 8.61837C14.825 8.60616 14.8202 8.58906 14.8202 8.5744L14.8876 6.68851C14.8876 6.65431 14.9214 6.62988 14.9503 6.62988C14.984 6.62988 15.0105 6.6592 15.0081 6.6934L14.943 8.51577C15.1718 8.51089 15.4031 8.49379 15.6295 8.46203C15.6656 8.45714 15.6921 8.48157 15.6969 8.51333C15.7017 8.54753 15.6777 8.57685 15.6463 8.58173C15.3934 8.61837 15.1357 8.63792 14.8804 8.63792Z" fill="black"/>
<path d="M15.1912 10.1109C14.7648 10.1109 14.3361 9.91302 14.0784 9.56858C14.0591 9.54171 14.0639 9.50262 14.0904 9.48308C14.1169 9.46354 14.1554 9.46842 14.1747 9.49529C14.5047 9.93501 15.1333 10.1109 15.6367 9.90325C15.774 9.84707 15.9065 9.76401 16.0318 9.68339C16.0847 9.64919 16.1426 9.61255 16.169 9.55881C16.1835 9.52949 16.2196 9.51484 16.2485 9.52949C16.2774 9.54415 16.2919 9.58079 16.2774 9.61011C16.2365 9.69561 16.1594 9.74447 16.0968 9.78599C15.9667 9.86905 15.8294 9.95455 15.6825 10.0156C15.5259 10.0791 15.3598 10.1109 15.1912 10.1109Z" fill="black"/>
<path d="M16.8049 7.0891C16.9126 7.0891 17 7.00051 17 6.89123C17 6.78195 16.9126 6.69336 16.8049 6.69336C16.6971 6.69336 16.6098 6.78195 16.6098 6.89123C16.6098 7.00051 16.6971 7.0891 16.8049 7.0891Z" fill="black"/>
<path d="M13.852 7.0891C13.9597 7.0891 14.0471 7.00051 14.0471 6.89123C14.0471 6.78195 13.9597 6.69336 13.852 6.69336C13.7442 6.69336 13.6569 6.78195 13.6569 6.89123C13.6569 7.00051 13.7442 7.0891 13.852 7.0891Z" fill="black"/>
<path d="M13.31 11.4863C13.31 11.4863 15.0514 12.8714 17.395 11.4717C17.395 11.4717 15.2008 15.1286 13.31 11.4863Z" fill="black"/>
<path d="M19.0401 7.7243C19.0401 7.7243 19.281 6.46378 19.6567 7.11603Z" fill="black"/>
<path d="M19.0401 7.78526C19.0353 7.78526 19.0328 7.78526 19.028 7.78526C18.9943 7.77794 18.975 7.74618 18.9799 7.71442C19.0039 7.58251 19.1461 6.91805 19.411 6.87163C19.5122 6.85453 19.6133 6.92538 19.7073 7.0866C19.7241 7.11592 19.7145 7.15256 19.6856 7.16966C19.6567 7.18676 19.6205 7.17699 19.6037 7.14768C19.5411 7.03775 19.4833 6.984 19.4327 6.99133C19.2978 7.01576 19.1557 7.44082 19.1003 7.73641C19.0931 7.76572 19.069 7.78526 19.0401 7.78526Z" fill="black"/>
<path d="M11.6818 7.7243C11.6818 7.7243 11.4409 6.46378 11.0652 7.11603Z" fill="black"/>
<path d="M11.6818 7.78526C11.6529 7.78526 11.6288 7.76572 11.6216 7.73641C11.5637 7.44082 11.424 7.01332 11.2892 6.99133C11.2386 6.984 11.1808 7.03775 11.1182 7.14768C11.1013 7.17699 11.0652 7.18676 11.0363 7.16966C11.0074 7.15256 10.9977 7.11592 11.0146 7.0866C11.1061 6.92538 11.2097 6.85453 11.3108 6.87163C11.5758 6.91805 11.7179 7.58251 11.742 7.71442C11.7492 7.74862 11.7275 7.78038 11.6938 7.78526C11.689 7.78526 11.6842 7.78526 11.6818 7.78526Z" fill="black"/>
<path d="M21.9015 15.5756C21.6871 15.5267 21.4752 15.473 21.2632 15.4119C20.8104 15.2825 20.3696 15.1115 19.9433 14.9136C19.5459 16.5479 18.9461 18.6414 18.3078 20.1462C18.1681 20.4784 18.0188 20.8107 17.8141 21.1063C17.5612 21.4702 17.2288 21.7683 16.8988 22.0639C16.3135 22.5866 16.0028 22.8651 15.4175 23.3879C14.8322 22.8651 14.4035 22.5866 13.8182 22.0639C13.4882 21.7683 13.1558 21.4702 12.9029 21.1063C12.6982 20.8107 12.5488 20.4784 12.4091 20.1462C11.766 18.6292 11.2121 16.5308 10.8267 14.8867C10.369 15.1041 9.89695 15.2873 9.41282 15.429C9.2394 15.4779 9.06598 15.5219 8.89015 15.5634C8.67097 16.1521 8.51682 17.1171 8.40602 17.6423C7.99897 19.5355 7.55578 21.9393 7.4209 24.2966C7.43535 24.1989 7.4498 24.1012 7.46425 24.0035C7.5341 26.185 7.85927 28.3591 8.4277 30.4649C8.5963 31.0902 8.78899 31.7107 8.88775 32.3508C9.21291 34.4516 8.52645 36.5256 8.06159 38.6485C11.0603 40.8055 13.5845 43.9934 15.0249 47.433C15.1694 47.3304 15.3115 47.3377 15.379 47.3475C15.5307 47.3744 15.6102 47.3475 15.7306 47.455C15.7306 47.4696 15.7306 47.4867 15.7306 47.5014C16.9951 44.0008 19.5989 40.5759 22.6168 38.453C22.152 36.3986 21.5185 34.3857 21.834 32.3508C21.9328 31.7107 22.1255 31.0902 22.2941 30.4649C22.8649 28.3591 23.1901 26.185 23.2575 24.0035C23.2696 24.0768 23.2792 24.1525 23.2913 24.2282C23.1443 22.0932 22.7301 19.5672 22.3182 17.6423C22.2026 17.1244 22.0845 16.1619 21.9015 15.5756Z" fill="#4E101E"/>
</g>
<defs>
<clipPath id="clip0_46_3365">
<rect width="34" height="90" fill="white"/>
</clipPath>
</defs>
</svg>
