<svg width="35" height="90" viewBox="0 0 35 90" fill="none" xmlns="http://www.w3.org/2000/svg">
<g clip-path="url(#clip0_46_3479)">
<path d="M31.7529 35.6547C35.4273 42.2277 36.8136 48.5568 31.4275 54.6971C28.2922 58.2692 22.3322 62.5858 17.5274 62.5858C12.5934 62.5858 6.90909 58.3497 3.62722 54.6971C-1.89556 48.5568 -0.372634 42.2252 3.30177 35.6547C6.73767 29.5118 10.0295 23.7714 11.3089 16.6123C12.0095 12.6981 12.5809 8.65068 17.5274 8.72363C22.3992 8.79658 23.0154 12.6604 23.7458 16.6123C25.0898 23.8997 28.2425 29.376 31.7529 35.6547Z" fill="#D33964"/>
<path d="M16.9584 13.606C15.1671 13.5809 13.3535 12.5671 12.6206 10.9119C12.4343 10.4944 12.32 10.0466 12.2231 9.59884C12.1188 9.12089 12.0343 8.63791 12.012 8.14739C11.9648 7.18395 12.1536 6.22554 12.407 5.29731C12.7697 3.97667 13.279 2.67363 14.1138 1.59448C14.5535 1.02849 15.0901 0.52287 15.7385 0.23107C16.3894 -0.060729 17.1621 -0.121101 17.649 0.319113C18.0962 -0.00538778 18.6999 -0.0582135 19.2316 0.0927172C19.7608 0.243648 20.2253 0.578211 20.6204 0.968115C21.4377 1.77811 21.9868 2.83463 22.3147 3.94145C22.6426 5.04828 22.7594 6.21044 22.8016 7.36758C22.8339 8.2304 22.8215 9.10328 22.6253 9.94346C22.429 10.7836 22.0315 11.5936 21.3905 12.1647C20.5955 12.8715 19.5173 13.1382 18.4863 13.3797C17.895 13.513 17.2962 13.6111 16.9584 13.606Z" fill="#2C2F34"/>
<path d="M13.8952 4.84448C13.8629 4.84448 13.833 4.81681 13.833 4.78411C13.8007 3.63201 14.2181 2.4799 14.9783 1.62211C15.0007 1.59696 15.0405 1.59444 15.0653 1.61708C15.0901 1.63972 15.0926 1.67997 15.0703 1.70512C14.3324 2.54027 13.925 3.65968 13.9573 4.77908C13.9573 4.8143 13.9324 4.84448 13.8952 4.84448Z" fill="black"/>
<path d="M21.2042 5.0305C21.1694 5.0305 21.1421 5.00283 21.1421 4.96761C21.152 3.72243 20.7496 2.49235 20.0092 1.49872C19.9893 1.47105 19.9943 1.4308 20.0216 1.41068C20.049 1.39055 20.0887 1.39558 20.1086 1.42326C20.8663 2.43701 21.2763 3.69728 21.2663 4.96761C21.2663 5.00283 21.239 5.0305 21.2042 5.0305Z" fill="black"/>
<path d="M19.6465 4.65838C19.6117 4.65838 19.5844 4.63071 19.5844 4.5955C19.5769 3.7201 19.3782 2.83967 19.0055 2.0498C18.9906 2.0171 19.003 1.98188 19.0353 1.96679C19.0676 1.95169 19.1024 1.96427 19.1173 1.99697C19.4974 2.80445 19.7012 3.70249 19.7061 4.5955C19.7086 4.63071 19.6763 4.65587 19.6465 4.65838Z" fill="black"/>
<path d="M21.1694 12.4916C21.1595 12.4916 21.1496 12.4891 21.1421 12.4841C21.1123 12.469 21.0999 12.4312 21.1148 12.3985C22.0315 10.5547 22.3147 8.42654 21.9123 6.40155C21.9048 6.36633 21.9272 6.33363 21.962 6.3286C21.9942 6.32105 22.029 6.34369 22.034 6.37891C22.4439 8.42905 22.1557 10.5874 21.2266 12.4564C21.2142 12.4765 21.1918 12.4916 21.1694 12.4916Z" fill="black"/>
<path d="M14.9758 12.7856C14.9585 12.7856 14.9411 12.7781 14.9286 12.7655C13.4455 11.0524 12.8293 8.60988 13.3212 6.38617C13.3287 6.35346 13.361 6.33082 13.3958 6.33837C13.4281 6.34592 13.4504 6.37862 13.443 6.41384C12.961 8.5973 13.5647 10.9996 15.023 12.6825C15.0454 12.7076 15.0429 12.7479 15.0181 12.7705C15.0057 12.7806 14.9908 12.7856 14.9758 12.7856Z" fill="black"/>
<path d="M17.8056 48.0759C17.5149 48.0809 17.2217 48.0859 16.931 48.091C17.0602 51.8844 17.0006 55.6954 16.782 59.4988C16.6106 61.9288 16.2503 64.3814 15.7385 66.7988C15.6963 68.2276 15.9572 69.6791 16.0516 71.1356C16.305 75.0975 15.3013 79.0569 15.5149 83.0214C15.5299 83.6301 15.5746 84.0477 15.5646 84.6464C15.5597 84.9734 15.6267 85.3683 15.5646 85.6903C15.4752 86.1456 15.6938 86.6487 15.7435 87.1091C15.8106 87.7279 15.8777 88.3442 15.9447 88.963C15.977 89.2498 15.9895 89.5843 15.7808 89.778C15.6814 89.8686 15.5497 89.9114 15.4205 89.9441C15.2541 89.9843 15.0777 90.012 14.9137 89.9642C14.7498 89.9164 14.6007 89.7755 14.5908 89.602C14.5137 89.7453 14.4094 89.856 14.2901 89.9038C14.1709 89.9541 14.0367 89.9516 13.9076 89.9415C13.7262 89.9264 13.5448 89.8963 13.3684 89.8485C13.0455 89.7629 12.725 89.6196 12.3921 89.6472C12.1735 89.4787 12.1486 89.1089 12.2405 88.8146C12.3325 88.5203 12.5138 88.2612 12.6231 87.9719C12.6877 87.8008 12.7275 87.6197 12.7598 87.4386C13.0703 85.7205 12.8517 83.9546 12.6331 82.2214C12.5213 81.3335 12.4095 80.4455 12.2977 79.555C11.1126 75.0397 11.125 70.3432 11.1449 65.7071C11.1499 64.6606 11.1549 63.6092 11.2816 62.5703C10.9685 60.1076 10.0319 57.8084 9.4779 55.4262C8.93382 53.0817 8.75991 50.6668 8.59842 48.2645C8.40713 45.9679 8.46675 43.641 8.78227 41.3519C8.90897 40.4337 9.07791 39.5206 9.3189 38.6251C9.89527 36.4819 10.8816 34.477 11.8753 32.4973C12.007 29.3127 10.8716 26.2136 11.0878 23.0717C10.6754 24.9256 10.3996 26.7997 10.2282 28.6813C10.0468 31.0811 10.3027 33.6066 9.49529 35.9134C9.24436 36.7988 8.9686 37.6642 8.74749 38.5421C8.10403 41.1054 7.94255 43.7643 7.78355 46.4031C7.73137 47.0043 7.98727 47.6055 8.13633 48.2142C8.35247 49.0997 8.34005 50.0254 8.32266 50.9385C8.32017 51.0467 8.31024 51.17 8.2208 51.2278C8.12888 51.2882 7.9972 51.2379 7.93261 51.1498C7.86802 51.0618 7.85062 50.9461 7.83572 50.8354C7.80591 50.609 7.77609 50.3826 7.74628 50.1562C7.70901 49.8669 7.64939 49.5449 7.41586 49.3764C7.37611 49.8242 7.44319 50.282 7.51275 50.7348C7.54256 50.941 7.57486 51.1448 7.60467 51.3511C7.61709 51.4391 7.632 51.5297 7.67175 51.6102C7.75125 51.7712 7.91522 51.8642 8.05186 51.9774C8.1885 52.0906 8.31024 52.2692 8.2531 52.4378C8.21086 52.5635 8.08416 52.6365 7.96988 52.6994C7.58728 52.5158 7.17239 52.3095 6.78234 52.063C6.44695 51.8517 6.12398 51.6051 5.91032 51.2706C5.7538 51.0266 5.66188 50.7448 5.59977 50.4606C5.39357 49.4921 5.53766 48.4884 5.67182 47.5099C5.88548 45.9402 6.07429 44.368 6.23329 42.7933C6.33018 40.7054 6.41962 38.615 6.50906 36.5246C6.54881 35.5713 6.59104 34.6154 6.73514 33.6721C6.91401 32.5049 7.25437 31.3678 7.60716 30.2434C7.7587 29.8258 7.76864 29.3906 7.77361 28.968C7.80094 27.2122 7.82827 25.4564 7.85559 23.7006C7.84814 22.317 8.07422 20.936 8.5388 19.643C8.72264 19.1299 8.94872 18.6243 9.29654 18.2067C9.74621 17.6684 10.3772 17.3112 11.0232 17.047C11.6691 16.7829 12.3449 16.5942 12.9908 16.3226C13.8082 15.9805 14.5709 15.505 15.2392 14.9214C15.4578 14.7001 15.5199 14.4384 15.5671 14.1869C15.6317 13.8473 15.6864 13.5077 15.7261 13.1656C15.7634 12.8486 15.7882 12.5191 15.669 12.2248C15.1224 11.7393 14.5485 11.1607 14.2728 10.4287C14.0864 9.93316 14.0492 9.39736 14.0318 8.8691C14.0144 8.2855 14.0218 7.7019 14.0293 7.1183C14.0392 6.38377 14.0467 5.64925 14.0566 4.91472C14.2479 4.94742 14.4541 4.89962 14.6206 4.79397C14.7175 4.73108 14.8069 4.64556 14.9212 4.62543C14.9982 4.61285 15.0777 4.63046 15.1547 4.64556C15.3882 4.68329 15.6317 4.66316 15.8553 4.58518C15.9075 4.56758 15.9597 4.54494 16.0143 4.54745C16.0615 4.54997 16.1087 4.56758 16.1534 4.58518C16.3596 4.65813 16.5857 4.66568 16.7944 4.60531C16.9211 3.76261 17.4155 2.15771 17.4155 2.15771C17.7559 2.93501 17.9894 3.76261 18.1136 4.60531C18.3223 4.66316 18.5484 4.65813 18.7546 4.58518C18.7993 4.57009 18.8465 4.54997 18.8937 4.54745C18.9484 4.54494 19.0005 4.56758 19.0527 4.58518C19.2763 4.66316 19.5198 4.68329 19.7533 4.64556C19.8303 4.63298 19.9098 4.61285 19.9868 4.62543C20.1011 4.64556 20.1906 4.73108 20.2875 4.79397C20.4539 4.90214 20.6601 4.94742 20.8514 4.91472C20.8613 5.64925 20.8688 6.38377 20.8787 7.1183C20.8862 7.7019 20.8936 8.2855 20.8762 8.8691C20.8613 9.39736 20.8216 9.93568 20.6353 10.4287C20.3595 11.1632 19.7831 11.7393 19.239 12.2248C19.1198 12.5191 19.1446 12.8512 19.1819 13.1656C19.2216 13.5077 19.2763 13.8498 19.3409 14.1869C19.3881 14.4359 19.4502 14.7001 19.6688 14.9214C20.3396 15.505 21.0998 15.9805 21.9172 16.3226C22.5607 16.5917 23.2364 16.7804 23.8848 17.047C24.5308 17.3137 25.1593 17.6684 25.6115 18.2067C25.9593 18.6243 26.1854 19.1299 26.3692 19.643C26.8338 20.936 27.0599 22.317 27.0524 23.7006C27.0798 25.4564 27.1071 27.2122 27.1344 28.968C27.1419 29.3906 27.1493 29.8283 27.3009 30.2434C27.6561 31.3704 27.994 32.5049 28.1729 33.6721C28.3195 34.6154 28.3592 35.5713 28.399 36.5246C28.4884 38.615 28.5778 40.7054 28.6747 42.7933C28.8337 44.368 29.0201 45.9402 29.2362 47.5099C29.3704 48.4909 29.5145 49.4946 29.3082 50.4606C29.2486 50.7448 29.1542 51.0266 28.9977 51.2706C28.784 51.6051 28.4586 51.8517 28.1257 52.063C27.7356 52.3095 27.3232 52.5158 26.9381 52.6994C26.8214 52.6365 26.6972 52.5635 26.6549 52.4378C26.5978 52.2692 26.7195 52.0906 26.8562 51.9774C26.9928 51.8642 27.1568 51.7712 27.2363 51.6102C27.276 51.5297 27.2884 51.4416 27.3034 51.3511C27.3332 51.1448 27.3655 50.941 27.3953 50.7348C27.4623 50.2845 27.5294 49.8242 27.4922 49.3764C27.2586 49.5474 27.2015 49.8669 27.1617 50.1562C27.1319 50.3826 27.1021 50.609 27.0723 50.8354C27.0574 50.9461 27.04 51.0593 26.9754 51.1498C26.9108 51.2379 26.7791 51.2882 26.6872 51.2278C26.5978 51.17 26.5878 51.0442 26.5854 50.9385C26.5705 50.0254 26.5556 49.0997 26.7717 48.2142C26.9208 47.608 27.1766 47.0043 27.1245 46.4031C26.9655 43.7643 26.804 41.1054 26.1605 38.5421C25.9394 37.6642 25.6637 36.7988 25.4127 35.9134C24.6053 33.6092 24.8612 31.0836 24.6798 28.6813C24.5059 26.7997 24.2327 24.9256 23.8202 23.0717C24.0364 26.211 22.901 29.3127 23.0327 32.4973C24.0289 34.477 25.0127 36.4819 25.5891 38.6251C25.8301 39.5206 25.999 40.4337 26.1258 41.3519C26.4413 43.641 26.5009 45.9679 26.3096 48.2645C26.1481 50.6668 25.9742 53.0817 25.4301 55.4262C24.8761 57.8084 23.942 60.1076 23.6265 62.5703C23.7532 63.6092 23.7581 64.6606 23.7631 65.7071C23.783 70.3432 23.7954 75.0397 22.6103 79.555C22.4986 80.443 22.3868 81.3309 22.275 82.2214C22.0563 83.9546 21.8402 85.7205 22.1483 87.4386C22.1806 87.6197 22.2203 87.8008 22.2849 87.9719C22.3942 88.2612 22.5756 88.5203 22.6675 88.8146C22.7594 89.1089 22.7346 89.4787 22.5159 89.6472C22.183 89.6196 21.8625 89.7604 21.5396 89.8485C21.3632 89.8963 21.1818 89.9264 21.0005 89.9415C20.8713 89.9516 20.7371 89.9516 20.6179 89.9038C20.4986 89.8535 20.3943 89.7453 20.3173 89.602C20.3073 89.7755 20.1583 89.9164 19.9943 89.9642C19.8303 90.012 19.6539 89.9843 19.4875 89.9441C19.3583 89.9114 19.2266 89.8686 19.1272 89.778C18.9186 89.5818 18.931 89.2498 18.9633 88.963C19.0304 88.3442 19.0974 87.7279 19.1645 87.1091C19.2142 86.6487 19.2987 86.4148 19.2092 85.9595C19.1471 85.64 19.2838 85.0464 19.2788 84.7193C19.2689 84.1181 19.3782 83.6276 19.3931 83.0189C19.6067 79.0544 18.603 75.095 18.8564 71.1331C18.9484 69.6791 19.2117 68.2251 19.1695 66.7963C18.6552 64.3789 18.2975 61.9263 18.126 59.4963C17.9049 55.6954 17.8478 51.8844 17.977 48.0884C17.6863 48.0834 17.3931 48.0784 17.1025 48.0734" fill="#FAC3C5"/>
<path d="M7.18482 52.2995C7.16495 52.2995 7.14259 52.2894 7.13265 52.2693C6.65565 51.4618 6.4569 50.5034 6.57118 49.5702C6.57615 49.535 6.60844 49.5123 6.64074 49.5148C6.67552 49.5199 6.69788 49.5501 6.6954 49.5853C6.5836 50.4909 6.77738 51.4216 7.23948 52.2039C7.25687 52.2341 7.24693 52.2718 7.21712 52.2894C7.2047 52.297 7.19476 52.2995 7.18482 52.2995Z" fill="black"/>
<path d="M6.13145 51.5448C6.10661 51.5448 6.08425 51.5297 6.07431 51.5071C5.81097 50.8832 5.76376 50.1789 5.94015 49.5249C5.95009 49.4922 5.98239 49.472 6.01717 49.4821C6.04947 49.4922 6.06934 49.5249 6.06189 49.5601C5.89295 50.1864 5.93767 50.8606 6.19108 51.4593C6.2035 51.492 6.19108 51.5272 6.15878 51.5423C6.14884 51.5423 6.14139 51.5448 6.13145 51.5448Z" fill="black"/>
<path d="M28.0785 52.1735C28.0735 52.1735 28.0686 52.1735 28.0636 52.171C28.0313 52.1634 28.0089 52.1282 28.0164 52.0955C28.2027 51.283 28.2773 50.4478 28.2325 49.6152C28.2301 49.58 28.2574 49.5523 28.2922 49.5498C28.3269 49.5523 28.3568 49.575 28.3568 49.6102C28.4015 50.4554 28.3269 51.3006 28.1381 52.1257C28.1332 52.1534 28.1083 52.1735 28.0785 52.1735Z" fill="black"/>
<path d="M28.9257 51.4643C28.9232 51.4643 28.9207 51.4643 28.9182 51.4643C28.8834 51.4618 28.8586 51.4291 28.8636 51.3939C28.9281 50.8053 28.9182 50.2066 28.8313 49.6204C28.8263 49.5852 28.8486 49.555 28.8834 49.55C28.9182 49.545 28.948 49.5676 28.953 49.6028C29.0424 50.2015 29.0524 50.8078 28.9878 51.409C28.9828 51.4417 28.9555 51.4643 28.9257 51.4643Z" fill="black"/>
<path d="M14.5486 89.6645C14.5163 89.6645 14.4889 89.6393 14.4864 89.6041C14.474 89.3349 14.5486 89.0658 14.6951 88.8394C14.715 88.8092 14.7523 88.8017 14.7821 88.8218C14.8119 88.8419 14.8194 88.8796 14.7995 88.9098C14.6678 89.1111 14.6007 89.3551 14.6107 89.5991C14.6131 89.6343 14.5858 89.662 14.551 89.6645H14.5486Z" fill="black"/>
<path d="M13.9424 89.9991C13.9225 89.9991 13.9026 89.9891 13.8902 89.9715C13.6865 89.6671 13.7014 89.2369 13.9275 88.9477C13.9498 88.92 13.9871 88.915 14.0144 88.9376C14.0418 88.9602 14.0467 88.998 14.0244 89.0256C13.8355 89.2671 13.8206 89.6445 13.9945 89.8985C14.0144 89.9262 14.007 89.9664 13.9772 89.9866C13.9672 89.9966 13.9548 89.9991 13.9424 89.9991Z" fill="black"/>
<path d="M13.2939 89.8758C13.2691 89.8758 13.2442 89.8607 13.2368 89.8356C13.12 89.5262 13.2045 89.1488 13.443 88.9224C13.4678 88.8973 13.5076 88.8998 13.5299 88.925C13.5523 88.9501 13.5523 88.9904 13.5275 89.013C13.3237 89.2067 13.2517 89.5262 13.3511 89.7903C13.3635 89.823 13.3461 89.8582 13.3163 89.8708C13.3088 89.8758 13.3014 89.8758 13.2939 89.8758Z" fill="black"/>
<path d="M12.6753 89.7477C12.6455 89.7477 12.6207 89.7275 12.6132 89.6948C12.5561 89.3729 12.6728 89.0232 12.9089 88.8018C12.9337 88.7792 12.9734 88.7792 12.9958 88.8044C13.0182 88.8295 13.0182 88.8698 12.9933 88.8924C12.7871 89.0861 12.6877 89.3905 12.7349 89.6697C12.7399 89.7049 12.7176 89.7376 12.6853 89.7426C12.6828 89.7477 12.6803 89.7477 12.6753 89.7477Z" fill="black"/>
<path d="M15.2541 89.3852C15.1597 89.3852 15.0678 89.3651 14.9932 89.35C14.9584 89.3425 14.9386 89.3098 14.946 89.2746C14.9535 89.2393 14.9858 89.2192 15.0205 89.2268C15.1671 89.2569 15.2963 89.2796 15.4056 89.2318C15.4628 89.2066 15.5149 89.1488 15.5323 89.0859C15.5398 89.0607 15.5423 89.028 15.5274 88.9953C15.3833 88.9702 15.2342 88.9853 15.0951 89.0356C15.0628 89.0482 15.028 89.0306 15.0156 88.9978C15.0032 88.9651 15.0205 88.9299 15.0528 88.9174C15.2218 88.857 15.4031 88.8419 15.577 88.8771C15.592 88.8796 15.6069 88.8897 15.6143 88.9023C15.659 88.9626 15.6715 89.0406 15.6491 89.1211C15.6218 89.2217 15.5448 89.3098 15.4528 89.35C15.3882 89.3752 15.3212 89.3852 15.2541 89.3852Z" fill="black"/>
<path d="M20.3719 89.665H20.3695C20.3347 89.6624 20.3098 89.6348 20.3098 89.5996C20.3223 89.3581 20.2552 89.1141 20.121 88.9103C20.1011 88.8801 20.1086 88.8424 20.1384 88.8223C20.1657 88.8021 20.2055 88.8097 20.2254 88.8399C20.3719 89.0638 20.4465 89.3354 20.434 89.6046C20.4316 89.6373 20.4042 89.665 20.3719 89.665Z" fill="black"/>
<path d="M20.9781 89.9995C20.9657 89.9995 20.9533 89.997 20.9434 89.9894C20.916 89.9693 20.9086 89.9316 20.926 89.9014C21.0974 89.6448 21.085 89.27 20.8962 89.0285C20.8738 89.0008 20.8788 88.9606 20.9061 88.9405C20.9334 88.9203 20.9732 88.9228 20.9931 88.9505C21.2191 89.2398 21.234 89.6699 21.0303 89.9743C21.0179 89.9919 20.998 89.9995 20.9781 89.9995Z" fill="black"/>
<path d="M21.6266 89.8763C21.6191 89.8763 21.6117 89.8763 21.6042 89.8713C21.5719 89.8587 21.557 89.8235 21.5694 89.7908C21.6688 89.5267 21.5967 89.2072 21.393 89.0135C21.3682 88.9908 21.3657 88.9506 21.3905 88.9254C21.4129 88.9003 21.4527 88.8978 21.4775 88.9229C21.716 89.1518 21.8005 89.5267 21.6837 89.8361C21.6762 89.8612 21.6514 89.8763 21.6266 89.8763Z" fill="black"/>
<path d="M22.2451 89.748C22.2427 89.748 22.2377 89.748 22.2352 89.748C22.2004 89.743 22.1781 89.7103 22.1855 89.6751C22.2352 89.3958 22.1334 89.0889 21.9271 88.8978C21.9023 88.8751 21.8998 88.8349 21.9247 88.8097C21.947 88.7846 21.9868 88.7821 22.0116 88.8072C22.2476 89.0286 22.3644 89.3782 22.3073 89.7002C22.2998 89.7254 22.2725 89.748 22.2451 89.748Z" fill="black"/>
<path d="M19.6664 89.3858C19.5993 89.3858 19.5322 89.3757 19.4676 89.3481C19.3732 89.3078 19.2962 89.2173 19.2714 89.1192C19.249 89.0387 19.2614 88.9607 19.3061 88.9003C19.3161 88.8877 19.3285 88.8802 19.3434 88.8752C19.5173 88.8399 19.6987 88.855 19.8676 88.9154C19.8999 88.928 19.9173 88.9632 19.9049 88.9959C19.8925 89.0286 19.8577 89.0462 19.8254 89.0336C19.6863 88.9833 19.5372 88.9707 19.3931 88.9934C19.3782 89.0261 19.3832 89.0588 19.3881 89.0839C19.4055 89.1468 19.4552 89.2047 19.5148 89.2298C19.6241 89.2776 19.7558 89.255 19.8999 89.2248C19.9322 89.2198 19.967 89.2399 19.9744 89.2726C19.9819 89.3053 19.9595 89.3405 19.9272 89.3481C19.8527 89.3657 19.7608 89.3858 19.6664 89.3858Z" fill="black"/>
<path d="M17.2093 10.5953C17.1522 10.5953 17.0975 10.5928 17.0404 10.5877C16.6702 10.555 16.3622 10.4066 16.1684 10.1702C16.146 10.1425 16.151 10.1048 16.1783 10.0821C16.2056 10.0595 16.2429 10.0645 16.2653 10.0922C16.4342 10.301 16.7199 10.4368 17.0503 10.4645C17.3559 10.4922 17.6665 10.4318 17.9671 10.3764C18.1559 10.3412 18.3472 10.2959 18.4441 10.1551C18.4639 10.1249 18.5012 10.1199 18.531 10.14C18.5584 10.1601 18.5658 10.1978 18.5459 10.228C18.4242 10.4066 18.2031 10.462 17.9894 10.5022C17.736 10.545 17.4752 10.5953 17.2093 10.5953Z" fill="black"/>
<path d="M17.9844 6.3061C17.9646 6.3061 17.9472 6.29856 17.9348 6.28095C17.9149 6.25328 17.9199 6.21303 17.9472 6.1929C18.4614 5.80048 19.1894 5.74011 19.7583 6.03946C19.7881 6.05455 19.8005 6.09228 19.7856 6.12499C19.7707 6.15517 19.7335 6.16775 19.7012 6.15266C19.172 5.87343 18.4987 5.93129 18.0217 6.29352C18.0118 6.30359 17.9969 6.3061 17.9844 6.3061Z" fill="black"/>
<path d="M18.8863 7.58376C19.0153 7.58376 19.1198 7.47789 19.1198 7.3473C19.1198 7.21671 19.0153 7.11084 18.8863 7.11084C18.7573 7.11084 18.6528 7.21671 18.6528 7.3473C18.6528 7.47789 18.7573 7.58376 18.8863 7.58376Z" fill="black"/>
<path d="M15.0032 6.3061C14.9833 6.3061 14.9659 6.29856 14.9535 6.28095C14.9336 6.25328 14.9386 6.21303 14.9659 6.1929C15.4802 5.80048 16.2056 5.74011 16.777 6.03946C16.8068 6.05455 16.8193 6.09228 16.8044 6.12499C16.7895 6.15517 16.7522 6.16775 16.7199 6.15266C16.1907 5.87343 15.5175 5.93129 15.0404 6.29352C15.0305 6.30359 15.0156 6.3061 15.0032 6.3061Z" fill="black"/>
<path d="M15.905 7.58376C16.034 7.58376 16.1386 7.47789 16.1386 7.3473C16.1386 7.21671 16.034 7.11084 15.905 7.11084C15.7761 7.11084 15.6715 7.21671 15.6715 7.3473C15.6715 7.47789 15.7761 7.58376 15.905 7.58376Z" fill="black"/>
<path d="M17.4106 9.00042H16.5957C16.5783 9.00042 16.5609 8.99287 16.5485 8.97778C16.5361 8.96268 16.5311 8.94508 16.5336 8.92747L16.8913 6.7918C16.8963 6.75658 16.9311 6.73646 16.9634 6.74149C16.9982 6.74652 17.0205 6.77922 17.0131 6.81444L16.6677 8.87464H17.4106C17.4453 8.87464 17.4727 8.90231 17.4727 8.93753C17.4727 8.97275 17.4453 9.00042 17.4106 9.00042Z" fill="black"/>
<path d="M20.1408 43.2767C21.2812 41.2492 22.8761 38.935 25.0251 36.8521C24.4686 35.3654 23.7656 33.9341 23.0525 32.5154C22.9234 29.4313 23.9842 26.4228 23.8525 23.3841C23.5842 21.0371 23.1345 18.2298 22.6227 16.5947C22.3917 16.5142 22.1631 16.4287 21.9371 16.3356C21.6563 16.2174 21.388 16.079 21.1222 15.9331C21.0278 16.889 20.9135 17.8449 20.7768 18.7958C20.6725 19.085 20.4415 19.3718 20.2179 19.651C19.2117 20.9163 18.2999 22.2596 17.4925 23.6658C16.5559 22.3703 15.6044 21.0773 14.6528 19.7818C14.5212 19.6007 14.387 19.4196 14.2926 19.2158C14.1907 18.9945 14.1361 18.7555 14.0814 18.5165C13.8976 17.7065 13.7137 16.8965 13.5324 16.0891C13.361 16.1746 13.1871 16.2576 13.0107 16.3331C12.7374 16.4488 12.4591 16.5469 12.1784 16.645C11.8554 18.6322 11.0331 23.4243 11.1076 23.0897C10.8915 26.2291 12.0268 29.3307 11.8952 32.5154C11.1027 34.0926 10.3201 35.6849 9.74121 37.3502C10.8815 38.3765 11.7784 39.6494 12.6604 40.9147C14.2653 43.2164 15.8801 45.5382 17.0304 48.104C17.1795 48.1015 17.326 48.099 17.4751 48.0964C17.3583 48.0939 17.2416 48.0914 17.1248 48.0914H17.8254C17.7086 48.0939 17.5919 48.0964 17.4751 48.0964C17.6316 48.099 17.7881 48.1015 17.9446 48.104C18.1484 47.5128 18.5359 46.4815 19.1446 45.2061C19.4402 44.5471 19.7781 43.9056 20.1408 43.2767Z" fill="#4E101E"/>
<path d="M15.6044 12.1796C15.6044 12.1796 17.2192 13.6059 19.3955 12.1646C19.3955 12.1646 17.3583 15.9303 15.6044 12.1796Z" fill="black"/>
</g>
<defs>
<clipPath id="clip0_46_3479">
<rect width="35" height="90" fill="white"/>
</clipPath>
</defs>
</svg>
