<svg width="27" height="90" viewBox="0 0 27 90" fill="none" xmlns="http://www.w3.org/2000/svg">
<g clip-path="url(#clip0_46_3608)">
<path d="M25.4135 60.3977H1.5865C0.711107 60.3977 0 59.6835 0 58.8043V12.7995C0 11.9203 0.711107 11.2061 1.5865 11.2061H25.4159C26.2913 11.2061 27.0025 11.9203 27.0025 12.7995V58.8043C27 59.686 26.2913 60.3977 25.4135 60.3977Z" fill="#D33964"/>
<path d="M12.4861 0.404317C11.1521 0.295954 9.91874 1.29092 9.3376 2.50015C8.75645 3.70937 8.69024 5.10085 8.66817 6.44553C8.64611 7.79021 8.65101 9.16937 8.19247 10.4303C8.09929 10.6889 7.98404 10.945 7.97668 11.2209C7.95952 11.7381 8.31262 12.1863 8.63139 12.5926C8.66082 12.632 8.6927 12.6739 8.70005 12.7232C8.71722 12.8365 8.60442 12.9251 8.51369 12.9941C7.95462 13.4201 7.74128 14.2008 7.86144 14.8953C7.91293 15.1884 8.01837 15.479 8.21209 15.7056C8.39845 15.9248 8.65591 16.0701 8.91338 16.1982C9.51905 16.4986 10.1664 16.7277 10.8383 16.7868C12.1452 16.905 13.4277 16.3829 14.7371 16.3336C15.588 16.3016 16.434 16.4691 17.2848 16.5282C18.1357 16.5873 19.0332 16.5232 19.759 16.0775C20.0778 15.8805 20.3671 15.5923 20.4456 15.2254C20.524 14.8584 20.323 14.4176 19.9576 14.3363C20.144 14.1393 20.3279 13.9201 20.372 13.6516C20.4162 13.3832 20.2666 13.0655 19.9993 13.0236C20.4382 12.5926 20.2175 11.7085 19.629 11.5361C20.0067 11.0977 20.3401 10.5165 20.1709 9.96238C20.068 9.62991 19.8056 9.3787 19.5898 9.10533C19.374 8.83197 19.1926 8.47979 19.298 8.14731C19.3593 7.95275 19.5064 7.80252 19.6143 7.63013C19.7222 7.45773 19.786 7.22377 19.6683 7.05876C19.5653 6.91099 19.3519 6.86666 19.2588 6.71151C19.0871 6.42583 19.4525 6.11059 19.5015 5.78058C19.5923 5.18704 18.6948 4.88659 18.6016 4.29552C18.5526 3.99259 18.734 3.68228 18.6654 3.38429C18.6286 3.22421 18.5231 3.08875 18.4202 2.96069C17.329 1.60369 15.9705 0.295954 14.2589 0.0373618C13.6361 -0.056224 12.9495 0.0151967 12.4861 0.404317Z" fill="black"/>
<path d="M17.8635 6.0908C17.6551 6.0908 17.4467 6.03661 17.2652 5.92579C16.89 5.69429 16.6841 5.2436 16.7159 4.80768C16.711 4.80768 16.7061 4.80768 16.7037 4.80768C16.1274 4.80768 15.5684 4.42842 15.3697 3.87922C14.9161 3.96788 14.4061 3.75361 14.1633 3.35464C14.1241 3.29061 14.0726 3.18964 14.0505 3.07142C14.0039 3.08374 13.9549 3.09112 13.9058 3.09359C13.6091 3.10836 13.3124 2.94336 13.1653 2.68476C13.1481 2.65521 13.158 2.61827 13.1874 2.60103C13.2168 2.58379 13.2536 2.59364 13.2707 2.62319C13.3958 2.84238 13.6484 2.98276 13.8985 2.97045C13.9451 2.96799 13.9917 2.9606 14.0383 2.94828C14.0383 2.89656 14.0481 2.84485 14.0652 2.79066C14.102 2.67984 14.1903 2.58625 14.3006 2.53946C14.3938 2.50006 14.4894 2.49759 14.5728 2.53453C14.5875 2.54192 14.5998 2.55424 14.6047 2.56901C14.6096 2.58379 14.6096 2.60103 14.6047 2.61581C14.5213 2.80544 14.3595 2.95321 14.1707 3.03448C14.1829 3.11821 14.2173 3.20441 14.2687 3.29061C14.4845 3.64279 14.9308 3.83242 15.3354 3.761C15.3011 3.62062 15.306 3.50733 15.3526 3.41375C15.3894 3.33987 15.4629 3.28076 15.5438 3.26106C15.6125 3.24382 15.6763 3.25367 15.7302 3.29061C15.8454 3.36942 15.8528 3.53935 15.7866 3.64771C15.7326 3.73391 15.6419 3.79794 15.5071 3.84474C15.5022 3.8472 15.4972 3.8472 15.4923 3.84966C15.6763 4.33729 16.1961 4.68455 16.7135 4.68455C16.7208 4.68455 16.7282 4.68455 16.7356 4.68455C16.7527 4.60081 16.7772 4.51954 16.8116 4.43827C16.8508 4.34961 16.9391 4.23139 17.0519 4.19199C17.1132 4.16982 17.1745 4.17229 17.2309 4.20184C17.2873 4.23139 17.329 4.28311 17.3461 4.35207C17.3657 4.43334 17.3486 4.52693 17.302 4.59342C17.2358 4.68455 17.1279 4.74612 16.9685 4.78059C16.9268 4.79045 16.8851 4.79537 16.8434 4.8003C16.8091 5.19434 16.9955 5.61302 17.3314 5.81989C17.7581 6.08341 18.3834 5.97504 18.6972 5.581C18.7193 5.55391 18.7561 5.55145 18.7831 5.57115C18.81 5.59331 18.8149 5.63025 18.7929 5.65735C18.5673 5.9381 18.2166 6.0908 17.8635 6.0908ZM17.1328 4.30035C17.1205 4.30035 17.1083 4.30281 17.0936 4.30774C17.0298 4.3299 16.9611 4.40379 16.9244 4.48999C16.8974 4.54909 16.8778 4.61066 16.8631 4.67469C16.89 4.67223 16.917 4.66731 16.944 4.65992C17.0715 4.63283 17.1573 4.5885 17.2039 4.522C17.2309 4.4826 17.2407 4.42842 17.2284 4.38162C17.2235 4.35946 17.2088 4.32744 17.1769 4.3102C17.1622 4.30528 17.1475 4.30035 17.1328 4.30035ZM15.6076 3.37681C15.5953 3.37681 15.5831 3.37927 15.5757 3.38173C15.5291 3.39405 15.485 3.42853 15.4654 3.47039C15.4335 3.53689 15.431 3.62062 15.458 3.73145C15.4629 3.72899 15.4678 3.72899 15.4703 3.72652C15.5757 3.68958 15.6468 3.64279 15.6836 3.58368C15.7204 3.52457 15.7179 3.43099 15.664 3.39158C15.6444 3.38173 15.6248 3.37681 15.6076 3.37681ZM14.4478 2.63305C14.4159 2.63305 14.384 2.64043 14.3521 2.65521C14.2761 2.68969 14.2099 2.75619 14.1854 2.83499C14.178 2.85716 14.1731 2.87932 14.1682 2.90395C14.2884 2.84485 14.3914 2.75126 14.46 2.63551C14.4551 2.63305 14.4502 2.63305 14.4478 2.63305Z" fill="black"/>
<path d="M19.2539 15.6415C18.815 15.6415 18.4006 15.2967 18.3368 14.8559C18.3123 14.6934 18.3393 14.5308 18.403 14.3806C18.251 14.3166 18.1137 14.1983 18.0156 14.0383C17.8734 13.8018 17.8366 13.5186 17.8194 13.2994C17.8071 13.1098 17.8047 12.8586 17.9003 12.6468C17.8832 12.5901 17.8709 12.531 17.8685 12.4744C17.8586 12.2651 17.9273 12.0385 18.0842 11.7848C18.1308 11.7085 18.1823 11.6346 18.2338 11.5582C18.3123 11.4425 18.3932 11.3243 18.457 11.2011C18.6629 10.7972 18.7046 10.2727 18.5771 9.72347C18.4594 9.22352 18.2265 8.75313 18.0009 8.29752C17.9862 8.26796 17.9984 8.23102 18.0278 8.21378C18.0573 8.199 18.094 8.21132 18.1088 8.24087C18.3393 8.70141 18.5747 9.17919 18.6948 9.69392C18.8297 10.2727 18.7831 10.8268 18.5648 11.2553C18.4986 11.3858 18.4153 11.509 18.3343 11.6247C18.2853 11.6986 18.2338 11.77 18.1897 11.8464C18.0475 12.0779 17.9812 12.2823 17.9911 12.4645C17.9911 12.4744 17.9911 12.4818 17.9935 12.4916C18.0082 12.4744 18.0254 12.4547 18.0426 12.4375C18.1701 12.3094 18.3858 12.2626 18.5698 12.3217C18.712 12.3685 18.8076 12.4719 18.8297 12.6025C18.8493 12.7207 18.8052 12.8389 18.7071 12.93C18.5943 13.0359 18.4398 13.0802 18.3025 13.0458C18.1603 13.0113 18.0499 12.9177 17.9763 12.7995C17.942 12.93 17.9322 13.0876 17.9445 13.2847C17.9592 13.4891 17.9935 13.7526 18.1235 13.9693C18.2068 14.1097 18.3294 14.2131 18.4594 14.2648C18.5967 14.0309 18.8272 13.8536 19.0994 13.8092C19.1337 13.8043 19.1632 13.8265 19.1705 13.8585C19.1926 13.9792 19.1583 14.1072 19.0724 14.2131C18.9743 14.3363 18.8297 14.4151 18.6801 14.4225C18.6286 14.4249 18.5771 14.42 18.5256 14.4101C18.4668 14.5407 18.4422 14.686 18.4619 14.8288C18.5207 15.2352 18.9425 15.5578 19.3471 15.5036C19.3789 15.4987 19.4108 15.5233 19.4157 15.5578C19.4206 15.5923 19.3961 15.6218 19.3618 15.6268C19.325 15.6391 19.2907 15.6415 19.2539 15.6415ZM18.5845 14.3042C18.6139 14.3092 18.6409 14.3092 18.6703 14.3067C18.7831 14.2993 18.8983 14.2378 18.9743 14.1442C19.0209 14.0851 19.0479 14.0186 19.0528 13.9521C18.8591 14.0013 18.6924 14.1343 18.5845 14.3042ZM18.0352 12.6542C18.0867 12.7847 18.1897 12.898 18.3294 12.9325C18.4251 12.9546 18.5403 12.9226 18.6237 12.8463C18.6899 12.7847 18.7218 12.7034 18.7095 12.6271C18.6899 12.5089 18.5918 12.4621 18.533 12.4424C18.3932 12.3956 18.224 12.4325 18.1284 12.5261C18.0916 12.5655 18.0597 12.6074 18.0352 12.6542Z" fill="black"/>
<path d="M9.47492 15.1809C9.37929 15.1809 9.2812 15.1513 9.20274 15.0922C9.10465 15.0208 9.05071 14.9149 9.05806 14.8041C9.07278 14.5898 9.2812 14.4593 9.47001 14.4051C9.6294 14.3608 9.79614 14.3509 9.96043 14.3681C9.99967 14.0554 9.94817 13.7303 9.81086 13.4495C9.8035 13.4323 9.79369 13.415 9.78388 13.3978C9.70051 13.5308 9.58281 13.6268 9.44549 13.6613C9.31308 13.6933 9.15615 13.6515 9.04826 13.5505C8.95753 13.4643 8.91584 13.3535 8.93301 13.2427C8.95017 13.1466 9.00902 13.0629 9.09975 13.0062C9.21009 12.9373 9.35477 12.92 9.47492 12.957C9.57791 12.989 9.67109 13.053 9.75446 13.1466C9.75936 13.1318 9.76181 13.1171 9.76427 13.1023C9.82066 12.8117 9.73729 12.4841 9.50925 12.0999C9.44795 11.994 9.37929 11.893 9.31063 11.7896C9.17576 11.5877 9.03599 11.3759 8.94036 11.1468C8.76872 10.7306 8.78833 10.3144 8.99186 10.0312C9.01147 10.0041 9.05071 9.99916 9.07768 10.0164C9.10465 10.0361 9.11201 10.0755 9.09239 10.1026C8.91339 10.3513 8.89868 10.7232 9.05561 11.0976C9.14634 11.3168 9.28366 11.5236 9.41362 11.7207C9.48228 11.8241 9.55093 11.9275 9.61469 12.0359C9.8599 12.4472 9.94572 12.8018 9.88442 13.1244C9.87461 13.1737 9.86235 13.2205 9.84519 13.2648C9.86971 13.3042 9.89423 13.3461 9.91875 13.3929C10.0683 13.6958 10.1247 14.0504 10.0806 14.3878C10.2449 14.4223 10.3994 14.4888 10.5391 14.5849C10.5661 14.6046 10.5735 14.6415 10.5563 14.6711C10.5367 14.7006 10.4999 14.7055 10.4705 14.6883C10.3479 14.6021 10.2056 14.543 10.061 14.511C10.0561 14.5356 10.0487 14.5627 10.0438 14.5873C10.0021 14.7523 9.88932 15.0454 9.6245 15.1513C9.57545 15.171 9.52641 15.1809 9.47492 15.1809ZM9.80595 14.4839C9.70296 14.4839 9.60243 14.4962 9.50189 14.5233C9.35967 14.5627 9.19048 14.6612 9.18067 14.8114C9.17576 14.9026 9.23707 14.9641 9.27385 14.9912C9.36212 15.0553 9.48473 15.075 9.57791 15.038C9.79124 14.9543 9.88442 14.7006 9.9212 14.5578C9.9261 14.5356 9.93101 14.5134 9.93591 14.4913C9.89423 14.4864 9.85009 14.4839 9.80595 14.4839ZM9.34496 13.0604C9.2812 13.0604 9.21745 13.0776 9.1635 13.1097C9.1022 13.1466 9.06297 13.2008 9.05316 13.2624C9.03845 13.3559 9.09484 13.4249 9.12917 13.4594C9.20764 13.5308 9.32044 13.5628 9.41362 13.5406C9.55093 13.5062 9.64657 13.3978 9.70542 13.2796C9.63676 13.1909 9.54848 13.1097 9.43814 13.0752C9.40871 13.0653 9.37684 13.0604 9.34496 13.0604Z" fill="black"/>
<path d="M15.816 11.5977C15.8038 12.0336 15.7032 12.4646 15.664 12.898C15.6248 13.3339 15.6493 13.792 15.9582 14.1663C16.6914 15.1342 17.9027 15.5874 19.065 15.9297C19.911 16.1809 20.7668 16.3976 21.6299 16.5873C22.0075 16.671 22.3925 16.7473 22.7407 16.9173C23.1233 17.1044 23.4469 17.3926 23.7338 17.7103C24.8691 18.9663 25.4552 20.7075 25.2786 22.397C25.5631 24.8548 24.7711 27.3398 25.0114 29.8026C25.1977 31.6964 25.9897 33.5164 26.0118 35.3857C26.0167 37.2229 26.0216 39.0577 26.0265 40.8949C26.029 42.1313 26.0339 43.37 26.1565 44.6014C26.3085 46.1234 26.642 47.6307 26.6518 49.1625C26.6567 49.756 26.6028 50.3767 26.2963 50.884C25.8377 51.6401 24.9353 51.9701 24.082 52.2632C23.9153 52.1031 23.7338 51.9036 23.7706 51.6746C23.7976 51.5046 23.9373 51.3766 24.0796 51.283C24.2218 51.1894 24.3812 51.1106 24.4866 50.9751C24.6264 50.7978 24.6485 50.5564 24.6656 50.3323C24.6877 50.0343 24.7098 49.7363 24.695 49.4556C24.4744 49.7265 24.3199 50.054 24.2488 50.3964C24.2316 50.4801 24.2144 50.5762 24.1433 50.6229C24.0575 50.6821 23.93 50.6402 23.8662 50.5564C23.8025 50.4727 23.7853 50.3644 23.7755 50.2585C23.7314 49.793 23.7706 49.3201 23.8883 48.8694C23.9717 48.5567 24.0918 48.2513 24.1556 47.9336C24.2071 47.6775 24.2218 47.4139 24.2586 47.1553C24.3346 46.6283 24.5013 46.121 24.6485 45.6136C24.6019 44.4931 24.5528 43.3676 24.3174 42.2692C24.082 41.1757 23.6652 40.1315 23.3268 39.0676C22.5789 36.7205 22.2086 34.2528 22.2577 31.8565C21.7795 29.049 21.5662 26.1946 21.603 23.419C21.3161 24.808 21.0267 26.197 20.7398 27.5861C20.5608 28.4505 20.3818 29.3149 20.296 30.1941C19.9895 33.3194 20.8747 36.4225 21.8285 39.432C22.5715 42.9637 22.5519 46.6086 22.5298 50.219C22.5249 51.1303 22.5176 52.0415 22.4121 52.9453C22.3067 53.8393 22.1032 54.721 21.8653 55.6224C20.6393 59.4052 20.1685 63.4319 20.4995 67.6137C20.6074 69.6603 20.6859 71.7192 20.4701 73.7583C20.0728 77.5018 18.6899 81.1024 18.4667 84.8606C18.4226 85.5994 18.4348 86.3826 18.8051 87.0229C19.1165 87.5623 19.6683 87.9661 19.8448 88.5646C19.9184 88.8109 19.9478 88.9685 19.8301 89.1975C19.7443 89.3625 19.5432 89.4734 19.3814 89.3798C19.3397 89.3576 19.3004 89.3256 19.2538 89.3256C19.1925 89.3231 19.1411 89.3724 19.092 89.4093C18.9964 89.4857 18.8811 89.5325 18.761 89.5497C18.6997 89.5571 18.6359 89.5596 18.5844 89.5916C18.5501 89.6137 18.5256 89.6482 18.4962 89.6778C18.3662 89.8058 18.1627 89.8058 17.9812 89.7985C17.8635 89.7935 17.7483 89.7886 17.6306 89.7837C17.5545 89.7812 17.4785 89.7763 17.4074 89.7541C17.2088 89.695 17.0764 89.5128 16.9832 89.4069C16.814 89.567 16.7184 89.8083 16.5173 89.9265C16.2598 90.0768 15.9092 89.9585 15.7204 89.727C15.5316 89.4955 15.4776 89.1803 15.4727 88.8798C15.4703 88.7198 15.4825 88.5597 15.5389 88.4095C15.588 88.2765 15.6713 88.1607 15.7277 88.0302C15.7988 87.8627 15.8234 87.6755 15.9141 87.577C15.9092 86.8727 15.9067 86.1683 15.9018 85.4664C15.8994 85.2423 15.8994 85.0182 15.8675 84.7965C15.8405 84.6094 15.7939 84.4247 15.7915 84.235C15.7841 83.7154 16.1152 83.2253 15.995 82.6638C15.9533 79.6838 15.7915 76.7063 15.5169 73.7386C15.4482 72.9973 15.3722 72.2536 15.3943 71.5098C15.4335 70.2169 15.7694 68.9461 15.8062 67.6506C15.8405 66.4513 15.6174 65.2667 15.3403 64.1215C15.1368 63.289 15.0215 62.4394 14.9995 61.5848L14.845 55.7381C14.7739 52.9995 14.7003 50.2511 14.3129 47.6553C14.0113 47.5765 13.695 47.542 13.3835 47.5568H14.0358C13.7244 47.542 13.4081 47.5765 13.1065 47.6553C12.719 50.2511 12.6455 52.9995 12.5743 55.7381L12.4199 61.5848C12.3978 62.4394 12.2825 63.2915 12.079 64.1215C11.7995 65.2642 11.5788 66.4488 11.6131 67.6506C11.6499 68.9436 11.9858 70.2169 12.0251 71.5098C12.0471 72.2536 11.9711 72.9973 11.9025 73.7386C11.6254 76.7063 11.466 79.6838 11.4243 82.6638C11.3017 83.2228 11.6327 83.7154 11.6278 84.235C11.6254 84.4247 11.5788 84.6094 11.5518 84.7965C11.5199 85.0182 11.5199 85.2423 11.5175 85.4664C11.5126 86.1708 11.5101 86.8751 11.5052 87.577C11.596 87.6755 11.6205 87.8627 11.6916 88.0302C11.748 88.1607 11.8314 88.2765 11.8804 88.4095C11.9368 88.5572 11.9491 88.7198 11.9466 88.8798C11.9442 89.1803 11.8878 89.4931 11.6989 89.727C11.5101 89.9585 11.1595 90.0768 10.902 89.9265C10.7009 89.8083 10.6053 89.567 10.4361 89.4069C10.3429 89.5128 10.2081 89.695 10.0119 89.7541C9.9408 89.7763 9.86233 89.7788 9.78877 89.7837C9.67107 89.7886 9.55582 89.7935 9.43812 89.7985C9.25666 89.8058 9.05069 89.8058 8.92318 89.6778C8.89375 89.6482 8.86923 89.6137 8.8349 89.5916C8.78341 89.5596 8.71966 89.5571 8.65835 89.5497C8.5382 89.5349 8.42295 89.4857 8.32732 89.4093C8.27828 89.3699 8.22678 89.3231 8.16548 89.3256C8.11889 89.3281 8.07966 89.3576 8.03797 89.3798C7.87613 89.4709 7.73146 89.3625 7.64564 89.1975C7.52794 88.9685 7.49851 88.8109 7.57208 88.5646C7.75108 87.9661 8.30035 87.5623 8.61176 87.0229C8.98203 86.3826 8.99429 85.5994 8.95015 84.8606C8.72701 81.1024 7.34403 77.5018 6.94679 73.7583C6.73101 71.7192 6.81193 69.6603 6.91737 67.6137C7.2484 63.4319 6.77515 59.4052 5.55155 55.6224C5.3137 54.721 5.11017 53.8393 5.00473 52.9453C4.89929 52.0415 4.89194 51.1278 4.88703 50.219C4.86251 46.6086 4.8429 42.9637 5.58833 39.432C6.5422 36.425 7.4274 33.3194 7.12089 30.1941C7.03507 29.3149 6.85606 28.4505 6.67706 27.5861C6.39017 26.197 6.10082 24.808 5.81392 23.419C5.84825 26.1946 5.63737 29.049 5.15922 31.8565C5.20826 34.2528 4.83554 36.7205 4.0901 39.0676C3.75171 40.1315 3.33241 41.1757 3.09946 42.2692C2.86406 43.3651 2.81501 44.4931 2.76842 45.6136C2.91555 46.121 3.08474 46.6283 3.15831 47.1553C3.19509 47.4139 3.2098 47.6775 3.2613 47.9336C3.32505 48.2513 3.44765 48.5542 3.52857 48.8694C3.64627 49.3201 3.68551 49.7954 3.64137 50.2585C3.63156 50.3619 3.6144 50.4727 3.55064 50.5564C3.48689 50.6402 3.35938 50.6845 3.27356 50.6229C3.20245 50.5737 3.18528 50.4801 3.16812 50.3964C3.09701 50.0516 2.94252 49.7265 2.72183 49.4556C2.70467 49.7363 2.72919 50.0343 2.75126 50.3323C2.76842 50.5589 2.79049 50.7978 2.93026 50.9751C3.0357 51.1106 3.19509 51.1894 3.33731 51.283C3.47953 51.3766 3.6193 51.5046 3.64627 51.6746C3.6806 51.9036 3.5016 52.1055 3.33486 52.2632C2.48153 51.9701 1.57916 51.6401 1.12062 50.884C0.814106 50.3767 0.76016 49.756 0.765064 49.1625C0.774873 47.6331 1.10836 46.1259 1.26039 44.6014C1.38299 43.37 1.38544 42.1313 1.39035 40.8949C1.39525 39.0577 1.40016 37.2229 1.40506 35.3857C1.42713 33.5189 2.21916 31.6964 2.40551 29.8026C2.64827 27.3398 1.85379 24.8548 2.13824 22.397C1.96169 20.705 2.54774 18.9663 3.68306 17.7103C3.96995 17.3951 4.29363 17.1044 4.67615 16.9173C5.02435 16.7473 5.40933 16.6685 5.78695 16.5873C6.65009 16.4001 7.50587 16.1809 8.35184 15.9297C9.51413 15.5874 10.7255 15.1342 11.4586 14.1663C11.7676 13.792 11.7921 13.3315 11.7529 12.898C11.7137 12.4621 11.6131 12.0336 11.6009 11.5977" fill="#FAC3C5"/>
<path d="M2.24126 51.8345C2.2241 51.8345 2.20693 51.8271 2.19467 51.8123C1.85138 51.4207 1.66747 50.8986 1.68463 50.3765C1.68463 50.342 1.71651 50.3223 1.74839 50.3174C1.78272 50.3174 1.80969 50.3469 1.80724 50.3814C1.79007 50.8715 1.96417 51.3641 2.28785 51.731C2.30992 51.7557 2.30747 51.7951 2.28295 51.8172C2.27069 51.8295 2.25597 51.8345 2.24126 51.8345Z" fill="black"/>
<path d="M1.1942 50.9529C1.17213 50.9529 1.15006 50.9406 1.1378 50.9184C0.9588 50.5416 0.931827 50.0983 1.06424 49.7043C1.07405 49.6723 1.11083 49.655 1.14271 49.6649C1.17458 49.6747 1.19175 49.7117 1.18194 49.7437C1.05934 50.1082 1.08631 50.5195 1.2506 50.8667C1.26531 50.8963 1.25305 50.9332 1.22117 50.948C1.21137 50.9529 1.20156 50.9529 1.1942 50.9529Z" fill="black"/>
<path d="M25.0678 51.8345C25.0531 51.8345 25.0408 51.8296 25.0285 51.8197C25.0016 51.7976 24.9991 51.7582 25.0212 51.7335C25.4013 51.2804 25.6146 50.6819 25.6072 50.0909C25.6072 50.0564 25.6342 50.0293 25.6685 50.0293C25.7029 50.0293 25.7298 50.0564 25.7298 50.0909C25.7396 50.7115 25.5141 51.3395 25.1168 51.8148C25.1046 51.8271 25.0849 51.8345 25.0678 51.8345Z" fill="black"/>
<path d="M26.159 50.9185C26.1516 50.9185 26.1443 50.916 26.1369 50.9135C26.105 50.9012 26.0903 50.8643 26.1026 50.8347C26.2301 50.5072 26.2889 50.1501 26.2742 49.8004C26.2718 49.7659 26.2987 49.7388 26.3331 49.7363C26.3649 49.7363 26.3944 49.761 26.3968 49.7954C26.414 50.1624 26.3527 50.5392 26.2178 50.8815C26.2056 50.9037 26.1835 50.9185 26.159 50.9185Z" fill="black"/>
<path d="M11.6034 89.498C11.5985 89.498 11.5911 89.498 11.5862 89.4955C11.3385 89.4191 11.0713 89.4019 10.8162 89.4462C10.7819 89.4536 10.75 89.429 10.7451 89.397C10.7402 89.3625 10.7623 89.3305 10.7942 89.3256C11.0492 89.2812 11.314 89.2935 11.5641 89.36C11.5666 89.3305 11.5617 89.3059 11.5519 89.2862C11.5273 89.2221 11.4709 89.1679 11.4072 89.1433C11.2797 89.0965 11.1252 89.1285 11.0026 89.1556C10.9707 89.163 10.9364 89.1409 10.929 89.1088C10.9217 89.0744 10.9437 89.0423 10.9756 89.0349C11.1154 89.0054 11.2895 88.9685 11.4489 89.0276C11.547 89.0645 11.6303 89.1458 11.6671 89.2418C11.6965 89.3182 11.6941 89.397 11.6598 89.4635C11.6475 89.4856 11.6254 89.498 11.6034 89.498Z" fill="black"/>
<path d="M9.69316 89.8108C9.66864 89.8108 9.64657 89.7985 9.63676 89.7739C9.55094 89.5842 9.55339 89.3601 9.63922 89.173C9.65393 89.1409 9.69071 89.1286 9.72013 89.1434C9.75201 89.1582 9.76427 89.1951 9.74956 89.2247C9.67845 89.3798 9.676 89.5645 9.74711 89.7222C9.76182 89.7542 9.74711 89.7887 9.71768 89.8034C9.71033 89.8108 9.70052 89.8108 9.69316 89.8108Z" fill="black"/>
<path d="M8.84232 89.6285C8.81289 89.6285 8.78592 89.6064 8.78101 89.5743C8.7614 89.4093 8.79573 89.2394 8.8791 89.0966C8.89626 89.067 8.9355 89.0572 8.96247 89.0744C8.99189 89.0916 9.0017 89.1286 8.98454 89.1581C8.91343 89.2763 8.884 89.4192 8.90117 89.5571C8.90607 89.5916 8.88155 89.6211 8.84722 89.6261C8.84722 89.6285 8.84477 89.6285 8.84232 89.6285Z" fill="black"/>
<path d="M8.2636 89.3724C8.23908 89.3724 8.21701 89.3577 8.2072 89.333C8.11893 89.1114 8.20966 88.838 8.40828 88.7124C8.4377 88.6927 8.47448 88.7026 8.49165 88.7321C8.50881 88.7617 8.50145 88.7986 8.47203 88.8158C8.32245 88.9119 8.25379 89.1237 8.31755 89.2887C8.32981 89.3207 8.3151 89.3552 8.28322 89.3675C8.27831 89.37 8.27096 89.3724 8.2636 89.3724Z" fill="black"/>
<path d="M15.9534 89.4979C15.9313 89.4979 15.9092 89.4856 15.8994 89.4659C15.8651 89.3994 15.8627 89.3206 15.8921 89.2443C15.9289 89.1482 16.0122 89.0669 16.1103 89.03C16.2721 88.9709 16.4438 89.0078 16.5836 89.0374C16.6154 89.0448 16.6375 89.0768 16.6302 89.1113C16.6228 89.1433 16.5909 89.1654 16.5566 89.1581C16.434 89.131 16.2795 89.099 16.152 89.1458C16.0882 89.1704 16.0294 89.227 16.0049 89.2886C15.9975 89.3083 15.9902 89.3354 15.9926 89.3625C16.2427 89.296 16.5076 89.2837 16.7626 89.328C16.7969 89.3329 16.819 89.3649 16.8116 89.3994C16.8067 89.4314 16.7773 89.4561 16.7405 89.4487C16.4855 89.4043 16.2182 89.4216 15.9705 89.4979C15.9656 89.4979 15.9583 89.4979 15.9534 89.4979Z" fill="black"/>
<path d="M17.8636 89.8109C17.8562 89.8109 17.8464 89.8084 17.8391 89.806C17.8072 89.7912 17.7949 89.7567 17.8072 89.7247C17.8783 89.5695 17.8758 89.3824 17.8047 89.2272C17.79 89.1952 17.8047 89.1607 17.8341 89.1459C17.8636 89.1312 17.9004 89.1459 17.9151 89.1755C18.0009 89.3627 18.0033 89.5868 17.9175 89.7764C17.9102 89.7986 17.8856 89.8109 17.8636 89.8109Z" fill="black"/>
<path d="M18.7145 89.6285C18.712 89.6285 18.7096 89.6285 18.7071 89.6285C18.6728 89.6236 18.6507 89.594 18.6532 89.5595C18.6703 89.4216 18.6409 89.2813 18.5698 89.1606C18.5526 89.131 18.5624 89.0941 18.5919 89.0768C18.6213 89.0596 18.6581 89.0695 18.6752 89.099C18.7611 89.2418 18.7954 89.4118 18.7733 89.5768C18.7709 89.6063 18.7439 89.6285 18.7145 89.6285Z" fill="black"/>
<path d="M19.2931 89.3723C19.2858 89.3723 19.2784 89.3698 19.2711 89.3674C19.2392 89.3551 19.2245 89.3181 19.2367 89.2886C19.303 89.1236 19.2343 88.9118 19.0823 88.8157C19.0528 88.7985 19.0455 88.7591 19.0626 88.732C19.0798 88.7024 19.119 88.695 19.146 88.7123C19.3471 88.8403 19.4354 89.1137 19.3471 89.3329C19.3397 89.3575 19.3177 89.3723 19.2931 89.3723Z" fill="black"/>
<path d="M11.5494 11.5953C11.5494 11.5953 13.4375 12.9917 15.9803 11.5806C15.9803 11.5806 13.5993 15.2698 11.5494 11.5953Z" fill="black"/>
<path d="M17.3682 6.88164C16.9562 6.79298 16.6865 6.2955 16.8336 5.90145C16.1912 6.00243 15.5389 5.37688 15.6149 4.72671C15.1858 4.78581 14.7444 4.42871 14.7101 3.99526C14.254 4.01742 13.8102 3.66525 13.7268 3.21456C13.0206 3.2909 12.3144 2.68998 12.1918 2.01025C11.9687 3.21948 10.8799 4.07653 10.4288 5.21926C10.1026 6.0443 10.1296 6.95799 10.186 7.91601C10.0732 7.67958 9.86723 7.39883 9.61712 7.47764C9.48225 7.5195 9.40133 7.65496 9.34739 7.78302C9.1929 8.14505 9.14877 8.56865 9.3008 8.93068C9.45283 9.29271 9.828 9.571 10.2179 9.53899C10.2473 10.6201 11.0001 11.6053 11.9736 12.0609C12.9495 12.5165 14.102 12.4919 15.1221 12.152C15.8749 11.9008 16.6178 11.4378 16.9219 10.7039C17.0739 10.3394 17.1034 9.93549 17.1328 9.54145C17.2039 8.62283 17.2726 7.70914 17.3682 6.88164Z" fill="#FAC3C5"/>
<path d="M12.7754 6.30243C12.7435 6.30243 12.7166 6.2778 12.7141 6.24578C12.7018 6.08077 12.5155 5.97734 12.4051 5.93301C11.9221 5.73106 11.3655 5.78032 10.9878 6.06354C10.9609 6.08324 10.9216 6.07831 10.902 6.05122C10.8824 6.02413 10.8873 5.98473 10.9143 5.96502C11.3262 5.65718 11.9294 5.60053 12.4517 5.81972C12.6871 5.91823 12.8244 6.066 12.8367 6.23839C12.8392 6.27287 12.8146 6.30243 12.7803 6.30489C12.7779 6.30243 12.7754 6.30243 12.7754 6.30243Z" fill="black"/>
<path d="M14.3742 6.30245C14.3717 6.30245 14.3717 6.30245 14.3692 6.30245C14.3349 6.29998 14.3104 6.27043 14.3129 6.23595C14.3251 6.06602 14.4624 5.91579 14.6978 5.81728C15.2201 5.59809 15.8233 5.65473 16.2353 5.96258C16.2623 5.98228 16.2672 6.02169 16.2476 6.04878C16.2279 6.07587 16.1887 6.0808 16.1617 6.06109C15.7841 5.77787 15.2275 5.72615 14.7444 5.93057C14.6341 5.97736 14.4477 6.07833 14.4355 6.24334C14.433 6.27782 14.406 6.30245 14.3742 6.30245Z" fill="black"/>
<path d="M13.6754 8.88837C13.5748 8.88837 13.4767 8.83911 13.4228 8.7603C13.2904 8.80217 13.1285 8.75291 13.0378 8.63224C12.9471 8.50664 12.9397 8.32193 13.0231 8.17909C13.0403 8.14953 13.077 8.13968 13.1065 8.15692C13.1359 8.17416 13.1457 8.2111 13.1285 8.24066C13.0697 8.34163 13.0721 8.47216 13.1359 8.55835C13.1996 8.64701 13.3296 8.67903 13.4179 8.62731C13.4326 8.61746 13.4522 8.61746 13.4694 8.62239C13.4865 8.62731 13.4988 8.64209 13.5062 8.65933C13.5356 8.73321 13.6312 8.78001 13.7146 8.7603C13.798 8.7406 13.8691 8.66179 13.8887 8.56821C13.8936 8.54604 13.9108 8.52634 13.9328 8.52141C13.9549 8.51649 13.9794 8.52388 13.9941 8.54112C14.0113 8.56082 14.0481 8.56821 14.0824 8.55835C14.1241 8.54358 14.1584 8.50417 14.178 8.47462C14.2148 8.41798 14.2393 8.33178 14.2001 8.2776C14.1805 8.25051 14.1854 8.2111 14.2124 8.1914C14.2393 8.1717 14.2786 8.17662 14.2982 8.20618C14.3767 8.31454 14.3374 8.45492 14.2786 8.54358C14.2344 8.61007 14.1805 8.6544 14.1216 8.67411C14.0726 8.69135 14.0236 8.68888 13.9794 8.67411C13.9328 8.77508 13.8445 8.85389 13.7416 8.87852C13.7219 8.8859 13.6974 8.88837 13.6754 8.88837Z" fill="black"/>
<path d="M15.1098 7.36658C15.2453 7.36658 15.355 7.25632 15.355 7.1203C15.355 6.98429 15.2453 6.87402 15.1098 6.87402C14.9744 6.87402 14.8646 6.98429 14.8646 7.1203C14.8646 7.25632 14.9744 7.36658 15.1098 7.36658Z" fill="black"/>
<path d="M12.0447 7.36658C12.1801 7.36658 12.2899 7.25632 12.2899 7.1203C12.2899 6.98429 12.1801 6.87402 12.0447 6.87402C11.9093 6.87402 11.7995 6.98429 11.7995 7.1203C11.7995 7.25632 11.9093 7.36658 12.0447 7.36658Z" fill="black"/>
<path d="M13.6729 10.2158C12.8956 10.2158 12.2629 9.79222 12.2556 9.7873C12.2286 9.76759 12.2213 9.73065 12.2384 9.7011C12.258 9.67401 12.2948 9.66662 12.3242 9.68386C12.339 9.69371 13.6876 10.5951 14.8254 9.68632C14.8524 9.66416 14.8916 9.66908 14.9112 9.69617C14.9333 9.72326 14.9284 9.76267 14.9014 9.78237C14.4968 10.1075 14.0677 10.2158 13.6729 10.2158Z" fill="black"/>
<path d="M10.1492 8.40052C10.1492 8.40052 9.87704 7.39816 9.4234 7.91042Z" fill="black"/>
<path d="M10.1492 8.4621C10.1222 8.4621 10.0977 8.44486 10.0904 8.41777C10.0511 8.27001 9.90401 7.87596 9.71275 7.83163C9.63919 7.81439 9.55581 7.8538 9.46999 7.95231C9.44792 7.97693 9.40869 7.9794 9.38417 7.95723C9.35965 7.93507 9.35719 7.89566 9.37926 7.87103C9.49942 7.73804 9.61957 7.68386 9.74217 7.71342C10.0389 7.78237 10.1934 8.32665 10.2105 8.38822C10.2203 8.42024 10.2007 8.45471 10.1664 8.46457C10.1615 8.4621 10.1541 8.4621 10.1492 8.4621Z" fill="black"/>
<path d="M19.0798 15.9566C18.6433 15.8285 18.1995 15.6832 17.7752 15.501C17.4834 16.7496 17.123 18.3159 17.0421 19.306C15.7939 20.2788 14.6635 21.2787 13.5625 22.313C12.7754 21.7663 11.9883 21.2072 11.2355 20.6063C10.902 20.3403 10.5734 20.0645 10.1909 19.8773C9.9972 18.742 9.53866 17.0476 9.19537 15.6881C8.92073 15.7867 8.64119 15.8753 8.36656 15.9566C8.0625 16.0453 7.75599 16.1265 7.44947 16.2103C6.7212 18.6927 6.24795 20.8871 5.82619 23.4484C6.11308 24.8374 6.40243 26.2264 6.68933 27.6154C6.86833 28.4799 7.04733 29.3443 7.13315 30.2235C7.4176 33.1345 6.66971 36.0307 5.79431 38.8457C8.84962 41.2248 11.3998 44.2515 13.2315 47.6699C13.3933 47.6329 13.5576 47.6108 13.7219 47.6009C13.6974 47.5984 13.6753 47.596 13.6508 47.596H13.3933C13.4792 47.5911 13.565 47.5935 13.6508 47.596H13.7906C13.8764 47.5935 13.9622 47.5911 14.0481 47.596H13.7906C13.7661 47.596 13.744 47.5984 13.7195 47.6009C13.9058 47.6132 14.0897 47.6403 14.2687 47.6822C15.6615 43.8427 18.1529 40.4145 21.3602 37.9025C20.6172 35.3855 20.0532 32.8119 20.3083 30.2235C20.3941 29.3443 20.5731 28.4799 20.7521 27.6154C21.039 26.2264 21.3283 24.8374 21.6152 23.4484C21.2057 20.961 20.4652 18.5622 19.7492 16.1438C19.5309 16.0822 19.3053 16.0231 19.0798 15.9566Z" fill="#4E101E"/>
</g>
<defs>
<clipPath id="clip0_46_3608">
<rect width="27" height="90" fill="white"/>
</clipPath>
</defs>
</svg>
