<svg width="72" height="72" viewBox="0 0 72 72" fill="none" xmlns="http://www.w3.org/2000/svg">
<path d="M26.575 64.6978L19.4785 63.7311C18.0444 63.5676 17.5739 63.2176 17.5818 61.7759L17.6154 45.4186C17.6297 45.1101 17.701 44.8127 17.7153 44.5036L18.1699 33.9025C18.1825 33.5879 18.2142 33.2827 18.2009 32.9673C17.8189 33.4157 17.1899 33.9098 16.6784 34.1775L16.2966 34.3689C13.9304 35.4122 11.5078 34.007 9.48383 32.8809L6.86223 31.3768C5.84133 30.7294 3.93029 29.4194 3.45455 28.2918L3.36426 28.0546C3.22076 27.6527 3.18189 27.1509 3.25119 26.7295L3.25922 26.6835C3.38093 25.9045 3.77317 25.4913 4.34024 25.0019L7.18004 22.5695C9.11061 20.8147 10.3016 19.1393 11.6282 16.8691L12.9997 14.5412C14.6649 11.9365 16.7056 9.70401 19.8629 9.04511L21.9118 8.70536C23.0762 8.48128 24.1688 8.07431 25.2071 7.50661L26.0855 6.99885C27.4483 6.16995 27.4613 6.40229 28.7372 6.97842C32.8743 8.84655 39.3091 8.85232 43.3944 6.86032C43.7445 6.68962 44.0545 6.49025 44.4408 6.40557C45.0331 6.34915 45.4758 6.78956 45.9556 7.05829C47.5723 7.96364 49.0926 8.54308 50.9234 8.85464C51.3136 8.92101 51.7129 8.94717 52.1012 9.03415C55.7538 9.85272 57.7719 12.4741 59.6197 15.5741L60.7607 17.5346C62.508 20.348 63.9465 21.8795 66.4161 23.9689C68.5352 25.7618 69.9716 27.2972 67.5268 29.6028C65.9992 31.0434 64.0373 32.0663 62.2083 33.0717C59.4268 34.6008 56.3731 35.8152 53.8302 33.0605L53.7983 33.0253C53.7804 33.351 53.8512 34.9097 53.895 35.15C54.1007 36.2792 54.0042 37.8456 54.0831 39.104L54.2006 41.8071C54.2173 42.0572 54.2569 42.304 54.2653 42.5549L54.2876 45.4853C54.2949 45.7421 54.354 45.9917 54.3638 46.2479L54.3716 48.2679C54.3777 48.5787 54.4313 48.884 54.4362 49.1923L54.4434 58.9728C54.4435 59.5655 54.5221 62.3123 54.3813 62.572C54.1378 63.0215 53.9528 63.3533 53.4657 63.584L53.4104 63.6093C53.1802 63.7162 52.9472 63.7154 52.6988 63.7414L41.3682 65.2081L37.2652 65.4608C36.2575 65.4967 35.2606 65.443 34.2557 65.4007L32.6366 65.3569L26.575 64.6978ZM28.3418 9.22842C28.3339 9.6877 28.713 11.1738 28.8534 11.5839C29.4429 13.3062 30.1944 14.8181 31.4 16.2003C32.7216 17.7156 33.7722 18.1674 35.6885 18.173C38.2812 18.1807 39.3839 17.892 41.0448 15.6837L41.6268 14.8298C42.3669 13.5561 42.9374 12.3153 43.2511 10.8675L43.4435 9.85469C43.4775 9.64903 43.4909 9.42691 43.5533 9.22821C39.5983 11.0819 33.0366 10.9429 29.085 9.5141L28.3418 9.22842ZM26.1751 9.46847C25.0806 10.0036 24.0379 10.4608 22.8512 10.7593C21.8172 11.0194 20.7343 11.0973 19.716 11.3931C16.3789 12.3628 14.8144 15.8694 13.1635 18.6036C11.5324 21.3053 9.8567 23.2536 7.4312 25.2948L5.93739 26.5768C5.74784 26.7474 5.52047 26.9193 5.3702 27.1244C5.99052 28.6049 9.63367 30.4613 11.0062 31.2012C13.1162 32.3388 14.6576 33.324 16.6198 31.4581C17.2131 30.8939 17.7846 30.2172 18.4549 29.7542L18.5509 27.3984C18.5825 25.7296 20.2446 25.5148 20.6979 26.8065L20.7215 26.8583C20.8094 27.0614 20.6019 30.6939 20.5607 30.8847C20.4389 31.4481 20.4894 32.0771 20.4556 32.6539L20.3216 34.9628C20.3111 35.1159 20.2699 35.2634 20.2618 35.4148L19.9821 41.1947L19.7725 47.2228L19.762 50.1854C19.7549 50.4438 19.7078 50.6984 19.6997 50.9571L19.6906 53.9932C19.6912 54.5499 19.6554 55.1454 19.7307 55.6955L52.3065 55.6909L52.3054 51.7522C52.3049 51.1153 52.3712 50.3703 52.2643 49.7456L52.2746 49.7142C52.0796 48.9572 52.2061 46.6413 52.1925 45.7442L52.0217 41L51.7861 36.7347C51.7473 35.6263 51.6597 34.5346 51.6305 33.444L51.3142 28.2355C51.292 27.8427 51.1888 27.4316 51.2238 27.0392C51.2999 26.1846 52.3592 25.6526 53.0311 26.2369C53.8497 26.9488 53.1504 29.1793 53.5195 29.7724C53.572 29.8568 53.8403 29.9879 53.9341 30.0761L55.3345 31.4575C56.7582 32.7934 58.0324 32.7432 59.7799 31.8604L61.4505 30.955C62.519 30.3726 66.1489 28.4725 66.5544 27.2532L66.5874 27.1461C66.4052 26.8357 66.0851 26.5979 65.8194 26.3598L63.7597 24.5762C61.2276 22.3051 59.7723 20.1631 58.0188 17.244C56.4057 14.5587 55.0703 12.0719 51.8375 11.2562C50.0413 10.8031 48.982 10.8397 47.1404 10.0739L45.7159 9.46699C45.2631 13.3196 43.6549 16.8719 40.5483 19.341C39.8403 19.9038 36.7292 22.1926 35.7918 22.0649C35.4957 22.0247 35.1137 21.7492 34.8443 21.6085C30.2724 19.2207 26.6868 14.7039 26.1769 9.4736L26.1751 9.46847ZM19.8606 57.9105L19.7227 57.9232C19.6742 58.1914 19.6906 58.4807 19.6901 58.7531L19.6894 60.1155C19.6895 60.571 19.6336 61.1166 19.7042 61.5618C19.9949 61.6053 20.2876 61.6093 20.5801 61.6368L26.2273 62.425L32.0647 63.0575C33.1531 63.1624 34.5192 63.2212 35.6355 63.2422C36.1566 63.252 36.6747 63.1913 37.1949 63.1782L39.4425 63.1324C39.6367 63.1195 39.8195 63.0741 40.0124 63.0585L47.6187 62.1519C48.6054 62.022 49.5926 61.8276 50.5842 61.7442L51.5562 61.6284C51.8006 61.6054 52.0684 61.6095 52.3056 61.5506L52.3051 57.9171L19.8606 57.9105Z" fill="black"/>
</svg>
