<svg width="72" height="72" viewBox="0 0 72 72" fill="none" xmlns="http://www.w3.org/2000/svg">
<path d="M37.7298 53.305L36.0553 41.5379C35.8633 41.967 35.8372 42.7041 35.7744 43.1685L35.3912 46.0528L33.3343 59.0979C33.1512 60.2212 33.0775 61.6389 32.5161 62.6573C31.6568 64.2164 28.5727 64.2178 26.9156 64.0869C26.7264 64.072 26.5425 64.0207 26.3533 64.0019L21.7408 63.4121C19.8804 63.0739 16.757 62.488 15.6475 60.803C14.918 59.6952 15.2461 58.5959 15.4425 57.4104L17.2733 45.4221L18.6041 35.8245C18.6275 35.6573 18.6748 35.4944 18.6963 35.3269L20.2028 21.6325L20.9363 16.0193C21.0188 15.1882 21.0021 13.3928 21.3735 12.6917C21.6006 12.2632 21.5447 11.954 21.5456 11.471L21.5473 9.6271C21.5479 8.68252 21.7611 8.05076 22.821 7.88517L48.5607 7.88764C48.848 7.88876 49.2807 7.84024 49.5468 7.95021L49.6062 7.97785C49.8729 8.09344 50.0584 8.25235 50.2101 8.50174L50.3751 8.8069C50.5029 9.18033 50.4365 9.72842 50.4371 10.1293L50.4398 12.1995C50.4357 12.4527 50.6956 12.8232 50.7793 13.1048C50.8815 13.4488 50.865 13.8137 50.8879 14.1689L50.9826 15.1838C51.023 15.7471 51.0972 16.2674 51.1693 16.8225L53.1583 34.0491L54.283 42.3987L55.3278 49.3034C55.438 50.0329 55.6083 50.9221 55.6725 51.6174L56.7336 58.4098C56.8415 59.0604 56.8747 59.4536 56.7039 60.0911L56.6945 60.1271C56.0358 62.4546 49.4263 63.3797 47.3721 63.6994L45.1211 64.0075C44.441 64.083 42.6472 64.2357 41.9949 64.0439C39.5757 63.3325 39.3571 62.9296 38.9216 60.6015L37.7298 53.305ZM27.3739 9.6143L23.309 9.6297L23.3085 11.8459C23.5775 11.8781 23.833 11.8473 24.1003 11.8613L28.0586 11.9108L28.0405 9.61563L27.3739 9.6143ZM35.2487 9.62316L33.4716 9.65761L33.46 11.1466C33.4603 11.4192 33.4411 11.7102 33.4754 11.98L36.7214 11.9566L38.4355 11.9518L38.4341 9.62801L35.2487 9.62316ZM43.8489 9.62231L43.8463 11.8521L48.6917 11.8732L48.6884 10.3034C48.688 10.0916 48.721 9.831 48.6712 9.62822L43.8489 9.62231ZM29.8817 9.63293L29.815 11.8455C29.8098 14.7032 29.7245 15.5875 27.7605 18.018C26.3673 19.7422 25.0564 20.5983 23.0833 21.6358C22.8965 21.734 21.9935 22.0554 21.9699 22.2241L20.602 34.4968L17.2245 57.4807C17.0999 58.1367 16.6895 59.3931 17.2416 59.933C18.255 60.9239 21.509 61.5401 22.8249 61.6311L27.982 62.2042C29.0624 62.2548 30.1029 62.2464 31.0602 61.6834L32.4757 53.0686L34.9001 36.387C34.9499 36.0531 35.0726 35.719 35.0962 35.3832C35.1422 34.7303 35.1078 34.055 35.108 33.399L35.1069 13.8484L33.3811 13.852C33.0266 13.852 32.5917 13.9069 32.2644 13.7595L32.2165 13.7393C31.4966 13.4299 31.6707 12.6918 31.67 12.0612L31.6701 9.64165L29.8817 9.63293ZM40.267 9.63694C40.2171 10.4687 40.244 11.3227 40.2562 12.1541C40.2739 13.3512 40.0726 13.8557 38.6515 13.8546L36.8888 13.8312L36.8756 33.5272C36.8772 34.3435 36.9084 35.06 37.043 35.8634L37.3384 37.9866C37.4689 38.9311 37.5567 39.8962 37.7236 40.8342L38.1867 44.0879C38.213 44.267 38.2196 44.4541 38.2523 44.6311L40.1731 57.1545C40.2865 57.8689 40.75 61.5626 41.0845 61.7733C42.9238 62.932 48.495 61.6656 50.5278 61.2805C51.2611 61.0878 55.0225 60.2524 55.0512 59.4495C55.0751 58.7808 54.8632 58.0344 54.7506 57.3753L51.658 36.6858L49.9461 21.6662C49.8038 21.5454 49.3579 21.4846 49.1666 21.4293C45.8209 20.4633 43.765 18.0105 42.627 14.7541C42.3874 14.0683 42.1518 13.3196 42.0936 12.5932L42.0771 9.64193L40.267 9.63694ZM24.3172 13.7577L22.9357 13.7686C22.8801 14.0643 22.8924 14.3505 22.8726 14.6487L22.4504 18.3745C22.3812 18.9024 22.283 19.4308 22.2844 19.9642C23.1187 19.5876 23.8944 19.1274 24.6083 18.5537C26.1206 17.3602 27.4982 15.7245 27.9196 13.8065C27.4391 13.7381 26.9408 13.7592 26.4558 13.7582L24.3172 13.7577ZM44.419 13.7592L44.3026 13.7864C44.2963 13.8759 44.314 13.9411 44.3386 14.0254L44.7428 15.1702C45.4084 17.0844 47.7126 19.2732 49.664 19.6193L49.1012 13.8092C48.4785 13.6778 47.7131 13.7569 47.0757 13.7568L44.419 13.7592Z" fill="black"/>
</svg>
