<svg width="72" height="72" viewBox="0 0 72 72" fill="none" xmlns="http://www.w3.org/2000/svg">
<path d="M48.8769 63.1552L46.2032 63.9115C44.5763 64.2974 42.8578 64.5501 41.1905 64.6472L35.4349 64.6568C34.5639 64.6443 33.837 64.7262 32.9919 64.7281L31.3072 64.6867C27.1435 64.3782 22.971 63.5166 19.2354 61.5881C18.0891 60.9962 16.8234 60.722 17.605 59.2303L19.0585 56.3065C19.3105 55.7466 19.5172 55.1872 19.6868 54.5966L21.706 47.8037C22.0797 46.5224 22.4842 45.2421 22.744 43.9315C23.2497 41.3819 23.1542 38.7446 23.8283 36.2182C24.3046 34.4328 24.8666 32.6779 25.6068 30.9829C26.2536 29.5018 28.2357 25.9032 28.0355 24.3404C27.962 23.7665 27.7127 23.6168 28.0464 22.9845C28.3403 22.4276 27.052 20.884 26.7574 20.3859C25.8685 18.8828 25.835 18.1076 25.5458 16.5561L25.5238 16.4357C25.4537 15.9967 25.4868 15.5214 25.4863 15.0766L25.4859 10.2128C25.4861 9.77329 25.3315 8.98003 25.6075 8.61286L25.6336 8.57876C25.7429 8.43033 25.8589 8.31965 26.0394 8.26361L26.0812 8.25138C26.2931 8.18803 26.5144 8.18472 26.7303 8.14197C27.9398 7.90284 29.049 7.36432 30.2375 7.07315C31.1168 6.99159 31.2216 7.8724 31.2219 8.48102V9.81576C31.2229 11.3341 31.7348 12.2058 33.086 12.975C34.8595 13.9848 34.9499 14.4708 36.0394 15.8643C36.7001 14.5761 37.5736 13.7343 38.8079 13.0269C40.9985 11.7712 40.7462 10.8475 40.7447 8.41676C40.7444 7.89658 40.7053 7.44848 41.2568 7.18228L41.3019 7.16133C41.8268 6.91371 42.2847 7.24451 42.7882 7.40608L44.677 7.95895C46.0238 8.33126 46.5008 7.99115 46.5022 9.65426L46.5023 15.0914C46.502 15.621 46.5499 16.2096 46.4755 16.732C46.0839 19.4792 45.0402 20.4605 43.8455 22.6803C44.0032 23.3656 44.3501 23.445 43.9512 24.2619C44.0876 26.0998 44.5188 27.193 45.3428 28.8639L46.3251 30.9457L47.8014 34.9285C48.0611 36.079 48.4378 37.1964 48.6054 38.3712L49.0714 43.0583C49.2001 44.1106 49.5345 45.0662 49.7556 46.0905L52.0793 53.737C52.6416 55.5944 53.0086 56.6239 53.9439 58.4206C54.8953 60.2481 55.2219 60.3005 52.981 61.4494C51.6512 62.1311 50.298 62.6956 48.8769 63.1552ZM42.6492 9.38032C42.618 9.92278 42.6609 10.4844 42.5924 11.022C42.3776 12.7086 41.3354 13.7236 39.9844 14.5436C38.7178 15.3125 37.8198 16.1741 37.299 17.5738C37.0677 18.1953 36.9779 18.8954 36.2424 19.098C35.1537 19.3978 34.9467 18.1491 34.6425 17.4201C33.0892 13.6975 29.2474 15.0352 29.3007 9.44135L29.2583 9.45773C28.6551 9.6866 27.9554 9.81042 27.3252 9.95533L27.3444 14.7838L27.3599 15.8968C27.3662 16.7323 27.5967 17.5835 27.917 18.3522L28.1795 18.9323C28.6111 19.8024 29.4085 20.6309 29.7041 21.5338L29.8685 22.0385C29.9182 22.183 29.9217 22.3636 29.9397 22.5159C30.4976 22.5804 31.114 22.5314 31.6794 22.5316L39.7689 22.5301C40.5125 22.5297 41.2933 22.5765 42.0324 22.5181L42.2329 21.7052C42.443 21.0684 42.8898 20.5467 43.2458 19.9891C44.3498 18.2594 44.624 17.0577 44.6299 15.1053L44.6259 10.8206C44.625 10.5178 44.6486 10.1882 44.6081 9.88875C43.9751 9.78525 43.2292 9.66325 42.6492 9.38032ZM30.8815 24.3669C29.3633 24.42 30.1716 24.4375 29.8107 25.7953C30.2021 25.8427 30.6331 25.81 31.0287 25.8104L41.1597 25.8119C41.4923 25.8102 41.8601 25.8528 42.1875 25.8052L42.0364 24.3726L30.8815 24.3669ZM29.2233 27.7162L27.6857 31.0647C26.1906 34.3558 25.385 37.1457 25.035 40.7291C24.8613 42.5087 24.7925 43.7399 24.3442 45.4714L22.1402 53.0567C21.9367 53.7341 21.7642 54.4326 21.5224 55.0967C22.3615 55.563 23.3124 55.8532 24.2232 56.1469C28.2428 57.4429 32.5571 57.9232 36.7705 57.7923L41.3119 57.4298C41.6743 57.3822 42.0308 57.3521 42.3902 57.2797C45.1223 56.9322 47.88 56.096 50.4478 55.137L48.9705 50.0657C48.2568 47.8173 47.4333 45.4936 47.1566 43.1374L46.9292 40.4526C46.5759 37.0173 45.614 34.0471 44.1817 30.915L43.3379 29.0966C43.1637 28.7141 42.9632 28.3149 42.872 27.9037C42.7982 27.5713 42.364 27.7031 42.1094 27.7028L29.2233 27.7162ZM20.8755 56.9097L19.5976 59.5912L21.0591 60.329C23.8828 61.6044 26.8044 62.2879 29.8664 62.6299L32.1408 62.838L40.0535 62.7657C42.7214 62.6007 45.5225 62.2687 48.0606 61.3971L51.3169 60.1198L52.4414 59.5287C51.9191 58.6932 51.5294 57.8114 51.1556 56.903C47.9378 58.3483 43.2758 59.2985 39.8405 59.5945L38.4653 59.6609C38.208 59.6758 37.955 59.7274 37.6972 59.7373L35.5356 59.7468C34.7667 59.7472 33.9805 59.7805 33.2139 59.7367L28.236 59.1159C26.271 58.7719 24.3591 58.3125 22.491 57.6041L20.8755 56.9097Z" fill="black"/>
</svg>
